<svg width="193" height="165" viewBox="0 0 193 165" fill="none" xmlns="http://www.w3.org/2000/svg">
<path d="M53.7217 16.0975C77.598 16.0975 91.5258 34.2073 91.5258 70.4268C91.5258 110.671 85.3976 134.254 118.665 165H24.5926C-10.1076 113.81 21.7275 107.451 21.7275 56.9049C21.7275 29.0561 36.3716 16.0975 53.7217 16.0975Z" fill="url(#paint0_linear_91_2572)"/>
<path d="M76.7225 77.3488C79.5877 77.3488 79.5877 75.9 81.0998 71.4732C83.0099 65.7585 81.259 59.3195 78.2347 58.2732C73.8573 56.8244 70.9922 59.7219 70.9922 62.7C70.9922 67.1268 73.8573 67.1268 73.8573 70.0244C73.7778 73.0024 73.7778 77.3488 76.7225 77.3488Z" fill="url(#paint1_linear_91_2572)"/>
<path d="M0 146.89V165H127.34V150.915C127.34 137.715 111.821 131.678 89.6953 115.419C73.7777 103.749 75.2103 96.4243 75.2103 80.3268C75.2103 74.4512 75.2103 74.4512 75.2103 74.4512H44.8874C44.8874 74.4512 44.8874 81.7756 44.8874 91.9975C44.8874 106.646 41.7039 111.958 31.8351 118.317C11.5402 131.517 0 136.668 0 146.89Z" fill="url(#paint2_linear_91_2572)"/>
<path d="M40.5104 97.8732C44.8877 102.3 52.0506 100.771 57.8605 97.8732C64.8642 94.3318 75.2106 86.2025 75.2106 71.5537C75.2106 52.5586 36.1331 58.3537 36.1331 36.461C36.1331 30.5854 27.458 40.8879 27.458 58.4342C27.458 77.3488 32.5516 89.744 40.5104 97.8732Z" fill="url(#paint3_linear_91_2572)"/>
<mask id="mask0_91_2572" style="mask-type:luminance" maskUnits="userSpaceOnUse" x="0" y="74" width="128" height="91">
<path d="M0 146.89V165H127.34V150.915C127.34 137.715 111.821 131.678 89.6953 115.419C73.7777 103.749 75.2103 96.4243 75.2103 80.3268C75.2103 74.4512 75.2103 74.4512 75.2103 74.4512H44.8874C44.8874 74.4512 44.8874 81.7756 44.8874 91.9975C44.8874 106.646 41.7039 111.958 31.8351 118.317C11.5402 131.517 0 136.668 0 146.89Z" fill="white"/>
</mask>
<g mask="url(#mask0_91_2572)">
<path d="M0 165H127.34V102.622H81.5773C81.5773 102.622 76.7225 113.971 62.2375 113.971C62.2375 113.971 59.3724 124.193 46.32 131.517C53.5625 121.295 53.5625 113.971 53.5625 113.971C44.8874 111.073 39.7938 104.634 39.7938 104.634H0V165Z" fill="url(#paint4_linear_91_2572)"/>
</g>
<path d="M165.144 34.2073C155.037 50.3049 139.278 60.3659 129.33 66.4024C123.759 69.7829 112.378 73.0829 107.443 66.4024C103.066 60.5268 99.3253 39.6805 99.3253 28.0098C99.3253 6.03659 110.388 2.0122 123.361 2.0122C137.289 2.0122 143.258 6.03659 151.216 6.03659C157.186 6.03659 161.165 0 165.144 0C173.103 0 172.307 22.8585 165.144 34.2073Z" fill="url(#paint5_linear_91_2572)"/>
<path d="M118.665 63.8269C115.402 64.2293 115.243 62.6195 113.014 57.8708C110.07 51.7537 111.184 44.2683 114.447 42.6586C119.143 40.4049 122.804 43.3025 123.202 46.522C123.838 51.4317 120.575 51.8342 120.973 55.1342C121.292 58.4342 121.928 63.4244 118.665 63.8269Z" fill="url(#paint6_linear_91_2572)"/>
<path d="M151.376 82.9024C149.943 84.3512 146.998 85.7999 142.701 85.7999C136.891 85.7999 129.648 82.9024 123.918 69.7024C120.894 62.8609 119.541 52.3975 119.541 52.3975C118.108 34.5292 123.759 31.6317 131.081 31.6317C139.756 31.6317 142.223 30.6658 148.431 28.7341C167.214 22.8585 164.348 31.6317 164.348 37.5073C164.428 52.156 160.051 74.0487 151.376 82.9024Z" fill="url(#paint7_linear_91_2572)"/>
<mask id="mask1_91_2572" style="mask-type:luminance" maskUnits="userSpaceOnUse" x="67" y="61" width="125" height="104">
<path d="M191.01 146.89V165H67.6495V136.829C67.6495 119.283 77.2 117.19 99.3254 101.012C115.243 89.3415 115.243 84.2708 115.243 64.2293C115.243 58.3537 115.243 62.3781 115.243 62.3781H148.511C148.511 62.3781 148.511 69.7025 148.511 79.9244C148.511 96.5049 155.196 100.61 167.134 108.659C189.657 123.871 191.01 133.69 191.01 146.89Z" fill="white"/>
</mask>
<g mask="url(#mask1_91_2572)">
<path d="M193 92.561H155.196C155.196 92.561 159.175 104.634 137.289 104.634C114.129 104.634 103.464 96.5854 103.464 96.5854H67.6495V165H193V92.561Z" fill="url(#paint8_linear_91_2572)"/>
</g>
<mask id="mask2_91_2572" style="mask-type:luminance" maskUnits="userSpaceOnUse" x="67" y="61" width="125" height="104">
<path d="M191.01 146.89V165H67.6495V136.829C67.6495 119.283 77.2 117.19 99.3254 101.012C115.243 89.3415 115.243 84.2708 115.243 64.2293C115.243 58.3537 115.243 62.3781 115.243 62.3781H148.511C148.511 62.3781 148.511 69.7025 148.511 79.9244C148.511 96.5049 155.196 100.61 167.134 108.659C189.657 123.871 191.01 133.69 191.01 146.89Z" fill="white"/>
</mask>
<g mask="url(#mask2_91_2572)">
<path d="M154.4 98.7586C150.58 94.4928 148.51 89.1001 148.51 80.005C148.51 69.783 148.51 62.4586 148.51 62.4586H115.243C115.243 62.9415 115.243 63.505 115.243 64.3098C115.243 81.9367 115.243 87.9733 104.26 97.2294C107.045 99.0001 117.71 104.795 137.289 104.795C148.113 104.634 152.569 101.737 154.4 98.7586Z" fill="url(#paint9_linear_91_2572)"/>
</g>
<path d="M53.7217 16.0975C77.598 16.0975 91.5258 34.2073 91.5258 70.4268C91.5258 110.671 85.3976 134.254 118.665 165H24.5926C-10.1076 113.81 21.7275 107.451 21.7275 56.9049C21.7275 29.0561 36.3716 16.0975 53.7217 16.0975Z" fill="url(#paint10_linear_91_2572)"/>
<path d="M76.7225 77.3488C79.5877 77.3488 79.5877 75.9 81.0998 71.4732C83.0099 65.7585 81.259 59.3195 78.2347 58.2732C73.8573 56.8244 70.9922 59.7219 70.9922 62.7C70.9922 67.1268 73.8573 67.1268 73.8573 70.0244C73.7778 73.0024 73.7778 77.3488 76.7225 77.3488Z" fill="url(#paint11_linear_91_2572)"/>
<path d="M0 146.89V165H127.34V150.915C127.34 137.715 111.821 131.678 89.6953 115.419C73.7777 103.749 75.2103 96.4243 75.2103 80.3268C75.2103 74.4512 75.2103 74.4512 75.2103 74.4512H44.8874C44.8874 74.4512 44.8874 81.7756 44.8874 91.9975C44.8874 106.646 41.7039 111.958 31.8351 118.317C11.5402 131.517 0 136.668 0 146.89Z" fill="url(#paint12_linear_91_2572)"/>
<path d="M40.5104 97.8732C44.8877 102.3 52.0506 100.771 57.8605 97.8732C64.8642 94.3318 75.2106 86.2025 75.2106 71.5537C75.2106 52.5586 36.1331 58.3537 36.1331 36.461C36.1331 30.5854 27.458 40.8879 27.458 58.4342C27.458 77.3488 32.5516 89.744 40.5104 97.8732Z" fill="url(#paint13_linear_91_2572)"/>
<mask id="mask3_91_2572" style="mask-type:luminance" maskUnits="userSpaceOnUse" x="0" y="74" width="128" height="91">
<path d="M0 146.89V165H127.34V150.915C127.34 137.715 111.821 131.678 89.6953 115.419C73.7777 103.749 75.2103 96.4243 75.2103 80.3268C75.2103 74.4512 75.2103 74.4512 75.2103 74.4512H44.8874C44.8874 74.4512 44.8874 81.7756 44.8874 91.9975C44.8874 106.646 41.7039 111.958 31.8351 118.317C11.5402 131.517 0 136.668 0 146.89Z" fill="white"/>
</mask>
<g mask="url(#mask3_91_2572)">
<path d="M0 165H127.34V102.622H81.5773C81.5773 102.622 76.7225 113.971 62.2375 113.971C62.2375 113.971 59.3724 124.193 46.32 131.517C53.5625 121.295 53.5625 113.971 53.5625 113.971C44.8874 111.073 39.7938 104.634 39.7938 104.634H0V165Z" fill="url(#paint14_linear_91_2572)"/>
</g>
<path d="M165.144 34.2073C155.037 50.3049 139.278 60.3659 129.33 66.4024C123.759 69.7829 112.378 73.0829 107.443 66.4024C103.066 60.5268 99.3253 39.6805 99.3253 28.0098C99.3253 6.03659 110.388 2.0122 123.361 2.0122C137.289 2.0122 143.258 6.03659 151.216 6.03659C157.186 6.03659 161.165 0 165.144 0C173.103 0 172.307 22.8585 165.144 34.2073Z" fill="url(#paint15_linear_91_2572)"/>
<path d="M118.665 63.8269C115.402 64.2293 115.243 62.6195 113.014 57.8708C110.07 51.7537 111.184 44.2683 114.447 42.6586C119.143 40.4049 122.804 43.3025 123.202 46.522C123.838 51.4317 120.575 51.8342 120.973 55.1342C121.292 58.4342 121.928 63.4244 118.665 63.8269Z" fill="url(#paint16_linear_91_2572)"/>
<path d="M151.376 82.9024C149.943 84.3512 146.998 85.7999 142.701 85.7999C136.891 85.7999 129.648 82.9024 123.918 69.7024C120.894 62.8609 119.541 52.3975 119.541 52.3975C118.108 34.5292 123.759 31.6317 131.081 31.6317C139.756 31.6317 142.223 30.6658 148.431 28.7341C167.214 22.8585 164.348 31.6317 164.348 37.5073C164.428 52.156 160.051 74.0487 151.376 82.9024Z" fill="url(#paint17_linear_91_2572)"/>
<mask id="mask4_91_2572" style="mask-type:luminance" maskUnits="userSpaceOnUse" x="67" y="61" width="125" height="104">
<path d="M191.01 146.89V165H67.6495V136.829C67.6495 119.283 77.2 117.19 99.3254 101.012C115.243 89.3415 115.243 84.2708 115.243 64.2293C115.243 58.3537 115.243 62.3781 115.243 62.3781H148.511C148.511 62.3781 148.511 69.7025 148.511 79.9244C148.511 96.5049 155.196 100.61 167.134 108.659C189.657 123.871 191.01 133.69 191.01 146.89Z" fill="white"/>
</mask>
<g mask="url(#mask4_91_2572)">
<path d="M193 92.561H155.196C155.196 92.561 159.175 104.634 137.289 104.634C114.129 104.634 103.464 96.5854 103.464 96.5854H67.6495V165H193V92.561Z" fill="url(#paint18_linear_91_2572)"/>
</g>
<mask id="mask5_91_2572" style="mask-type:luminance" maskUnits="userSpaceOnUse" x="67" y="61" width="125" height="104">
<path d="M191.01 146.89V165H67.6495V136.829C67.6495 119.283 77.2 117.19 99.3254 101.012C115.243 89.3415 115.243 84.2708 115.243 64.2293C115.243 58.3537 115.243 62.3781 115.243 62.3781H148.511C148.511 62.3781 148.511 69.7025 148.511 79.9244C148.511 96.5049 155.196 100.61 167.134 108.659C189.657 123.871 191.01 133.69 191.01 146.89Z" fill="white"/>
</mask>
<g mask="url(#mask5_91_2572)">
<path d="M154.4 98.7586C150.58 94.4928 148.51 89.1001 148.51 80.005C148.51 69.783 148.51 62.4586 148.51 62.4586H115.243C115.243 62.9415 115.243 63.505 115.243 64.3098C115.243 81.9367 115.243 87.9733 104.26 97.2294C107.045 99.0001 117.71 104.795 137.289 104.795C148.113 104.634 152.569 101.737 154.4 98.7586Z" fill="url(#paint19_linear_91_2572)"/>
</g>
<defs>
<linearGradient id="paint0_linear_91_2572" x1="70.5664" y1="140.1" x2="-86.7447" y2="-218.345" gradientUnits="userSpaceOnUse">
<stop stop-color="#1878F3" stop-opacity="0"/>
<stop offset="1" stop-color="#1878F3"/>
</linearGradient>
<linearGradient id="paint1_linear_91_2572" x1="73.6842" y1="68.4974" x2="90.6629" y2="63.2304" gradientUnits="userSpaceOnUse">
<stop stop-color="#1878F3" stop-opacity="0"/>
<stop offset="1" stop-color="#1878F3" stop-opacity="0.7"/>
</linearGradient>
<linearGradient id="paint2_linear_91_2572" x1="80.5421" y1="115.496" x2="22.0278" y2="248.338" gradientUnits="userSpaceOnUse">
<stop stop-color="#1878F3" stop-opacity="0"/>
<stop offset="1" stop-color="#1878F3"/>
</linearGradient>
<linearGradient id="paint3_linear_91_2572" x1="74.1823" y1="74.5162" x2="9.61138" y2="61.5602" gradientUnits="userSpaceOnUse">
<stop stop-color="#1878F3" stop-opacity="0"/>
<stop offset="1" stop-color="#1878F3"/>
</linearGradient>
<linearGradient id="paint4_linear_91_2572" x1="118.523" y1="179.95" x2="-67.7366" y2="26.7626" gradientUnits="userSpaceOnUse">
<stop stop-color="#1878F3" stop-opacity="0"/>
<stop offset="1" stop-color="#1878F3"/>
</linearGradient>
<linearGradient id="paint5_linear_91_2572" x1="141.683" y1="56.1537" x2="111.644" y2="-90.3027" gradientUnits="userSpaceOnUse">
<stop stop-color="#1878F3" stop-opacity="0"/>
<stop offset="1" stop-color="#1878F3"/>
</linearGradient>
<linearGradient id="paint6_linear_91_2572" x1="120.827" y1="53.4201" x2="101.057" y2="49.8652" gradientUnits="userSpaceOnUse">
<stop stop-color="#1878F3" stop-opacity="0"/>
<stop offset="1" stop-color="#1878F3" stop-opacity="0.7"/>
</linearGradient>
<linearGradient id="paint7_linear_91_2572" x1="120.154" y1="58.8278" x2="191.684" y2="53.0029" gradientUnits="userSpaceOnUse">
<stop stop-color="#1878F3" stop-opacity="0"/>
<stop offset="1" stop-color="#1878F3"/>
</linearGradient>
<linearGradient id="paint8_linear_91_2572" x1="85.3401" y1="108.781" x2="241.417" y2="176.627" gradientUnits="userSpaceOnUse">
<stop stop-color="#1878F3" stop-opacity="0"/>
<stop offset="1" stop-color="#1878F3"/>
</linearGradient>
<linearGradient id="paint9_linear_91_2572" x1="125.706" y1="78.6986" x2="240.944" y2="254.331" gradientUnits="userSpaceOnUse">
<stop stop-color="#1878F3" stop-opacity="0"/>
<stop offset="1" stop-color="#1878F3"/>
</linearGradient>
<linearGradient id="paint10_linear_91_2572" x1="70.5664" y1="140.1" x2="-86.7447" y2="-218.345" gradientUnits="userSpaceOnUse">
<stop stop-color="#1878F3" stop-opacity="0"/>
<stop offset="1" stop-color="#1878F3"/>
</linearGradient>
<linearGradient id="paint11_linear_91_2572" x1="73.6842" y1="68.4974" x2="90.6629" y2="63.2304" gradientUnits="userSpaceOnUse">
<stop stop-color="#1878F3" stop-opacity="0"/>
<stop offset="1" stop-color="#1878F3" stop-opacity="0.7"/>
</linearGradient>
<linearGradient id="paint12_linear_91_2572" x1="80.5421" y1="115.496" x2="22.0278" y2="248.338" gradientUnits="userSpaceOnUse">
<stop stop-color="#1878F3" stop-opacity="0"/>
<stop offset="1" stop-color="#1878F3"/>
</linearGradient>
<linearGradient id="paint13_linear_91_2572" x1="74.1823" y1="74.5162" x2="9.61138" y2="61.5602" gradientUnits="userSpaceOnUse">
<stop stop-color="#1878F3" stop-opacity="0"/>
<stop offset="1" stop-color="#1878F3"/>
</linearGradient>
<linearGradient id="paint14_linear_91_2572" x1="118.523" y1="179.95" x2="-67.7366" y2="26.7626" gradientUnits="userSpaceOnUse">
<stop stop-color="#1878F3" stop-opacity="0"/>
<stop offset="1" stop-color="#1878F3"/>
</linearGradient>
<linearGradient id="paint15_linear_91_2572" x1="141.683" y1="56.1537" x2="111.644" y2="-90.3027" gradientUnits="userSpaceOnUse">
<stop stop-color="#1878F3" stop-opacity="0"/>
<stop offset="1" stop-color="#1878F3"/>
</linearGradient>
<linearGradient id="paint16_linear_91_2572" x1="120.827" y1="53.4201" x2="101.057" y2="49.8652" gradientUnits="userSpaceOnUse">
<stop stop-color="#1878F3" stop-opacity="0"/>
<stop offset="1" stop-color="#1878F3" stop-opacity="0.7"/>
</linearGradient>
<linearGradient id="paint17_linear_91_2572" x1="120.154" y1="58.8278" x2="191.684" y2="53.0029" gradientUnits="userSpaceOnUse">
<stop stop-color="#1878F3" stop-opacity="0"/>
<stop offset="1" stop-color="#1878F3"/>
</linearGradient>
<linearGradient id="paint18_linear_91_2572" x1="85.3401" y1="108.781" x2="241.417" y2="176.627" gradientUnits="userSpaceOnUse">
<stop stop-color="#1878F3" stop-opacity="0"/>
<stop offset="1" stop-color="#1878F3"/>
</linearGradient>
<linearGradient id="paint19_linear_91_2572" x1="125.706" y1="78.6986" x2="240.944" y2="254.331" gradientUnits="userSpaceOnUse">
<stop stop-color="#1878F3" stop-opacity="0"/>
<stop offset="1" stop-color="#1878F3"/>
</linearGradient>
</defs>
</svg>
