<svg width="156" height="152" viewBox="0 0 156 152" fill="none" xmlns="http://www.w3.org/2000/svg">
<g clip-path="url(#clip0_91_2450)">
<path d="M53.625 53.9146H16.25V151.35H53.625V53.9146Z" fill="url(#paint0_linear_91_2450)"/>
<path d="M139.75 53.9146H53.625V151.35H139.75V53.9146Z" fill="url(#paint1_linear_91_2450)"/>
<path d="M37.375 86.3932H0L16.25 53.9146H53.625L37.375 86.3932Z" fill="url(#paint2_linear_91_2450)"/>
<path d="M69.875 86.3932H156L139.75 53.9146H53.625L69.875 86.3932Z" fill="url(#paint3_linear_91_2450)"/>
<path opacity="0.7" d="M1.625 151.35H154.375" stroke="#1878F3" stroke-width="2" stroke-miterlimit="10" stroke-linecap="round" stroke-linejoin="round"/>
<path d="M128.375 135.111H105.625V144.855H128.375V135.111Z" fill="url(#paint4_linear_91_2450)"/>
<path d="M97.5 21.4359L78 1.94873V125.368" stroke="url(#paint5_linear_91_2450)" stroke-width="6" stroke-miterlimit="10" stroke-linecap="round" stroke-linejoin="round"/>
<path d="M58.5 21.4359L78 1.94873" stroke="url(#paint6_linear_91_2450)" stroke-width="6" stroke-miterlimit="10" stroke-linecap="round" stroke-linejoin="round"/>
</g>
<g clip-path="url(#clip1_91_2450)">
<path d="M53.625 53.9146H16.25V151.35H53.625V53.9146Z" fill="url(#paint7_linear_91_2450)"/>
<path d="M139.75 53.9146H53.625V151.35H139.75V53.9146Z" fill="url(#paint8_linear_91_2450)"/>
<path d="M37.375 86.3932H0L16.25 53.9146H53.625L37.375 86.3932Z" fill="url(#paint9_linear_91_2450)"/>
<path d="M69.875 86.3932H156L139.75 53.9146H53.625L69.875 86.3932Z" fill="url(#paint10_linear_91_2450)"/>
<path opacity="0.7" d="M1.625 151.35H154.375" stroke="#1878F3" stroke-width="2" stroke-miterlimit="10" stroke-linecap="round" stroke-linejoin="round"/>
<path d="M128.375 135.111H105.625V144.855H128.375V135.111Z" fill="url(#paint11_linear_91_2450)"/>
<path d="M97.5 21.4359L78 1.94873V125.368" stroke="url(#paint12_linear_91_2450)" stroke-width="6" stroke-miterlimit="10" stroke-linecap="round" stroke-linejoin="round"/>
<path d="M58.5 21.4359L78 1.94873" stroke="url(#paint13_linear_91_2450)" stroke-width="6" stroke-miterlimit="10" stroke-linecap="round" stroke-linejoin="round"/>
</g>
<defs>
<linearGradient id="paint0_linear_91_2450" x1="8.77598" y1="93.2045" x2="119.457" y2="133.144" gradientUnits="userSpaceOnUse">
<stop stop-color="#1878F3" stop-opacity="0"/>
<stop offset="1" stop-color="#1878F3"/>
</linearGradient>
<linearGradient id="paint1_linear_91_2450" x1="121.583" y1="71.2842" x2="49.8622" y2="161.712" gradientUnits="userSpaceOnUse">
<stop stop-color="#1878F3" stop-opacity="0"/>
<stop offset="1" stop-color="#1878F3"/>
</linearGradient>
<linearGradient id="paint2_linear_91_2450" x1="22.9436" y1="49.4661" x2="45.6814" y2="171.208" gradientUnits="userSpaceOnUse">
<stop stop-color="#1878F3" stop-opacity="0"/>
<stop offset="1" stop-color="#1878F3"/>
</linearGradient>
<linearGradient id="paint3_linear_91_2450" x1="121.531" y1="37.7583" x2="82.3321" y2="113.815" gradientUnits="userSpaceOnUse">
<stop stop-color="#1878F3" stop-opacity="0"/>
<stop offset="1" stop-color="#1878F3"/>
</linearGradient>
<linearGradient id="paint4_linear_91_2450" x1="142.51" y1="133.386" x2="60.6884" y2="154.573" gradientUnits="userSpaceOnUse">
<stop stop-color="#1878F3" stop-opacity="0"/>
<stop offset="1" stop-color="#1878F3"/>
</linearGradient>
<linearGradient id="paint5_linear_91_2450" x1="87.75" y1="127.316" x2="87.75" y2="1.3527e-05" gradientUnits="userSpaceOnUse">
<stop stop-color="#1878F3" stop-opacity="0"/>
<stop offset="1" stop-color="#1878F3"/>
</linearGradient>
<linearGradient id="paint6_linear_91_2450" x1="79.95" y1="11.6923" x2="56.55" y2="11.6923" gradientUnits="userSpaceOnUse">
<stop stop-color="#1878F3" stop-opacity="0"/>
<stop offset="1" stop-color="#1878F3"/>
</linearGradient>
<linearGradient id="paint7_linear_91_2450" x1="8.77598" y1="93.2045" x2="119.457" y2="133.144" gradientUnits="userSpaceOnUse">
<stop stop-color="#1878F3" stop-opacity="0"/>
<stop offset="1" stop-color="#1878F3"/>
</linearGradient>
<linearGradient id="paint8_linear_91_2450" x1="121.583" y1="71.2842" x2="49.8622" y2="161.712" gradientUnits="userSpaceOnUse">
<stop stop-color="#1878F3" stop-opacity="0"/>
<stop offset="1" stop-color="#1878F3"/>
</linearGradient>
<linearGradient id="paint9_linear_91_2450" x1="22.9436" y1="49.4661" x2="45.6814" y2="171.208" gradientUnits="userSpaceOnUse">
<stop stop-color="#1878F3" stop-opacity="0"/>
<stop offset="1" stop-color="#1878F3"/>
</linearGradient>
<linearGradient id="paint10_linear_91_2450" x1="121.531" y1="37.7583" x2="82.3321" y2="113.815" gradientUnits="userSpaceOnUse">
<stop stop-color="#1878F3" stop-opacity="0"/>
<stop offset="1" stop-color="#1878F3"/>
</linearGradient>
<linearGradient id="paint11_linear_91_2450" x1="142.51" y1="133.386" x2="60.6884" y2="154.573" gradientUnits="userSpaceOnUse">
<stop stop-color="#1878F3" stop-opacity="0"/>
<stop offset="1" stop-color="#1878F3"/>
</linearGradient>
<linearGradient id="paint12_linear_91_2450" x1="87.75" y1="127.316" x2="87.75" y2="1.3527e-05" gradientUnits="userSpaceOnUse">
<stop stop-color="#1878F3" stop-opacity="0"/>
<stop offset="1" stop-color="#1878F3"/>
</linearGradient>
<linearGradient id="paint13_linear_91_2450" x1="79.95" y1="11.6923" x2="56.55" y2="11.6923" gradientUnits="userSpaceOnUse">
<stop stop-color="#1878F3" stop-opacity="0"/>
<stop offset="1" stop-color="#1878F3"/>
</linearGradient>
<clipPath id="clip0_91_2450">
<rect width="156" height="152" fill="white"/>
</clipPath>
<clipPath id="clip1_91_2450">
<rect width="156" height="152" fill="white"/>
</clipPath>
</defs>
</svg>
