<svg width="128" height="128" viewBox="0 0 128 128" fill="none" xmlns="http://www.w3.org/2000/svg">
<path d="M84.8563 73.4092C82.7256 73.2747 81.4863 72.0798 81.1586 69.844C81.0708 69.2489 81.0708 69.2334 81.0614 65.3722L81.0536 61.6347H82.9381L82.9459 65.2501C82.9522 68.5085 82.9561 68.8903 82.9883 69.119C83.116 70.0495 83.3724 70.6748 83.8067 71.1238C84.1547 71.4832 84.5631 71.6934 85.1268 71.8055C85.3933 71.858 86.1506 71.858 86.3936 71.8055C86.9385 71.6958 87.4379 71.4287 87.8281 71.038C88.2891 70.5844 88.6301 69.9406 88.7955 69.2125L88.8512 68.9668L88.8574 65.3212L88.8637 61.6756H90.7882V73.1379H88.8833V72.2282C88.8833 71.6107 88.8762 71.3217 88.8621 71.3263C88.8187 71.376 88.7821 71.4311 88.7532 71.4901C88.4056 72.0983 87.8956 72.6008 87.2786 72.9431C86.5606 73.3334 85.8393 73.4718 84.8555 73.4092H84.8563ZM106.479 73.3999C105.703 73.3364 104.953 73.0953 104.289 72.6958C102.925 71.865 102.117 70.4947 101.881 68.6097C101.799 67.9582 101.789 67.0818 101.857 66.5276C102.01 65.2887 102.504 64.073 103.208 63.2051C103.388 62.9825 103.797 62.5799 104.023 62.4021C104.632 61.9231 105.344 61.5884 106.104 61.4237C106.546 61.3286 107.323 61.2846 107.793 61.3271C108.97 61.4345 110.051 61.9809 110.784 62.8403C111.531 63.7137 111.94 64.9348 111.992 66.438C112 66.6737 112.003 67.0872 111.997 67.3561L111.986 67.8454L107.86 67.8508L103.734 67.8554V68.037C103.742 68.6275 103.868 69.2106 104.105 69.7528C104.308 70.2142 104.658 70.7181 104.944 70.9615C105.532 71.4616 106.264 71.7663 107.037 71.8325C107.328 71.8596 108.071 71.831 108.404 71.7807C109.336 71.6437 110.22 71.2845 110.98 70.7343C111.067 70.6709 111.148 70.6114 111.163 70.6029C111.184 70.5898 111.189 70.7544 111.188 71.4492V72.3117L110.992 72.4307C110.15 72.9383 109.207 73.2602 108.227 73.3744C107.929 73.4107 106.836 73.4269 106.479 73.3999ZM110.071 66.1242C110.071 65.1991 109.675 64.172 109.115 63.6433C108.715 63.2661 108.206 63.0227 107.658 62.9478C107.386 62.906 106.814 62.9215 106.527 62.9787C105.942 63.0885 105.404 63.37 104.983 63.7863C104.521 64.2381 104.172 64.7894 103.963 65.3969C103.884 65.6195 103.793 65.9843 103.765 66.1883L103.752 66.285H110.07L110.071 66.1242ZM54.0955 73.1124L57.2092 65.0561L60.3143 57.0261H62.3102L62.3925 57.2348C62.6457 57.8732 68.6089 73.1201 68.6089 73.1286C68.6089 73.1332 68.1307 73.1379 67.5475 73.1379H66.4861L65.6269 70.8842L64.7669 68.6306H57.8465L57.8168 68.7071C57.8003 68.7488 57.4326 69.7628 57.0007 70.96L56.2144 73.1371H55.1515C54.3095 73.1371 54.0892 73.1325 54.0963 73.1124H54.0955ZM64.1351 66.911C64.1351 66.9071 63.5574 65.3629 62.8495 63.4795C61.5278 59.9553 61.4541 59.7435 61.3491 59.177C61.3005 58.9119 61.2754 58.9049 61.2472 59.1461C61.2055 59.4086 61.145 59.6679 61.0661 59.922C61.0316 60.0287 60.4358 61.6378 59.7428 63.4988C59.3185 64.6309 58.8981 65.7645 58.4815 66.8994C58.4815 66.9094 59.7538 66.9172 61.3083 66.9172C62.8636 66.9172 64.1351 66.9141 64.1351 66.911ZM69.2509 72.8442V72.5505L72.6986 67.8832L76.147 63.2152L73.0247 63.2051L69.9031 63.1951L69.8977 62.4145L69.8922 61.6347H78.9229V62.1618L75.4736 66.8553C73.5781 69.4367 72.026 71.5527 72.026 71.5574C72.026 71.5628 73.5593 71.5674 75.4329 71.5674H78.8398V73.1379H69.2509V72.8442ZM94.5518 73.124C94.5439 73.1162 94.5377 70.5287 94.5377 67.3731V61.6347H96.423V62.8171C96.423 63.4687 96.4308 64.0012 96.4402 64.0012C96.4504 64.0012 96.4959 63.8945 96.5421 63.7639C96.7608 63.1574 97.1215 62.6103 97.5949 62.1672C98.0025 61.7775 98.5231 61.5227 99.0844 61.4384C99.2451 61.4129 99.3823 61.4074 99.7052 61.416C100.111 61.4268 100.323 61.4561 100.57 61.535L100.648 61.5605V63.4864L100.425 63.3767C100.039 63.1843 99.6079 63.0991 99.1769 63.1302C98.8735 63.1456 98.6744 63.1843 98.4322 63.2739C97.9392 63.453 97.5209 63.7891 97.2437 64.2292C96.8215 64.9084 96.5528 65.6695 96.4559 66.4604C96.4402 66.5972 96.4316 67.7086 96.4277 69.8996L96.4222 73.1379H95.494C94.9837 73.1379 94.5596 73.1317 94.5518 73.124ZM27.0677 49C27.3848 49 27.6939 49.0981 27.9516 49.2804C28.2092 49.4627 28.4023 49.7201 28.5038 50.0163L37.7117 76.9133C37.7886 77.1382 37.8101 77.3778 37.7744 77.6125C37.7387 77.8472 37.6469 78.0701 37.5065 78.2629C37.366 78.4556 37.1811 78.6126 36.9669 78.7209C36.7527 78.8292 36.5155 78.8857 36.2748 78.8856H46.8859C47.2487 78.8847 47.5992 78.7557 47.874 78.5221C48.1487 78.2885 48.3296 77.9656 48.3839 77.6119C48.4195 77.3775 48.398 77.138 48.3212 76.9133L39.1141 50.0163C39.0127 49.72 38.8196 49.4626 38.562 49.2803C38.3043 49.098 37.9951 48.9999 37.678 49H27.0677ZM26.7251 49.1159C26.4076 49.1161 26.0982 49.2144 25.8403 49.397C25.5824 49.5796 25.3891 49.8372 25.2874 50.1338L16.0796 77.0292C16.0026 77.2539 15.9811 77.4934 16.0167 77.7279C16.0523 77.9624 16.144 78.1851 16.2843 78.3777C16.4246 78.5703 16.6094 78.7272 16.8234 78.8354C17.0374 78.9437 17.2744 79.0001 17.5149 79H24.9237C25.2413 79.0002 25.5509 78.9021 25.8089 78.7196C26.067 78.5372 26.2605 78.2795 26.3622 77.9829L28.1621 72.7468L24.723 69.4969C24.6603 69.4351 24.3757 68.9212 24.6289 68.4861C24.9127 68.0664 25.3862 68.0664 25.3862 68.0664H29.8185L32.1451 61.4569L28.1668 49.9228C28.1566 49.8664 27.9331 49.5766 27.582 49.3462C27.2308 49.1144 26.7243 49.1159 26.7243 49.1159H26.7251ZM25.474 68.2627C25.3337 68.2626 25.1966 68.3041 25.0806 68.3819C24.9646 68.4597 24.875 68.5702 24.8236 68.6989C24.7722 68.8276 24.7612 68.9685 24.7922 69.1035C24.8232 69.2384 24.8947 69.3609 24.9974 69.4552L34.6975 78.3817C34.9798 78.6414 35.3388 78.7936 35.7245 78.7936C35.7245 78.7936 36.0537 78.8161 36.252 78.7851C36.7177 78.7125 37.1559 78.3377 37.3009 78.18C37.6741 77.69 37.5047 76.928 37.5047 76.928L34.5682 68.2619L25.474 68.2627Z" fill="white"/>
</svg>
