<svg width="128" height="128" viewBox="0 0 128 128" fill="none" xmlns="http://www.w3.org/2000/svg">
<path d="M16.0008 84.4702H19.1713V72.1574L24.0798 82.8915C24.6586 84.1909 25.4513 84.6501 27.0064 84.6501C28.5616 84.6501 29.3241 84.1909 29.9029 82.8915L34.8115 72.1574V84.4702H37.982V72.1779C37.982 70.9787 37.4942 70.3981 36.4878 70.0991C34.079 69.3599 32.4629 69.9997 31.7313 71.5988L26.9146 82.1925L22.2507 71.5981C21.5491 69.9997 19.9029 69.3599 17.4942 70.0983C16.4878 70.3981 16 70.978 16 72.1772V84.4702H16.0008ZM40.6191 74.4472H43.7889V81.2309C43.7595 81.599 43.9093 82.4642 45.6458 82.4916C46.5318 82.5052 52.4853 82.4916 52.5409 82.4916V74.4138H55.7183C55.733 74.4138 55.7153 85.4295 55.7153 85.4751C55.7322 88.1922 52.2878 88.7819 50.6994 88.8275H40.6878V86.7297C40.7048 86.7297 50.6925 86.7319 50.7172 86.7289C52.7585 86.5171 52.517 85.5199 52.5162 85.1844V84.3662H45.7778C42.6428 84.3381 40.6454 82.9925 40.6199 81.4442C40.6184 81.3023 40.6886 74.5155 40.6191 74.4472Z" fill="#888888"/>
<path d="M58.207 84.2011H67.3383C68.4074 84.2011 69.4464 83.9815 70.2704 83.6015C71.6441 82.9815 72.3159 82.141 72.3159 81.0392V78.758C72.3159 77.8576 71.5529 77.0164 70.0563 76.4571C69.2624 76.1562 68.2845 75.9974 67.3375 75.9974H63.4893C62.2068 75.9974 61.5961 75.6175 61.4438 74.777C61.4136 74.6767 61.4136 74.5969 61.4136 74.4966V73.0757C61.4136 72.9959 61.4136 72.9153 61.4438 72.8158C61.5961 72.1752 61.9323 71.9951 63.0625 71.8948L63.3679 71.875H72.438V69.7945H63.521C62.2385 69.7945 61.5667 69.8743 60.956 70.0544C59.0628 70.6349 58.2372 71.5551 58.2372 73.1562V74.9769C58.2372 76.3781 59.8567 77.5787 62.574 77.8591C62.8801 77.8781 63.1847 77.8994 63.49 77.8994H66.7886C66.9108 77.8994 67.0329 77.8994 67.1249 77.9184C68.1329 77.9982 68.5597 78.179 68.8658 78.5384C68.9442 78.6096 69.0065 78.6964 69.0485 78.7929C69.0904 78.8894 69.1112 78.9935 69.1093 79.0985V80.9199C69.1093 81.1395 68.957 81.4199 68.6517 81.66C68.3772 81.9001 67.9188 82.0605 67.3081 82.1008L66.9718 82.1205H58.207V84.2011ZM92.1291 80.5795C92.1291 82.7201 93.7478 83.9207 97.0147 84.1616C97.3201 84.1813 97.6254 84.2011 97.9308 84.2011H106.207V82.1205H97.8705C96.0075 82.1205 95.3055 81.66 95.3055 80.559V69.793H92.1299V80.5795H92.1291ZM74.3428 80.6874V73.2671C74.3428 71.3826 75.6895 70.239 78.3519 69.8781C78.6356 69.8381 78.9218 69.818 79.2084 69.818H85.2374C85.5435 69.818 85.8187 69.8378 86.1241 69.8781C88.7864 70.239 90.1339 71.3819 90.1339 73.2671V80.6874C90.1339 82.2178 89.5618 83.0354 88.2438 83.5688L91.373 86.3447H87.6848L85.1539 84.0985L82.6059 84.2573H79.2084C78.5772 84.2533 77.9495 84.1657 77.3423 83.9967C75.3223 83.4556 74.3428 82.4123 74.3428 80.6874ZM77.7705 80.5073C77.7705 80.6076 77.8007 80.7087 77.8316 80.8287C78.0148 81.6912 78.842 82.1722 80.0958 82.1722H82.9809L80.3309 79.8204H84.0191L86.3297 81.872C86.7564 81.6479 87.0363 81.3074 87.1344 80.869C87.1646 80.7687 87.1646 80.6684 87.1646 80.5681V73.4495C87.1646 73.3697 87.1646 73.2687 87.1344 73.1684C86.9504 72.3659 86.1241 71.9054 84.9003 71.9054H80.0951C78.6881 71.9054 77.7697 72.5073 77.7697 73.4495V80.5073H77.7705Z" fill="white"/>
<path d="M109.184 66.0733C107.244 66.0205 105.761 66.2004 104.493 66.7322C104.132 66.8837 103.558 66.8876 103.5 67.3368C103.697 67.5441 103.728 67.8525 103.886 68.1066C104.188 68.5941 104.7 69.2476 105.155 69.5897C105.653 69.9639 106.166 70.3649 106.701 70.6894C107.65 71.2664 108.711 71.5954 109.626 72.1724C110.165 72.5137 110.7 72.9423 111.227 73.3272C111.487 73.5162 111.661 73.8124 112 73.931V73.8767C111.822 73.6517 111.776 73.3425 111.613 73.1068L110.895 72.3921C110.194 71.4646 109.304 70.6511 108.356 69.9746C107.601 69.4351 105.912 68.7058 105.597 67.8311L105.541 67.7768C106.076 67.7163 106.703 67.5235 107.197 67.3919C108.027 67.1699 108.769 67.2273 109.626 67.0069L110.785 66.6763V66.4575C110.352 66.0152 110.042 65.429 109.57 65.0287C108.335 63.9811 106.985 62.9342 105.597 62.0603C104.826 61.5767 103.874 61.2621 103.057 60.852C102.783 60.7135 102.301 60.6423 102.119 60.4119C101.689 59.8678 101.456 59.1783 101.125 58.5439C100.417 57.1734 99.7547 55.7805 99.1379 54.3672C98.7198 53.4144 98.4462 52.4747 97.9243 51.6199C95.4179 47.5173 92.7201 45.041 88.5412 42.6074C87.6519 42.0894 86.5812 41.8858 85.4506 41.6187L83.629 41.5085C83.2593 41.3547 82.8735 40.9032 82.5253 40.6843C81.1403 39.8135 77.5893 37.9195 76.564 40.4104C75.9168 41.9822 77.5324 43.5158 78.1096 44.3124C78.5147 44.8711 79.0343 45.4971 79.324 46.1253C79.5147 46.5386 79.5469 46.9526 79.7107 47.3895C80.1111 48.4655 80.4608 49.6371 80.9796 50.6312C81.2417 51.1347 81.5315 51.665 81.8628 52.115C82.0657 52.3905 82.4146 52.5129 82.4692 52.9392C82.1287 53.4137 82.1087 54.1514 81.9173 54.7521C81.0549 57.4603 81.3801 60.8267 82.6352 62.8309C83.0203 63.447 83.9272 64.7663 85.1739 64.2597C86.2646 63.8173 86.0217 62.4468 86.3337 61.2369C86.4044 60.9637 86.3606 60.7617 86.499 60.578V60.6331L87.4928 62.6113C88.2283 63.7906 89.5327 65.0219 90.6387 65.8537C91.2121 66.2845 91.664 67.0307 92.4049 67.2824V67.2266H92.3504C92.2059 67.0039 91.9822 66.912 91.7977 66.7322C91.3658 66.3106 90.8854 65.7871 90.5288 65.3035C89.5227 63.9444 88.6342 62.4559 87.8241 60.9071C87.4374 60.1678 87.1016 59.3521 86.7757 58.599C86.6496 58.309 86.6512 57.8697 86.3898 57.7205C86.0317 58.2715 85.5067 58.7177 85.23 59.3689C84.7888 60.4096 84.732 61.6792 84.5682 62.9955L84.4576 63.0498C83.6882 62.8654 83.4184 62.0771 83.1325 61.4014C82.41 59.6926 82.2755 56.94 82.9119 54.9725C83.0764 54.4628 83.8196 52.8596 83.5183 52.389C83.3746 51.9199 82.9004 51.649 82.636 51.2893C82.2891 50.808 81.9931 50.2923 81.7528 49.7504C81.161 48.418 80.8851 46.922 80.2633 45.5743C79.9651 44.93 79.4624 44.2788 79.0489 43.7063C78.5916 43.0712 78.0789 42.6044 77.7238 41.8376C77.5978 41.5652 77.4264 41.1282 77.6131 40.8481C77.6723 40.6591 77.7576 40.5803 77.9452 40.5183C78.2649 40.2726 79.1565 40.6002 79.4901 40.7379C80.3755 41.1045 81.1141 41.4527 81.8643 41.947C82.224 42.185 82.5875 42.6442 83.0233 42.7712H83.5199C84.2969 42.9487 85.1678 42.8255 85.8933 43.0452C87.1769 43.4339 88.3267 44.0377 89.3705 44.6943C92.5518 46.6947 95.1519 49.5414 96.932 52.9377C97.218 53.4848 97.3425 54.006 97.5938 54.586C98.1026 55.7553 98.7436 56.9591 99.2494 58.1032C99.7544 59.2442 100.247 60.3959 100.961 61.3456C101.336 61.8445 102.786 62.1123 103.444 62.3894C103.906 62.5837 104.663 62.7865 105.1 63.0483C105.935 63.5503 106.746 64.1479 107.529 64.6974C107.92 64.9744 109.124 65.5767 109.184 66.0733ZM84.5129 45.1366C84.1783 45.1312 83.8443 45.1682 83.5191 45.2468V45.3011H83.5744C83.7674 45.6968 84.1079 45.9509 84.3469 46.2906L84.8995 47.4446L84.9541 47.3903C85.2961 47.1508 85.4521 46.7674 85.4506 46.1812C85.313 46.0373 85.293 45.8575 85.1747 45.6868C85.0179 45.4573 84.712 45.3287 84.5129 45.1366Z" fill="white"/>
</svg>
