<svg width="988" height="566" viewBox="0 0 988 566" fill="none" xmlns="http://www.w3.org/2000/svg">
<g clip-path="url(#clip0_232_933)">
<rect x="0.5" y="0.5" width="987" height="565" rx="15.5" fill="#191337" stroke="#63557D"/>
<g filter="url(#filter0_f_232_933)">
<path d="M363.398 40.9516C359.013 41.2534 354.399 42.2881 350.259 43.9263C348.246 44.7024 344.509 46.5993 343.129 47.5334C341.418 48.6974 341.548 47.6915 341.504 58.915C341.461 69.4775 341.562 72.0211 342.123 74.809C343.201 80.155 345.846 85.0841 349.67 88.9211C350.316 89.5822 353.939 92.6 357.72 95.6322L364.591 101.151L364.304 101.697C363.498 103.234 364.893 107.028 367.049 109.184C367.94 110.089 369.249 110.98 370.341 111.469C372.425 112.389 374.309 111.023 373.906 108.868C373.762 108.135 373.187 107.531 372.138 107.014C370.456 106.209 369.205 104.556 368.803 102.631C368.717 102.214 368.544 101.711 368.415 101.51C368.199 101.194 368.199 101.122 368.372 100.964C368.487 100.863 371.39 98.5208 374.826 95.7759C382.129 89.9271 382.948 89.2085 384.486 87.3834C388.296 82.8135 390.524 77.5107 391.056 71.705C391.257 69.5637 391.271 49.8327 391.07 49.1429C390.883 48.4819 390.279 47.9214 388.842 47.0592C381.266 42.518 372.267 40.3624 363.398 40.9516ZM371.232 45.9095C375.876 46.4987 380.159 47.8495 384.386 50.0483L386.398 51.0973L386.441 60.3521C386.484 69.9661 386.413 71.8199 385.895 74.1767C384.889 78.761 382.215 83.374 378.837 86.3919C377.974 87.1391 367.552 95.5604 366.604 96.2502C366.374 96.4083 365.698 95.9197 360.566 91.8096C353.738 86.3487 353.292 85.9607 352.013 84.4662C349.195 81.1609 347.384 77.3527 346.608 73.0702C346.306 71.4175 346.306 70.9577 346.291 61.2143V51.083L348.879 49.7752C355.837 46.2831 363.57 44.9467 371.232 45.9095Z" fill="#EF5DA8"/>
<path d="M369.364 67.3936L363.844 74.8808L361.817 72.8545L359.804 70.8426L358.108 72.5383L356.426 74.2197L359.632 77.41C361.386 79.1632 363.01 80.6722 363.226 80.7584C363.456 80.8302 363.858 80.9021 364.131 80.9021C365.296 80.9021 365.296 80.9021 372.167 71.6186C375.732 66.8188 378.65 62.8381 378.679 62.7806C378.722 62.68 375.43 60.122 375.071 59.9927C374.97 59.9496 372.713 62.8812 369.364 67.3936Z" fill="#713DFF"/>
<path d="M655.358 52.2901C650.643 53.2673 646.632 55.9547 644.016 59.8779L643.053 61.3293L642.075 60.9126C640.25 60.1509 638.769 59.8635 636.455 59.8635C633.321 59.8491 631.165 60.4096 628.52 61.9185C625.271 63.7723 622.568 67.2644 621.505 70.9433L621.16 72.1361H618.701C616.718 72.1361 616.013 72.1936 615.122 72.4235C610.292 73.6594 607.316 78.488 608.351 83.4171C608.466 83.9632 608.826 84.9692 609.156 85.6446C609.631 86.6218 610.004 87.096 610.924 88.0158C612.175 89.2516 613.153 89.8552 614.82 90.4013L615.826 90.7462L628.232 90.7893L640.624 90.8324V92.2695C640.624 93.9221 640.782 94.4395 641.529 95.0862C642.722 96.1352 644.447 95.776 645.094 94.3533C645.295 93.9078 645.367 93.4192 645.367 92.2982V90.8324L657.198 90.7893C670.222 90.7318 669.633 90.7749 671.76 89.8121C675.584 88.0876 678.143 84.15 678.143 79.9681C678.143 78.0568 677.51 75.7288 676.605 74.3779C676.245 73.8175 676.231 73.8031 676.418 72.6247C676.504 71.978 676.59 70.5984 676.576 69.5781C676.562 64.807 674.793 60.582 671.401 57.1905C669.115 54.9056 666.398 53.3535 663.221 52.5057C661.309 51.9883 657.342 51.8734 655.358 52.2901ZM661.439 56.9893C665.349 57.7941 668.741 60.4096 670.553 64.0166C671.832 66.5459 672.22 70.4547 671.458 73.0702C671.056 74.4642 671.156 74.9384 672.177 76.3036C673.974 78.7466 673.758 81.9226 671.66 84.1357C670.811 85.041 669.575 85.7164 668.353 85.932C667.836 86.0326 658.851 86.0613 641.975 86.047L616.401 86.0039L615.596 85.6015C614.518 85.0841 613.584 84.0638 613.167 82.9716C612.319 80.7011 613.541 78.0281 615.841 77.1659C616.559 76.9072 616.962 76.8784 620.182 76.8784C623.589 76.8784 623.776 76.8641 624.38 76.5479C625.113 76.1886 625.673 75.3551 625.673 74.6079C625.673 72.8834 626.78 70.0667 628.074 68.4716C629.425 66.8046 631.596 65.4106 633.723 64.8501C635.003 64.5052 637.633 64.5052 638.899 64.8501C639.962 65.1375 641.457 65.8417 642.665 66.6034C643.657 67.25 644.634 67.3219 645.454 66.8189C646.014 66.4597 646.115 66.3016 646.747 64.7783C647.984 61.8035 650.586 59.1162 653.532 57.8085C653.978 57.6073 654.941 57.2911 655.646 57.1043C657.241 56.6876 659.757 56.6444 661.439 56.9893Z" fill="#EF5DA8"/>
<path d="M502.708 100.662C500.667 101.093 498.367 102.516 497.217 104.068C496.512 105.031 495.866 106.209 495.592 107.086L495.406 107.632H493.005C490.806 107.632 490.561 107.66 489.972 107.948C488.261 108.81 488.29 111.311 490.029 112.101C490.532 112.331 490.992 112.374 493.034 112.374C495.434 112.374 495.463 112.374 495.549 112.69C495.751 113.481 496.915 115.536 497.591 116.283C498.496 117.289 499.991 118.309 501.314 118.798L502.32 119.157L502.363 121.212C502.406 123.439 502.493 123.684 503.355 124.345C504.261 125.006 505.885 124.718 506.618 123.756C506.992 123.267 507.006 123.152 507.078 121.183L507.15 119.099L507.926 118.826C509.163 118.395 510.212 117.706 511.319 116.613C512.411 115.507 513.101 114.458 513.533 113.222L513.806 112.446L516.48 112.374C518.866 112.302 519.168 112.273 519.527 112C520.303 111.426 520.519 110.994 520.519 110.003C520.519 109.011 520.303 108.58 519.527 108.005C519.168 107.732 518.895 107.703 516.508 107.66L513.878 107.617L513.432 106.439C512.411 103.766 510.111 101.682 507.222 100.82C506.101 100.475 503.93 100.403 502.708 100.662ZM506.474 105.706C507.783 106.281 508.588 107.129 509.033 108.365C510.615 112.877 505.08 116.599 501.558 113.38C499.488 111.483 499.474 108.408 501.515 106.525C502.909 105.232 504.764 104.93 506.474 105.706Z" fill="#EF5DA8"/>
<path d="M641.745 100.748C641.141 101.064 640.71 101.768 640.566 102.703C640.308 104.456 638.956 106.18 637.203 107.028C635.765 107.718 635.377 108.235 635.377 109.442C635.377 110.52 635.664 110.994 636.599 111.469C637.404 111.885 638.036 111.885 639.043 111.469C641.228 110.563 643.255 108.595 644.376 106.281C645.008 104.973 645.44 103.263 645.325 102.444C645.109 100.849 643.226 99.9577 641.745 100.748Z" fill="#EF5DA8"/>
<path d="M380.073 107.833C379.47 108.092 378.88 108.825 378.765 109.442C378.564 110.492 378.909 111.368 379.772 112C380.16 112.288 380.332 112.302 385.464 112.302C390.596 112.302 390.769 112.288 391.157 112C391.933 111.426 392.149 110.995 392.149 110.003C392.149 109.011 391.933 108.58 391.157 108.005C390.783 107.718 390.567 107.704 385.637 107.675C381.583 107.646 380.418 107.675 380.073 107.833Z" fill="#EF5DA8"/>
<path d="M398.258 107.948C396.49 108.839 396.605 111.454 398.43 112.144C398.962 112.36 399.71 112.374 404.108 112.345C408.953 112.302 409.183 112.288 409.557 112C410.333 111.426 410.549 110.995 410.549 110.003C410.549 109.011 410.333 108.58 409.557 108.005C409.183 107.718 408.953 107.704 404.037 107.661C398.948 107.617 398.905 107.632 398.258 107.948Z" fill="#EF5DA8"/>
<path d="M416.73 107.833C416.126 108.092 415.537 108.825 415.422 109.442C415.221 110.492 415.566 111.368 416.428 112C416.802 112.288 417.032 112.302 421.876 112.345C426.275 112.374 427.023 112.36 427.555 112.144C429.38 111.454 429.495 108.839 427.727 107.948C427.109 107.632 426.994 107.632 422.121 107.632C418.326 107.646 417.061 107.689 416.73 107.833Z" fill="#EF5DA8"/>
<path d="M434.914 107.948C433.146 108.839 433.261 111.454 435.087 112.144C435.619 112.36 436.366 112.374 440.765 112.345C445.61 112.302 445.84 112.288 446.213 112C446.99 111.426 447.205 110.995 447.205 110.003C447.205 109.011 446.99 108.58 446.213 108.005C445.84 107.718 445.61 107.704 440.693 107.661C435.604 107.617 435.561 107.632 434.914 107.948Z" fill="#EF5DA8"/>
<path d="M453.387 107.833C452.783 108.092 452.194 108.825 452.079 109.442C451.877 110.492 452.222 111.368 453.085 112C453.459 112.288 453.689 112.302 458.533 112.345C462.932 112.374 463.68 112.36 464.211 112.144C466.037 111.454 466.152 108.839 464.384 107.948C463.766 107.632 463.651 107.632 458.778 107.632C454.983 107.646 453.718 107.689 453.387 107.833Z" fill="#EF5DA8"/>
<path d="M471.787 107.833C471.184 108.092 470.594 108.825 470.479 109.442C470.278 110.492 470.623 111.368 471.485 112C471.874 112.288 472.046 112.302 477.178 112.302C482.31 112.302 482.482 112.288 482.871 112C483.647 111.426 483.862 110.995 483.862 110.003C483.862 109.011 483.647 108.58 482.871 108.005C482.497 107.718 482.281 107.704 477.35 107.675C473.297 107.646 472.132 107.675 471.787 107.833Z" fill="#EF5DA8"/>
<path d="M526.628 107.948C524.86 108.839 524.975 111.454 526.801 112.144C527.333 112.36 528.08 112.374 532.479 112.345C537.323 112.302 537.553 112.288 537.927 112C538.703 111.426 538.919 110.995 538.919 110.003C538.919 109.011 538.703 108.58 537.927 108.005C537.553 107.718 537.323 107.704 532.407 107.661C527.318 107.617 527.275 107.632 526.628 107.948Z" fill="#EF5DA8"/>
<path d="M545.101 107.833C544.497 108.092 543.908 108.825 543.793 109.442C543.591 110.492 543.936 111.368 544.799 112C545.173 112.288 545.403 112.302 550.247 112.345C554.646 112.374 555.393 112.36 555.925 112.144C557.751 111.454 557.866 108.839 556.098 107.948C555.48 107.632 555.365 107.632 550.491 107.632C546.696 107.646 545.431 107.689 545.101 107.833Z" fill="#EF5DA8"/>
<path d="M563.285 107.948C561.517 108.839 561.632 111.454 563.458 112.144C563.989 112.36 564.737 112.374 569.136 112.345C573.98 112.302 574.21 112.288 574.584 112C575.36 111.426 575.576 110.995 575.576 110.003C575.576 109.011 575.36 108.58 574.584 108.005C574.21 107.718 573.98 107.704 569.064 107.661C563.975 107.617 563.932 107.632 563.285 107.948Z" fill="#EF5DA8"/>
<path d="M581.757 107.833C581.154 108.092 580.564 108.825 580.449 109.442C580.248 110.492 580.593 111.368 581.456 112C581.829 112.288 582.059 112.302 586.904 112.345C591.303 112.374 592.05 112.36 592.582 112.144C594.408 111.454 594.523 108.839 592.755 107.948C592.136 107.632 592.021 107.632 587.148 107.632C583.353 107.646 582.088 107.689 581.757 107.833Z" fill="#EF5DA8"/>
<path d="M600.157 107.833C599.554 108.092 598.964 108.825 598.849 109.442C598.648 110.492 598.993 111.368 599.856 112C600.244 112.288 600.416 112.302 605.548 112.302C610.68 112.302 610.853 112.288 611.241 112C612.017 111.426 612.233 110.995 612.233 110.003C612.233 109.011 612.017 108.58 611.241 108.005C610.867 107.718 610.651 107.704 605.721 107.675C601.667 107.646 600.502 107.675 600.157 107.833Z" fill="#EF5DA8"/>
<path d="M618.342 107.948C616.574 108.839 616.689 111.454 618.515 112.144C619.047 112.36 619.794 112.374 624.193 112.345C629.037 112.302 629.267 112.288 629.641 112C630.417 111.426 630.633 110.995 630.633 110.003C630.633 109.011 630.417 108.58 629.641 108.005C629.267 107.718 629.037 107.704 624.121 107.661C619.032 107.617 618.989 107.632 618.342 107.948Z" fill="#EF5DA8"/>
<path d="M503.7 129.82C503.111 130.079 502.507 130.812 502.406 131.386C502.363 131.645 502.334 134.088 502.363 136.833C502.406 141.604 502.421 141.834 502.708 142.208C503.154 142.826 503.671 143.142 504.318 143.228C505.152 143.343 506.115 142.955 506.618 142.294L507.006 141.791V136.459V131.128L506.661 130.639C506.043 129.763 504.678 129.389 503.7 129.82Z" fill="#EF5DA8"/>
<path d="M480.053 145.872C443.712 147.051 413.151 152.152 396.231 159.869C389.935 162.729 385.55 166.264 383.954 169.756C383.121 171.581 383.164 170.187 383.164 195.149C383.164 210.152 383.221 218.387 383.322 219.005C383.494 220.097 384.055 221.39 384.788 222.353C385.09 222.727 385.32 223.057 385.32 223.086C385.32 223.115 385.09 223.489 384.803 223.905C384.515 224.336 384.113 225.026 383.926 225.457C383.121 227.268 383.164 225.96 383.164 250.362V272.895H379.239C375.459 272.895 375.301 272.909 374.682 273.211C372.972 274.074 373.001 276.574 374.74 277.364C375.272 277.609 375.761 277.637 379.929 277.637H384.529L384.932 278.126C385.148 278.399 385.32 278.658 385.32 278.687C385.32 278.73 385.09 279.103 384.803 279.52C384.156 280.468 383.653 281.575 383.365 282.653C383.063 283.831 383.063 329.07 383.365 330.536C383.609 331.643 384.141 332.778 384.831 333.64C385.105 333.971 385.32 334.272 385.32 334.33C385.32 334.373 385.133 334.689 384.903 335.02C383.94 336.428 383.164 338.454 383.164 339.547C383.164 340.524 384.558 340.438 367.826 340.438H352.66L352.573 340.107C352.53 339.935 352.214 339.23 351.869 338.526C350.762 336.342 348.893 334.732 346.435 333.884C345.415 333.525 345.084 333.482 343.488 333.482C341.936 333.482 341.533 333.54 340.527 333.87C335.913 335.393 333.239 340.05 334.231 344.849C334.921 348.169 337.206 350.727 340.541 351.877C341.548 352.222 341.907 352.279 343.416 352.279C345.314 352.279 346.205 352.078 347.729 351.316C349.972 350.195 351.768 348.112 352.53 345.712L352.717 345.18H367.941H383.164V350.784V356.375L369.047 356.418L354.917 356.461L353.91 356.791C350.101 358.07 347.47 360.715 346.205 364.509C345.875 365.5 345.86 365.658 345.788 372.757L345.716 379.986L344.825 380.316C339.909 382.17 337.422 387.674 339.276 392.603C340.326 395.434 342.899 397.676 345.932 398.438C347.269 398.768 349.842 398.653 351.107 398.208C353.623 397.317 355.42 395.736 356.584 393.394C359.042 388.421 356.613 382.213 351.467 380.359L350.532 380.029V373.404C350.532 367.742 350.561 366.679 350.762 366.003C351.122 364.825 351.495 364.178 352.387 363.244C353.321 362.252 354.083 361.778 355.29 361.404C356.124 361.146 356.843 361.131 369.666 361.131H383.164V373.16C383.164 386.266 383.164 386.295 383.983 387.947C384.472 388.953 385.507 390.117 386.456 390.721C388.986 392.359 400.328 396.555 408.105 398.754C439.601 407.664 481.792 411.156 522.891 408.253C547.285 406.543 569.481 402.605 587.076 396.9C594.335 394.558 602.069 391.353 603.492 390.103C604.326 389.37 605.203 388.005 605.548 386.898C605.836 385.978 605.836 385.59 605.836 362.583C605.836 336.931 605.893 338.555 604.973 336.601C604.743 336.098 604.355 335.408 604.111 335.049L603.665 334.402L604.154 333.784C604.901 332.864 605.361 331.988 605.606 331.025C605.807 330.277 605.836 327.475 605.836 306.882C605.836 281.316 605.893 282.94 604.973 280.986C604.743 280.483 604.355 279.793 604.111 279.434L603.665 278.787L604.111 278.212L604.556 277.652L609.286 277.609C613.799 277.566 614.03 277.551 614.403 277.264C615.18 276.689 615.395 276.258 615.395 275.266C615.395 274.275 615.18 273.844 614.403 273.269C614.03 272.981 613.785 272.967 609.918 272.924L605.836 272.881V250.477C605.836 234.583 605.793 227.857 605.678 227.311C605.476 226.391 604.743 224.739 604.125 223.833L603.665 223.172L604.24 222.425C604.959 221.462 605.39 220.614 605.606 219.752L605.778 219.077H619.42H633.048L633.22 219.652C633.882 221.893 635.736 224.02 637.979 225.156C639.488 225.917 640.365 226.104 642.277 226.104C644.404 226.104 645.741 225.716 647.394 224.624C649.22 223.417 650.456 221.836 651.233 219.695C651.578 218.761 651.606 218.444 651.606 216.706C651.606 214.967 651.578 214.651 651.233 213.716C650.169 210.77 648.027 208.658 645.137 207.709C644.016 207.35 643.657 207.293 642.205 207.293C639.833 207.307 638.165 207.882 636.254 209.348C635.003 210.311 633.666 212.236 633.22 213.76L633.048 214.334H619.478H605.908V208.802V203.269L618.342 203.197L630.777 203.125L631.783 202.795C634.917 201.746 637.36 199.662 638.755 196.831C639.876 194.546 639.905 194.287 639.905 186.498V179.629L640.236 179.5C642.277 178.709 643.355 178.02 644.491 176.827C645.511 175.72 646.23 174.484 646.69 173.018C647.179 171.438 647.136 169.095 646.604 167.471C646.129 166.006 645.109 164.425 643.959 163.361C642.967 162.456 641.199 161.508 639.833 161.163C638.74 160.89 636.498 160.89 635.319 161.163C631.179 162.14 628.117 166.049 628.117 170.36C628.117 173.234 629.512 176.079 631.768 177.833C632.617 178.479 634.025 179.241 634.773 179.413L635.161 179.514V186.168C635.161 192.29 635.132 192.893 634.888 193.698C634.514 194.905 634.04 195.667 633.048 196.601C632.113 197.492 631.467 197.866 630.288 198.225C629.598 198.426 628.132 198.455 617.666 198.455H605.836V185.406C605.836 170.935 605.864 171.495 604.872 169.483C601.322 162.312 587.709 156.205 565.298 151.75C548.996 148.502 530.337 146.576 508.3 145.858C503.369 145.7 485.098 145.7 480.053 145.872ZM512.613 150.729C527.649 151.448 538.617 152.396 549.988 153.992C568.201 156.535 582.72 160.257 591.748 164.698C596.707 167.126 599.539 169.397 600.704 171.84C601.077 172.659 601.121 172.86 601.063 173.795C601.006 174.571 600.891 175.016 600.589 175.576C596.808 182.518 578.135 189.099 551.21 192.979C532.637 195.667 512.526 196.888 490.403 196.687C479.765 196.587 474.231 196.385 465.031 195.796C427.813 193.353 398.344 186.196 389.877 177.56C387.534 175.16 387.261 172.961 389.043 170.561C391.818 166.796 399.451 162.959 410.405 159.797C427.856 154.768 452.093 151.563 480.125 150.6C484.782 150.442 508.487 150.543 512.613 150.729ZM639.574 166.092C640.868 166.767 641.716 167.773 642.119 169.138C642.421 170.144 642.406 170.633 642.061 171.768C641.702 172.904 640.782 174.01 639.704 174.556C639.143 174.844 638.697 174.944 637.792 175.002C636.714 175.059 636.541 175.03 635.707 174.642C634.586 174.111 633.795 173.335 633.307 172.3C632.803 171.222 632.775 169.555 633.264 168.492C633.81 167.299 635.017 166.236 636.311 165.819C636.987 165.589 638.927 165.761 639.574 166.092ZM389.086 183.164C391.171 184.774 395.052 186.858 398.905 188.438C414.142 194.69 440.061 199.231 469.703 200.826C484.638 201.616 501.817 201.674 516.422 200.97C548.522 199.403 575.216 194.747 591.245 187.935C594.695 186.47 598.461 184.357 600.33 182.848C600.661 182.575 600.962 182.359 601.006 182.359C601.049 182.359 601.092 190.493 601.092 200.423V218.502L600.761 219.077C600.387 219.738 599.87 220.025 596.521 221.448C576.941 229.783 547.688 235.402 514.913 237.112C502.823 237.744 486.234 237.744 474.159 237.112C447.522 235.718 423.601 231.838 404.511 225.831C398.488 223.934 389.676 220.456 388.713 219.608C388.569 219.479 388.325 219.105 388.181 218.789C387.922 218.243 387.908 217.381 387.908 200.28C387.908 190.421 387.936 182.359 387.98 182.359C388.023 182.359 388.511 182.719 389.086 183.164ZM644.117 212.437C645.181 212.926 646 213.702 646.474 214.665C646.819 215.369 646.877 215.656 646.877 216.706C646.877 217.755 646.819 218.042 646.474 218.746C645.066 221.635 641.17 222.281 638.899 220.011C636.857 217.97 637.145 214.521 639.488 212.883C640.911 211.906 642.593 211.733 644.117 212.437ZM393.054 226.779C412.173 234.439 439.242 239.684 469.199 241.567C487.485 242.702 507.567 242.573 525.191 241.208C553.266 239.009 577.847 234.022 595.845 226.837L599.295 225.472L599.769 226.003C600.042 226.305 600.431 226.866 600.632 227.268C600.962 227.886 601.02 228.159 601.02 229.208C601.02 230.257 600.962 230.53 600.632 231.148C598.159 235.819 588.643 240.489 574.066 244.211C560.151 247.746 541.636 250.362 521.885 251.555C510.945 252.216 502.967 252.402 490.547 252.302C480.93 252.216 478.184 252.144 470.924 251.77C430.803 249.686 398.56 242.271 389.805 233.117C387.965 231.191 387.448 229.309 388.253 227.541C388.655 226.679 389.475 225.486 389.676 225.472C389.733 225.472 391.257 226.061 393.054 226.779ZM389.503 239.095C400.946 247.373 429.337 253.811 464.599 256.139C474.087 256.771 479.205 256.944 490.618 257.044C515.847 257.245 537.927 255.708 558.182 252.331C577.703 249.083 593.013 244.111 599.913 238.779C600.488 238.333 600.991 237.974 601.02 237.974C601.063 237.974 601.077 246.166 601.063 256.182L601.02 274.404L600.689 274.878C600.316 275.396 599.252 275.942 595.744 277.408C576.424 285.441 548.119 290.887 516.566 292.655C503.211 293.388 487.226 293.417 473.728 292.727C443.698 291.16 415.695 286.073 396.533 278.687C392.076 276.962 389.043 275.597 388.598 275.094C387.879 274.303 387.908 275.065 387.908 255.851C387.908 238.391 387.908 237.945 388.181 238.132C388.325 238.247 388.928 238.678 389.503 239.095ZM391.156 281.647C396.332 283.889 405.302 286.835 412.849 288.789C430.43 293.316 451.345 296.305 473.728 297.469C487.053 298.159 503.226 298.13 516.566 297.397C548.119 295.658 576.496 290.298 596.075 282.394L599.295 281.086L599.741 281.589C600.574 282.523 600.991 283.486 601.063 284.636C601.121 285.628 601.092 285.757 600.617 286.734C596.779 294.451 573.65 301.838 542.082 305.43C525.435 307.327 510.442 308.06 490.906 307.917C480.57 307.845 477.896 307.773 470.493 307.385C449.764 306.293 430.228 303.663 415.508 299.984C407.444 297.972 402.01 296.089 396.993 293.575C392.91 291.548 390.553 289.853 389.072 287.884C387.778 286.159 387.548 284.679 388.31 283.055C388.698 282.207 389.532 281.086 389.762 281.086C389.82 281.086 390.452 281.331 391.156 281.647ZM390.495 295.414C392.048 296.463 395.771 298.374 398.358 299.467C413.337 305.775 439.313 310.403 469.128 312.055C477.25 312.501 479.966 312.573 490.762 312.659C502.018 312.745 508.616 312.63 517.141 312.199C544.755 310.805 568.288 307.141 584.632 301.708C591 299.582 596.621 296.894 600.042 294.322L601.02 293.575L601.063 311.653C601.092 328.883 601.077 329.731 600.833 330.22C600.474 330.895 600.157 331.111 598.073 332.045C568.719 345.151 516.523 351.446 466.54 347.896C436.079 345.74 409.355 340.136 391.142 332.103C388.928 331.125 388.569 330.867 388.181 330.019C387.922 329.473 387.908 328.639 387.908 311.509V293.56L388.598 294.078C388.971 294.365 389.82 294.969 390.495 295.414ZM391.516 337.42C401.909 341.774 415.867 345.625 430.89 348.327C472.031 355.699 523.221 355.34 563.113 347.393C576.438 344.749 589.52 340.941 598.001 337.247L599.295 336.687L599.769 337.218C600.531 338.109 601.006 339.23 601.063 340.323C601.121 341.156 601.063 341.415 600.704 342.191C597.642 348.686 581.053 355.024 556.672 359.033C542.283 361.404 526.628 362.827 508.516 363.431C502.981 363.618 486.09 363.618 480.412 363.431C459.626 362.755 441.455 360.887 425.139 357.754C408.004 354.463 395.225 349.707 390.193 344.749C387.951 342.55 387.361 340.711 388.253 338.771C388.583 338.038 389.532 336.701 389.719 336.701C389.748 336.701 390.567 337.032 391.516 337.42ZM345.4 338.612C346.406 339.072 347.298 339.963 347.772 340.998C348.563 342.694 348.16 344.821 346.795 346.186C345.846 347.134 344.811 347.551 343.416 347.537C342.453 347.537 342.137 347.465 341.519 347.149C340.441 346.603 339.866 346.028 339.334 345.051C337.249 341.127 341.361 336.759 345.4 338.612ZM389.848 350.612C402.283 359.321 433.578 365.917 471.499 367.814C484.955 368.489 502.636 368.518 516.063 367.886C555.451 366.032 587.45 359.249 599.87 350.08L601.02 349.232L601.063 367.268C601.092 383.751 601.077 385.346 600.862 385.792C600.531 386.481 600.014 386.826 598.044 387.703C578.336 396.354 549.054 402.16 515.991 403.956C508.688 404.344 504.491 404.445 494.572 404.445C482.195 404.445 474.806 404.186 464.312 403.381C434.756 401.096 409.111 395.607 391.156 387.732C388.971 386.769 388.583 386.496 388.181 385.633C387.922 385.087 387.908 384.254 387.908 367.11V349.161L388.382 349.534C388.626 349.75 389.302 350.224 389.848 350.612ZM350.115 384.958C351.035 385.404 351.941 386.338 352.387 387.286C352.918 388.421 352.918 390.045 352.387 391.166C351.596 392.804 350.187 393.753 348.376 393.868C347.513 393.911 347.14 393.868 346.493 393.624C344.883 393.02 343.646 391.454 343.416 389.729C343.316 388.953 343.603 387.545 344.02 386.884C344.638 385.878 345.702 385.044 346.795 384.685C347.513 384.455 349.411 384.613 350.115 384.958Z" fill="#713DFF"/>
<path d="M571.422 209.664C570.602 210.081 570.2 210.497 569.812 211.317C569.38 212.222 569.366 213.242 569.769 214.119C570.157 214.981 570.545 215.384 571.407 215.786C573.262 216.663 575.547 215.671 576.079 213.745C576.496 212.265 575.964 210.799 574.685 209.894C573.865 209.333 572.284 209.218 571.422 209.664Z" fill="#713DFF"/>
<path d="M571.407 265.336C570.545 265.739 570.157 266.141 569.769 267.003C568.762 269.216 570.415 271.746 572.845 271.746C574.239 271.746 575.677 270.725 576.051 269.504C576.927 266.558 574.124 264.043 571.407 265.336Z" fill="#713DFF"/>
<path d="M571.623 320.836C569.912 321.583 569.107 323.308 569.639 325.075C569.854 325.822 570.688 326.757 571.393 327.087C572.169 327.432 573.52 327.432 574.282 327.087C575.964 326.325 576.697 324.256 575.878 322.546C575.691 322.143 575.389 321.684 575.202 321.511C574.296 320.692 572.672 320.376 571.623 320.836Z" fill="#713DFF"/>
<path d="M571.723 376.422C570.89 376.724 570.243 377.299 569.84 378.118C569.208 379.397 569.38 380.834 570.3 381.854C571.005 382.63 571.766 382.975 572.845 382.975C573.923 382.975 574.685 382.63 575.389 381.854C576.28 380.862 576.481 379.425 575.878 378.146C575.173 376.623 573.319 375.861 571.723 376.422Z" fill="#713DFF"/>
<path d="M304.1 241.711C295.691 242.573 288.475 245.979 282.609 251.842C277.176 257.245 273.769 264.1 272.676 271.817C272.346 274.102 272.346 278.945 272.676 281.13C273.251 285.024 274.315 288.516 275.925 291.793C277.679 295.371 279.778 298.317 282.609 301.134C288.187 306.71 294.929 310.029 302.95 311.136C304.69 311.38 309.807 311.38 311.504 311.15C319.511 310.029 326.051 306.896 331.614 301.493C337.825 295.472 341.433 287.711 342.123 278.888L342.223 277.638H344.84C347.068 277.638 347.528 277.594 348.031 277.365C349.77 276.574 349.799 274.074 348.088 273.211C347.499 272.924 347.269 272.895 344.753 272.895H342.065L341.979 272.421C341.936 272.177 341.835 271.501 341.749 270.955C340.081 259.861 332.65 249.916 322.314 244.973C319.108 243.435 315.342 242.329 311.719 241.854C310.066 241.639 305.61 241.553 304.1 241.711ZM312.222 246.74C318.447 247.804 323.708 250.463 328.236 254.86C333.052 259.53 335.941 265.063 337.12 271.817C337.494 274.002 337.465 279.29 337.048 281.518C335.51 289.953 330.824 297.081 323.766 301.723C313.775 308.305 300.751 308.276 290.674 301.637C281.618 295.673 276.356 285.024 277.204 274.361C278.369 259.617 289.553 248.077 304.244 246.467C306.142 246.252 310.224 246.396 312.222 246.74Z" fill="#FDE565"/>
<path d="M304.532 251.928C300.564 252.374 296.295 253.998 293.075 256.268C291.508 257.375 288.963 259.803 287.784 261.327C281.948 268.843 280.927 279.089 285.183 287.525C286.519 290.169 287.957 292.109 290.257 294.308C292.155 296.147 293.808 297.325 296.021 298.461C307.752 304.425 321.911 300.3 328.624 288.962C332.405 282.552 333.023 274.39 330.249 267.391C326.166 257.059 315.557 250.678 304.532 251.928ZM311.317 256.944C315.169 257.748 318.533 259.574 321.365 262.405C329.214 270.237 329.214 282.739 321.365 290.571C318.519 293.417 315.212 295.199 311.245 296.061C309.16 296.506 305.365 296.506 303.353 296.061C301.455 295.644 300.032 295.155 298.451 294.365C296.582 293.417 295.705 292.813 293.491 290.93C292.888 290.428 291.22 288.372 290.559 287.338C289.164 285.182 288.244 282.912 287.684 280.325C287.253 278.241 287.253 274.735 287.684 272.651C289.524 264.072 296.165 257.878 304.833 256.656C306.285 256.455 309.721 256.599 311.317 256.944Z" fill="#FDE565"/>
<path d="M305.797 263.856L305.753 265.595L304.877 265.911C304.402 266.083 303.784 266.371 303.497 266.543C302.706 267.032 301.671 268.225 301.254 269.13C300.909 269.863 300.866 270.122 300.866 271.53C300.866 272.981 300.895 273.168 301.254 273.858C301.484 274.275 301.872 274.85 302.117 275.137C302.749 275.856 304.417 276.933 305.782 277.494C308.226 278.5 309.347 279.233 309.793 280.095C309.894 280.311 309.994 280.842 309.994 281.273C309.994 283.3 307.924 284.377 305.063 283.817C304.129 283.63 302.648 283.027 301.958 282.524L301.542 282.236L301.312 282.84C301.182 283.185 300.923 283.903 300.722 284.449C300.521 284.981 300.363 285.484 300.363 285.556C300.363 285.973 303.238 287.122 304.79 287.338L305.538 287.438V289.149V290.859H307.191H308.83L308.873 289.048L308.916 287.223L309.491 287.05C312.481 286.159 314.407 283.386 314.105 280.397C313.832 277.824 312.495 276.229 309.275 274.735C306.501 273.441 305.998 273.154 305.452 272.593C304.992 272.134 304.905 271.932 304.848 271.286C304.776 270.323 305.178 269.662 306.113 269.188C307.364 268.555 309.894 268.843 311.561 269.806C311.906 270.007 312.237 270.122 312.294 270.064C312.352 270.007 312.668 269.259 312.984 268.397L313.559 266.86L312.539 266.357C311.964 266.098 310.943 265.753 310.253 265.624L308.988 265.379V263.741V262.117H307.407H305.84L305.797 263.856Z" fill="#713DFF"/>
<path d="M674.549 242.199C664.343 243.665 655.89 250.692 652.656 260.393C651.563 263.655 651.06 267.65 651.391 270.409C651.491 271.271 651.606 272.162 651.65 272.421L651.721 272.881L646.403 272.924C641.285 272.967 641.055 272.981 640.681 273.269C639.905 273.844 639.689 274.275 639.689 275.266C639.689 276.258 639.905 276.689 640.681 277.264C641.069 277.551 641.242 277.566 646.59 277.566H652.095L652.555 277.235C652.8 277.048 653.03 276.919 653.044 276.948C653.058 276.962 653.288 277.508 653.547 278.141C656.753 285.728 664.616 296.966 674.506 308.075C675.642 309.354 676.749 310.518 676.95 310.647C677.151 310.777 677.683 310.92 678.129 310.949C679.192 311.021 679.494 310.805 681.493 308.607C689.341 299.941 696.931 289.666 700.856 282.38C702.164 279.951 703.228 277.566 703.947 275.425C704.795 272.881 705.025 271.731 705.125 269.446C705.542 259.617 699.864 249.888 690.937 245.131C688.565 243.866 685.575 242.846 682.815 242.343C681.047 242.027 676.361 241.941 674.549 242.199ZM682.944 247.243C687.329 248.235 690.707 250.103 693.898 253.279C697.909 257.289 700.123 262.275 700.382 267.866C700.482 270.15 700.295 271.271 699.404 273.973C698.815 275.755 697.233 279.147 695.94 281.431C692.662 287.237 687.099 294.811 680.515 302.485L678.244 305.129L677.87 304.683C677.669 304.439 676.648 303.261 675.599 302.039C663.754 288.286 656.638 276.445 656.063 269.604C656.005 268.986 656.048 267.722 656.149 266.773C656.566 262.706 657.96 259.099 660.462 255.622C661.367 254.357 663.912 251.857 665.306 250.865C667.721 249.155 670.912 247.761 673.816 247.186C675.829 246.769 675.958 246.769 678.718 246.812C680.846 246.841 681.493 246.913 682.944 247.243Z" fill="#FDE565"/>
<path d="M675.541 252.719C668.037 254.07 662.762 261.054 663.495 268.67C664.084 274.921 668.368 279.994 674.477 281.661C676.202 282.136 679.336 282.222 681.162 281.834C684.756 281.086 687.889 279.118 690.103 276.2C691.095 274.907 692.173 272.651 692.619 270.955C692.95 269.705 692.993 269.231 692.993 267.291C692.993 265.351 692.95 264.876 692.619 263.669C691.095 257.921 686.538 253.71 680.745 252.704C679.279 252.446 677.007 252.446 675.541 252.719ZM680.371 257.518C685 258.553 688.249 262.62 688.234 267.362C688.206 274.763 680.4 279.563 673.773 276.244C669.159 273.93 667.017 268.44 668.9 263.698C669.964 261.039 672.22 258.826 674.866 257.863C676.432 257.289 678.718 257.145 680.371 257.518Z" fill="#713DFF"/>
<path d="M355.779 273.096C355.175 273.355 354.586 274.088 354.471 274.706C354.27 275.755 354.615 276.632 355.477 277.264C355.865 277.551 356.038 277.566 361.385 277.566C366.733 277.566 366.905 277.551 367.294 277.264C368.07 276.689 368.285 276.258 368.285 275.266C368.285 274.275 368.07 273.844 367.294 273.269C366.92 272.981 366.704 272.967 361.558 272.938C357.331 272.91 356.124 272.938 355.779 273.096Z" fill="#FDE565"/>
<path d="M622.008 273.096C621.404 273.355 620.815 274.088 620.7 274.706C620.499 275.755 620.844 276.632 621.706 277.264C622.08 277.551 622.31 277.566 627.298 277.609C631.826 277.638 632.588 277.623 633.12 277.408C634.946 276.718 635.061 274.102 633.293 273.211C632.674 272.895 632.559 272.895 627.542 272.895C623.632 272.91 622.339 272.953 622.008 273.096Z" fill="#FDE565"/>
<path d="M503.916 411.673C503.384 411.875 502.852 412.378 502.608 412.924C502.363 413.455 502.334 413.944 502.334 418.471C502.334 422.997 502.363 423.486 502.608 424.018C503.254 425.441 504.98 425.8 506.173 424.751C507.064 423.96 507.078 423.888 507.078 418.471C507.078 413.154 507.064 412.995 506.273 412.263C505.612 411.659 504.635 411.415 503.916 411.673Z" fill="#EF5DA8"/>
<path d="M503.915 430.212C503.384 430.413 502.852 430.916 502.607 431.462C502.392 431.936 502.334 432.41 502.334 433.919V435.787L501.457 436.06C499.416 436.693 497.159 438.719 496.138 440.831C495.837 441.464 495.578 442.096 495.578 442.225C495.578 442.441 495.319 442.47 493.134 442.47C490.374 442.47 490.015 442.556 489.296 443.375C488.246 444.568 488.606 446.292 490.029 446.939C490.532 447.169 490.992 447.212 493.019 447.212H495.405L495.722 448.146C496.426 450.273 498.295 452.371 500.394 453.406C501.917 454.153 502.981 454.397 504.634 454.397C506.302 454.397 507.337 454.153 508.947 453.363C511.074 452.328 513.044 450.029 513.691 447.83L513.877 447.226L516.508 447.183C519.369 447.14 519.513 447.097 520.203 446.192C520.864 445.286 520.576 443.663 519.613 442.93C519.11 442.542 519.067 442.542 516.465 442.47L513.82 442.398L513.475 441.564C512.44 438.992 510.427 436.995 508.012 436.118L507.078 435.787V433.948C507.078 431.936 506.949 431.447 506.273 430.801C505.612 430.197 504.634 429.953 503.915 430.212ZM506.69 440.803C508.875 441.866 509.91 444.64 508.918 446.81C508.429 447.888 507.825 448.52 506.762 449.095C505.957 449.526 505.727 449.569 504.706 449.583C503.685 449.583 503.441 449.526 502.579 449.109C499.488 447.586 499.085 443.303 501.86 441.248C502.823 440.544 503.628 440.314 504.879 440.372C505.626 440.4 506.115 440.515 506.69 440.803Z" fill="#EF5DA8"/>
<path d="M380.002 442.728C379.082 443.231 378.564 444.338 378.765 445.416C378.895 446.091 379.613 446.882 380.26 447.068C380.605 447.169 382.517 447.212 385.78 447.183C390.553 447.14 390.783 447.126 391.157 446.839C391.775 446.393 392.091 445.876 392.177 445.229C392.292 444.395 391.904 443.433 391.243 442.93L390.74 442.542L385.622 442.499C380.85 442.47 380.476 442.484 380.002 442.728Z" fill="#EF5DA8"/>
<path d="M398.474 442.671C397.856 442.93 397.137 443.806 397.022 444.41C396.821 445.531 397.396 446.594 398.431 446.982C398.962 447.198 399.71 447.212 404.109 447.183C408.953 447.14 409.183 447.126 409.557 446.838C411.038 445.732 410.923 443.591 409.327 442.786C408.709 442.47 408.594 442.47 403.793 442.47C400.084 442.484 398.804 442.527 398.474 442.671Z" fill="#EF5DA8"/>
<path d="M416.658 442.743C415.35 443.433 414.976 445.258 415.896 446.364C416.601 447.198 416.744 447.212 422.15 447.212C426.649 447.212 427.138 447.183 427.67 446.939C429.093 446.292 429.452 444.568 428.403 443.375C427.612 442.484 427.54 442.47 422.092 442.47C417.564 442.47 417.118 442.499 416.658 442.743Z" fill="#EF5DA8"/>
<path d="M435.13 442.671C434.512 442.944 433.794 443.806 433.679 444.41C433.477 445.531 434.052 446.594 435.087 446.982C435.619 447.198 436.367 447.212 440.765 447.183C445.61 447.14 445.84 447.126 446.214 446.838C446.832 446.393 447.148 445.876 447.234 445.229C447.349 444.395 446.961 443.433 446.3 442.93L445.797 442.542L440.679 442.513C436.669 442.484 435.461 442.513 435.13 442.671Z" fill="#EF5DA8"/>
<path d="M453.315 442.743C452.007 443.433 451.633 445.258 452.553 446.364C453.257 447.198 453.401 447.212 458.806 447.212C463.306 447.212 463.794 447.183 464.326 446.939C465.75 446.292 466.109 444.568 465.059 443.375C464.269 442.484 464.197 442.47 458.749 442.47C454.221 442.47 453.775 442.499 453.315 442.743Z" fill="#EF5DA8"/>
<path d="M471.715 442.728C470.795 443.231 470.277 444.338 470.479 445.416C470.608 446.091 471.327 446.882 471.974 447.068C472.319 447.169 474.231 447.212 477.494 447.183C482.266 447.14 482.496 447.126 482.87 446.839C483.488 446.393 483.805 445.876 483.891 445.229C484.006 444.395 483.618 443.433 482.956 442.93L482.453 442.542L477.336 442.499C472.563 442.47 472.189 442.484 471.715 442.728Z" fill="#EF5DA8"/>
<path d="M526.844 442.671C526.226 442.944 525.507 443.806 525.392 444.41C525.191 445.531 525.766 446.594 526.801 446.982C527.333 447.198 528.081 447.212 532.479 447.183C537.324 447.14 537.554 447.126 537.928 446.838C538.546 446.393 538.862 445.876 538.948 445.229C539.063 444.395 538.675 443.433 538.014 442.93L537.511 442.542L532.393 442.513C528.382 442.484 527.175 442.513 526.844 442.671Z" fill="#EF5DA8"/>
<path d="M545.029 442.743C543.721 443.433 543.347 445.258 544.267 446.364C544.971 447.198 545.115 447.212 550.52 447.212C555.02 447.212 555.508 447.183 556.04 446.939C557.463 446.292 557.823 444.568 556.773 443.375C555.983 442.484 555.911 442.47 550.463 442.47C545.934 442.47 545.489 442.499 545.029 442.743Z" fill="#EF5DA8"/>
<path d="M563.501 442.671C562.883 442.944 562.164 443.806 562.049 444.41C561.848 445.531 562.423 446.594 563.458 446.982C563.99 447.198 564.737 447.212 569.136 447.183C573.981 447.14 574.211 447.126 574.584 446.838C575.202 446.393 575.519 445.876 575.605 445.229C575.72 444.395 575.332 443.433 574.671 442.93L574.167 442.542L569.05 442.513C565.039 442.484 563.832 442.513 563.501 442.671Z" fill="#EF5DA8"/>
<path d="M581.685 442.786C580.09 443.591 579.975 445.732 581.455 446.838C581.829 447.126 582.059 447.14 586.904 447.183C591.302 447.212 592.05 447.198 592.582 446.982C594.077 446.422 594.508 444.597 593.43 443.375C592.639 442.484 592.567 442.47 587.177 442.47C582.433 442.47 582.303 442.47 581.685 442.786Z" fill="#EF5DA8"/>
<path d="M600.086 442.728C599.166 443.231 598.648 444.338 598.849 445.416C598.979 446.091 599.697 446.882 600.344 447.068C600.689 447.169 602.601 447.212 605.864 447.183C610.637 447.14 610.867 447.126 611.241 446.839C611.859 446.393 612.175 445.876 612.261 445.229C612.376 444.395 611.988 443.433 611.327 442.93L610.824 442.542L605.706 442.499C600.934 442.47 600.56 442.484 600.086 442.728Z" fill="#EF5DA8"/>
<path d="M618.558 442.671C617.94 442.93 617.221 443.806 617.106 444.41C616.905 445.531 617.48 446.594 618.515 446.982C619.046 447.198 619.794 447.212 624.193 447.183C629.037 447.14 629.267 447.126 629.641 446.838C631.122 445.732 631.007 443.591 629.411 442.786C628.793 442.47 628.678 442.47 623.876 442.47C620.168 442.484 618.888 442.527 618.558 442.671Z" fill="#EF5DA8"/>
<path d="M371.017 443.246C369.608 443.691 367.768 444.898 366.719 446.077C365.31 447.643 364.246 449.986 364.102 451.811C364.045 452.601 364.074 452.831 364.361 453.32C365.554 455.346 368.3 454.685 368.803 452.256C369.177 450.374 370.485 448.678 372.196 447.816C373.202 447.298 373.763 446.695 373.906 445.976C374.251 444.137 372.728 442.7 371.017 443.246Z" fill="#EF5DA8"/>
<path d="M637.015 443.188C635.923 443.519 635.233 444.525 635.333 445.646C635.434 446.594 635.923 447.212 637.058 447.744C638.884 448.621 640.135 450.201 640.537 452.141C640.638 452.644 640.825 453.234 640.954 453.478C641.227 454.01 642.162 454.541 642.837 454.541C643.915 454.541 645.123 453.593 645.31 452.601C645.597 451.035 644.347 447.916 642.694 446.077C641.084 444.281 638.223 442.815 637.015 443.188Z" fill="#EF5DA8"/>
<path d="M365.252 459.542C364.232 460.031 363.987 460.548 363.901 462.373L363.829 463.94L362.392 464.127C356.153 464.888 350.216 467.762 345.53 472.289C339.636 477.951 336.416 485.525 336.43 493.745C336.43 497.035 336.718 499.249 337.551 502.18C340.527 512.656 349.382 520.891 360.092 523.133C365.727 524.311 371.578 523.894 376.796 521.94C378.851 521.164 381.209 519.971 382.934 518.822C393.14 512.024 398.186 499.795 395.728 487.795C393.687 477.807 386.729 469.587 377.141 465.822C375.43 465.161 372.44 464.4 370.658 464.17C369.91 464.069 369.148 463.968 368.976 463.94C368.688 463.882 368.674 463.796 368.616 462.316C368.573 460.62 368.444 460.29 367.61 459.672C367.064 459.269 365.986 459.212 365.252 459.542ZM361.874 468.725C361.759 468.869 361.299 469.429 360.825 469.99C359.718 471.326 357.662 474.402 356.771 476.069C356.139 477.276 356.038 477.391 355.722 477.319C354.586 477.046 350.159 475.034 349.699 474.603C349.54 474.445 349.67 474.287 350.417 473.697C353.35 471.355 357.059 469.587 360.652 468.768C362.133 468.438 362.104 468.438 361.874 468.725ZM375.258 469.731C377.083 470.407 379.139 471.456 380.605 472.447C381.913 473.338 383.164 474.344 383.164 474.502C383.164 474.617 380.26 476.083 379.196 476.5L378.463 476.802L377.773 475.551C376.853 473.899 375.33 471.628 374.165 470.191C373.116 468.898 373.058 468.926 375.258 469.731ZM368.516 470.306C370.614 472.519 372.081 474.402 373.446 476.672C374.409 478.267 374.553 478.095 371.822 478.569C370.313 478.842 369.436 478.885 366.489 478.9C363.053 478.9 360.451 478.684 360.451 478.382C360.451 478.095 362.291 475.192 363.398 473.726C364.735 471.973 367.136 469.343 367.409 469.343C367.509 469.343 368.013 469.774 368.516 470.306ZM349.584 479.403C351.294 480.25 351.999 480.552 354.069 481.285C354.37 481.4 354.37 481.4 353.91 482.952C353.278 485.022 352.746 487.594 352.545 489.534C352.444 490.396 352.344 491.258 352.315 491.431L352.257 491.761H346.493H340.714L340.815 490.856C341.275 486.66 343.23 481.788 345.745 478.497L346.378 477.678L346.982 478.052C347.312 478.253 348.477 478.857 349.584 479.403ZM387.146 478.727C389.777 482.42 391.487 486.775 391.875 490.784L391.976 491.761H387.29H382.589L382.531 491.431C382.503 491.258 382.402 490.439 382.316 489.606C382.1 487.565 381.554 484.993 380.921 482.995C380.203 480.696 380.188 480.739 381.195 480.337C382.273 479.891 385.018 478.497 385.708 478.052C386.01 477.851 386.283 477.692 386.327 477.692C386.37 477.692 386.729 478.152 387.146 478.727ZM376.738 483.929C377.515 486.401 378.42 491.215 378.176 491.646C378.09 491.805 356.742 491.79 356.656 491.646C356.555 491.474 356.958 488.499 357.303 486.919C357.461 486.186 357.806 484.921 358.051 484.116C358.597 482.392 358.324 482.492 361.098 482.938C363.7 483.34 369.263 483.311 372.023 482.866C373.13 482.694 374.395 482.464 374.826 482.349C376.149 482.018 376.12 481.989 376.738 483.929ZM352.329 496.892C352.588 499.895 353.105 502.726 353.767 504.925C353.968 505.572 354.126 506.161 354.126 506.233C354.126 506.319 353.853 506.448 353.522 506.549C352.358 506.908 349.44 508.23 347.916 509.093L346.363 509.969L345.803 509.236C344.365 507.354 342.885 504.566 342.08 502.238C341.591 500.844 340.973 498.156 340.829 496.82L340.728 495.929H346.478H352.229L352.329 496.892ZM378.205 496.073C378.32 496.259 378.032 498.846 377.687 500.657C377.428 501.95 376.48 505.385 376.336 505.543C376.307 505.557 375.445 505.414 374.424 505.212C369.508 504.221 364.677 504.135 359.819 504.925C358.669 505.112 358.381 505.126 358.295 504.968C357.878 504.307 356.843 499.378 356.642 497.035L356.541 495.929H367.323C374.28 495.929 378.147 495.986 378.205 496.073ZM391.933 496.303C391.933 497.582 391.157 500.944 390.423 502.87C389.46 505.356 387.017 509.581 386.413 509.811C386.312 509.854 385.536 509.495 384.688 509.021C383.84 508.561 382.589 507.929 381.899 507.641C381.209 507.354 380.605 507.066 380.548 507.009C380.49 506.966 380.634 506.319 380.864 505.572C381.655 503.057 382.215 500.125 382.517 496.892L382.618 495.929H387.275H391.933V496.303ZM370.701 508.949C373.274 509.265 374.568 509.581 374.467 509.854C374.424 509.984 373.978 510.745 373.504 511.55C372.282 513.591 370.643 515.732 368.918 517.543L367.452 519.08L366.518 518.175C365.281 516.953 363.513 514.826 362.478 513.332C361.501 511.909 360.164 509.596 360.164 509.351C360.164 508.992 364.663 508.59 367.639 508.69C368.386 508.719 369.766 508.834 370.701 508.949ZM356.57 511.837C357.504 513.648 359.172 516.249 360.422 517.801C360.911 518.419 361.314 518.951 361.314 518.98C361.314 519.095 359.531 518.635 358.022 518.117C355.477 517.269 352.703 515.761 350.36 513.921C349.9 513.562 349.526 513.231 349.526 513.174C349.526 513.001 352.056 511.737 353.867 511.018C354.83 510.63 355.664 510.314 355.707 510.3C355.75 510.3 356.139 510.989 356.57 511.837ZM381.266 512.11C382.301 512.613 383.164 513.088 383.164 513.159C383.164 513.576 379.599 515.962 377.486 516.982C376.206 517.586 374.108 518.405 374.108 518.275C374.108 518.247 374.438 517.772 374.855 517.241C375.876 515.89 377.241 513.763 378.061 512.268C378.65 511.162 378.78 511.018 379.053 511.104C379.211 511.148 380.217 511.607 381.266 512.11Z" fill="#EF5DA8"/>
<path d="M641.975 459.542C641.645 459.7 641.228 460.045 641.041 460.304L640.696 460.793V466.052V471.312L641.084 471.815C641.587 472.476 642.55 472.864 643.384 472.749C644.031 472.663 644.548 472.347 644.994 471.729C645.281 471.341 645.296 471.168 645.296 466.038C645.296 460.907 645.281 460.735 644.994 460.347C644.246 459.341 643.082 459.039 641.975 459.542Z" fill="#EF5DA8"/>
<path d="M650.499 463.509C650.197 463.624 649.824 463.825 649.651 463.983C648.961 464.601 648.961 464.644 648.961 470.996V476.96H640.767H632.573V483.355V489.75H625.372C617.278 489.75 617.494 489.721 616.79 490.799L616.401 491.388L616.358 506.333C616.33 514.568 616.358 521.624 616.401 522.041C616.516 522.946 616.948 523.621 617.652 523.981C618.155 524.254 618.917 524.254 643.125 524.254C665.895 524.254 668.109 524.239 668.569 524.024C668.842 523.894 669.173 523.664 669.302 523.521C669.963 522.802 669.935 523.823 669.949 493.917C669.949 473.841 669.906 465.52 669.791 465.104C669.59 464.385 668.871 463.667 668.152 463.465C667.246 463.221 651.218 463.264 650.499 463.509ZM665.176 493.802L665.205 519.497H659.455H653.705V493.773V468.05L659.426 468.078L665.133 468.122L665.176 493.802ZM648.817 500.599V519.497H643.168H637.504L637.418 500.714C637.375 490.382 637.375 481.874 637.404 481.817C637.447 481.745 640.034 481.702 643.154 481.702H648.817V500.599ZM632.573 506.994V519.497H626.895H621.217V506.994V494.492H626.895H632.573V506.994Z" fill="#EF5DA8"/>
</g>
<path d="M363.398 40.9516C359.013 41.2534 354.399 42.2881 350.259 43.9263C348.246 44.7024 344.509 46.5993 343.129 47.5334C341.418 48.6974 341.548 47.6915 341.504 58.915C341.461 69.4775 341.562 72.0211 342.123 74.809C343.201 80.155 345.846 85.0841 349.67 88.9211C350.316 89.5822 353.939 92.6 357.72 95.6322L364.591 101.151L364.304 101.697C363.498 103.234 364.893 107.028 367.049 109.184C367.94 110.089 369.249 110.98 370.341 111.469C372.425 112.389 374.309 111.023 373.906 108.868C373.762 108.135 373.187 107.531 372.138 107.014C370.456 106.209 369.205 104.556 368.803 102.631C368.717 102.214 368.544 101.711 368.415 101.51C368.199 101.194 368.199 101.122 368.372 100.964C368.487 100.863 371.39 98.5208 374.826 95.7759C382.129 89.9271 382.948 89.2085 384.486 87.3834C388.296 82.8135 390.524 77.5107 391.056 71.705C391.257 69.5637 391.271 49.8327 391.07 49.1429C390.883 48.4819 390.279 47.9214 388.842 47.0592C381.266 42.518 372.267 40.3624 363.398 40.9516ZM371.232 45.9095C375.876 46.4987 380.159 47.8495 384.386 50.0483L386.398 51.0973L386.441 60.3521C386.484 69.9661 386.413 71.8199 385.895 74.1767C384.889 78.761 382.215 83.374 378.837 86.3919C377.974 87.1391 367.552 95.5604 366.604 96.2502C366.374 96.4083 365.698 95.9197 360.566 91.8096C353.738 86.3487 353.292 85.9607 352.013 84.4662C349.195 81.1609 347.384 77.3527 346.608 73.0702C346.306 71.4175 346.306 70.9577 346.291 61.2143V51.083L348.879 49.7752C355.837 46.2831 363.57 44.9467 371.232 45.9095Z" fill="#EF5DA8"/>
<path d="M369.364 67.3936L363.844 74.8808L361.817 72.8545L359.804 70.8426L358.108 72.5383L356.426 74.2197L359.632 77.41C361.386 79.1632 363.01 80.6722 363.226 80.7584C363.456 80.8302 363.858 80.9021 364.131 80.9021C365.296 80.9021 365.296 80.9021 372.167 71.6186C375.732 66.8188 378.65 62.8381 378.679 62.7806C378.722 62.68 375.43 60.122 375.071 59.9927C374.97 59.9496 372.713 62.8812 369.364 67.3936Z" fill="#66D1FF"/>
<path d="M655.358 52.2901C650.643 53.2673 646.632 55.9547 644.016 59.8779L643.053 61.3293L642.075 60.9126C640.25 60.1509 638.769 59.8635 636.455 59.8635C633.321 59.8491 631.165 60.4096 628.52 61.9185C625.271 63.7723 622.568 67.2644 621.505 70.9433L621.16 72.1361H618.701C616.718 72.1361 616.013 72.1936 615.122 72.4235C610.292 73.6594 607.316 78.488 608.351 83.4171C608.466 83.9632 608.826 84.9692 609.156 85.6446C609.631 86.6218 610.004 87.096 610.924 88.0158C612.175 89.2516 613.153 89.8552 614.82 90.4013L615.826 90.7462L628.232 90.7893L640.624 90.8324V92.2695C640.624 93.9221 640.782 94.4395 641.529 95.0862C642.722 96.1352 644.447 95.776 645.094 94.3533C645.295 93.9078 645.367 93.4192 645.367 92.2982V90.8324L657.198 90.7893C670.222 90.7318 669.633 90.7749 671.76 89.8121C675.584 88.0876 678.143 84.15 678.143 79.9681C678.143 78.0568 677.51 75.7288 676.605 74.3779C676.245 73.8175 676.231 73.8031 676.418 72.6247C676.504 71.978 676.59 70.5984 676.576 69.5781C676.562 64.807 674.793 60.582 671.401 57.1905C669.115 54.9056 666.398 53.3535 663.221 52.5057C661.309 51.9883 657.342 51.8734 655.358 52.2901ZM661.439 56.9893C665.349 57.7941 668.741 60.4096 670.553 64.0166C671.832 66.5459 672.22 70.4547 671.458 73.0702C671.056 74.4642 671.156 74.9384 672.177 76.3036C673.974 78.7466 673.758 81.9226 671.66 84.1357C670.811 85.041 669.575 85.7164 668.353 85.932C667.836 86.0326 658.851 86.0613 641.975 86.047L616.401 86.0039L615.596 85.6015C614.518 85.0841 613.584 84.0638 613.167 82.9716C612.319 80.7011 613.541 78.0281 615.841 77.1659C616.559 76.9072 616.962 76.8784 620.182 76.8784C623.589 76.8784 623.776 76.8641 624.38 76.5479C625.113 76.1886 625.673 75.3551 625.673 74.6079C625.673 72.8834 626.78 70.0667 628.074 68.4716C629.425 66.8046 631.596 65.4106 633.723 64.8501C635.003 64.5052 637.633 64.5052 638.899 64.8501C639.962 65.1375 641.457 65.8417 642.665 66.6034C643.657 67.25 644.634 67.3219 645.454 66.8189C646.014 66.4597 646.115 66.3016 646.747 64.7783C647.984 61.8035 650.586 59.1162 653.532 57.8085C653.978 57.6073 654.941 57.2911 655.646 57.1043C657.241 56.6876 659.757 56.6444 661.439 56.9893Z" fill="#EF5DA8"/>
<path d="M502.708 100.662C500.667 101.093 498.367 102.516 497.217 104.068C496.512 105.031 495.866 106.209 495.592 107.086L495.406 107.632H493.005C490.806 107.632 490.561 107.66 489.972 107.948C488.261 108.81 488.29 111.311 490.029 112.101C490.532 112.331 490.992 112.374 493.034 112.374C495.434 112.374 495.463 112.374 495.549 112.69C495.751 113.481 496.915 115.536 497.591 116.283C498.496 117.289 499.991 118.309 501.314 118.798L502.32 119.157L502.363 121.212C502.406 123.439 502.493 123.684 503.355 124.345C504.261 125.006 505.885 124.718 506.618 123.756C506.992 123.267 507.006 123.152 507.078 121.183L507.15 119.099L507.926 118.826C509.163 118.395 510.212 117.706 511.319 116.613C512.411 115.507 513.101 114.458 513.533 113.222L513.806 112.446L516.48 112.374C518.866 112.302 519.168 112.273 519.527 112C520.303 111.426 520.519 110.994 520.519 110.003C520.519 109.011 520.303 108.58 519.527 108.005C519.168 107.732 518.895 107.703 516.508 107.66L513.878 107.617L513.432 106.439C512.411 103.766 510.111 101.682 507.222 100.82C506.101 100.475 503.93 100.403 502.708 100.662ZM506.474 105.706C507.783 106.281 508.588 107.129 509.033 108.365C510.615 112.877 505.08 116.599 501.558 113.38C499.488 111.483 499.474 108.408 501.515 106.525C502.909 105.232 504.764 104.93 506.474 105.706Z" fill="#EF5DA8"/>
<path d="M641.745 100.748C641.141 101.064 640.71 101.768 640.566 102.703C640.308 104.456 638.956 106.18 637.203 107.028C635.765 107.718 635.377 108.235 635.377 109.442C635.377 110.52 635.664 110.994 636.599 111.469C637.404 111.885 638.036 111.885 639.043 111.469C641.228 110.563 643.255 108.595 644.376 106.281C645.008 104.973 645.44 103.263 645.325 102.444C645.109 100.849 643.226 99.9577 641.745 100.748Z" fill="#EF5DA8"/>
<path d="M380.073 107.833C379.47 108.092 378.88 108.825 378.765 109.442C378.564 110.492 378.909 111.368 379.772 112C380.16 112.288 380.332 112.302 385.464 112.302C390.596 112.302 390.769 112.288 391.157 112C391.933 111.426 392.149 110.995 392.149 110.003C392.149 109.011 391.933 108.58 391.157 108.005C390.783 107.718 390.567 107.704 385.637 107.675C381.583 107.646 380.418 107.675 380.073 107.833Z" fill="#EF5DA8"/>
<path d="M398.258 107.948C396.49 108.839 396.605 111.454 398.43 112.144C398.962 112.36 399.71 112.374 404.108 112.345C408.953 112.302 409.183 112.288 409.557 112C410.333 111.426 410.549 110.995 410.549 110.003C410.549 109.011 410.333 108.58 409.557 108.005C409.183 107.718 408.953 107.704 404.037 107.661C398.948 107.617 398.905 107.632 398.258 107.948Z" fill="#EF5DA8"/>
<path d="M416.73 107.833C416.126 108.092 415.537 108.825 415.422 109.442C415.221 110.492 415.566 111.368 416.428 112C416.802 112.288 417.032 112.302 421.876 112.345C426.275 112.374 427.023 112.36 427.555 112.144C429.38 111.454 429.495 108.839 427.727 107.948C427.109 107.632 426.994 107.632 422.121 107.632C418.326 107.646 417.061 107.689 416.73 107.833Z" fill="#EF5DA8"/>
<path d="M434.914 107.948C433.146 108.839 433.261 111.454 435.087 112.144C435.619 112.36 436.366 112.374 440.765 112.345C445.61 112.302 445.84 112.288 446.213 112C446.99 111.426 447.205 110.995 447.205 110.003C447.205 109.011 446.99 108.58 446.213 108.005C445.84 107.718 445.61 107.704 440.693 107.661C435.604 107.617 435.561 107.632 434.914 107.948Z" fill="#EF5DA8"/>
<path d="M453.387 107.833C452.783 108.092 452.194 108.825 452.079 109.442C451.877 110.492 452.222 111.368 453.085 112C453.459 112.288 453.689 112.302 458.533 112.345C462.932 112.374 463.68 112.36 464.211 112.144C466.037 111.454 466.152 108.839 464.384 107.948C463.766 107.632 463.651 107.632 458.778 107.632C454.983 107.646 453.718 107.689 453.387 107.833Z" fill="#EF5DA8"/>
<path d="M471.787 107.833C471.184 108.092 470.594 108.825 470.479 109.442C470.278 110.492 470.623 111.368 471.485 112C471.874 112.288 472.046 112.302 477.178 112.302C482.31 112.302 482.482 112.288 482.871 112C483.647 111.426 483.862 110.995 483.862 110.003C483.862 109.011 483.647 108.58 482.871 108.005C482.497 107.718 482.281 107.704 477.35 107.675C473.297 107.646 472.132 107.675 471.787 107.833Z" fill="#EF5DA8"/>
<path d="M526.628 107.948C524.86 108.839 524.975 111.454 526.801 112.144C527.333 112.36 528.08 112.374 532.479 112.345C537.323 112.302 537.553 112.288 537.927 112C538.703 111.426 538.919 110.995 538.919 110.003C538.919 109.011 538.703 108.58 537.927 108.005C537.553 107.718 537.323 107.704 532.407 107.661C527.318 107.617 527.275 107.632 526.628 107.948Z" fill="#EF5DA8"/>
<path d="M545.101 107.833C544.497 108.092 543.908 108.825 543.793 109.442C543.591 110.492 543.936 111.368 544.799 112C545.173 112.288 545.403 112.302 550.247 112.345C554.646 112.374 555.393 112.36 555.925 112.144C557.751 111.454 557.866 108.839 556.098 107.948C555.48 107.632 555.365 107.632 550.491 107.632C546.696 107.646 545.431 107.689 545.101 107.833Z" fill="#EF5DA8"/>
<path d="M563.285 107.948C561.517 108.839 561.632 111.454 563.458 112.144C563.989 112.36 564.737 112.374 569.136 112.345C573.98 112.302 574.21 112.288 574.584 112C575.36 111.426 575.576 110.995 575.576 110.003C575.576 109.011 575.36 108.58 574.584 108.005C574.21 107.718 573.98 107.704 569.064 107.661C563.975 107.617 563.932 107.632 563.285 107.948Z" fill="#EF5DA8"/>
<path d="M581.757 107.833C581.154 108.092 580.564 108.825 580.449 109.442C580.248 110.492 580.593 111.368 581.456 112C581.829 112.288 582.059 112.302 586.904 112.345C591.303 112.374 592.05 112.36 592.582 112.144C594.408 111.454 594.523 108.839 592.755 107.948C592.136 107.632 592.021 107.632 587.148 107.632C583.353 107.646 582.088 107.689 581.757 107.833Z" fill="#EF5DA8"/>
<path d="M600.157 107.833C599.554 108.092 598.964 108.825 598.849 109.442C598.648 110.492 598.993 111.368 599.856 112C600.244 112.288 600.416 112.302 605.548 112.302C610.68 112.302 610.853 112.288 611.241 112C612.017 111.426 612.233 110.995 612.233 110.003C612.233 109.011 612.017 108.58 611.241 108.005C610.867 107.718 610.651 107.704 605.721 107.675C601.667 107.646 600.502 107.675 600.157 107.833Z" fill="#EF5DA8"/>
<path d="M618.342 107.948C616.574 108.839 616.689 111.454 618.515 112.144C619.047 112.36 619.794 112.374 624.193 112.345C629.037 112.302 629.267 112.288 629.641 112C630.417 111.426 630.633 110.995 630.633 110.003C630.633 109.011 630.417 108.58 629.641 108.005C629.267 107.718 629.037 107.704 624.121 107.661C619.032 107.617 618.989 107.632 618.342 107.948Z" fill="#EF5DA8"/>
<path d="M503.7 129.82C503.111 130.079 502.507 130.812 502.406 131.386C502.363 131.645 502.334 134.088 502.363 136.833C502.406 141.604 502.421 141.834 502.708 142.208C503.154 142.826 503.671 143.142 504.318 143.228C505.152 143.343 506.115 142.955 506.618 142.294L507.006 141.791V136.459V131.128L506.661 130.639C506.043 129.763 504.678 129.389 503.7 129.82Z" fill="#EF5DA8"/>
<path d="M480.053 145.872C443.712 147.051 413.151 152.152 396.231 159.869C389.935 162.729 385.55 166.264 383.954 169.756C383.121 171.581 383.164 170.187 383.164 195.149C383.164 210.152 383.221 218.387 383.322 219.005C383.494 220.097 384.055 221.39 384.788 222.353C385.09 222.727 385.32 223.057 385.32 223.086C385.32 223.115 385.09 223.489 384.803 223.905C384.515 224.336 384.113 225.026 383.926 225.457C383.121 227.268 383.164 225.96 383.164 250.362V272.895H379.239C375.459 272.895 375.301 272.909 374.682 273.211C372.972 274.074 373.001 276.574 374.74 277.364C375.272 277.609 375.761 277.637 379.929 277.637H384.529L384.932 278.126C385.148 278.399 385.32 278.658 385.32 278.687C385.32 278.73 385.09 279.103 384.803 279.52C384.156 280.468 383.653 281.575 383.365 282.653C383.063 283.831 383.063 329.07 383.365 330.536C383.609 331.643 384.141 332.778 384.831 333.64C385.105 333.971 385.32 334.272 385.32 334.33C385.32 334.373 385.133 334.689 384.903 335.02C383.94 336.428 383.164 338.454 383.164 339.547C383.164 340.524 384.558 340.438 367.826 340.438H352.66L352.573 340.107C352.53 339.935 352.214 339.23 351.869 338.526C350.762 336.342 348.893 334.732 346.435 333.884C345.415 333.525 345.084 333.482 343.488 333.482C341.936 333.482 341.533 333.54 340.527 333.87C335.913 335.393 333.239 340.05 334.231 344.849C334.921 348.169 337.206 350.727 340.541 351.877C341.548 352.222 341.907 352.279 343.416 352.279C345.314 352.279 346.205 352.078 347.729 351.316C349.972 350.195 351.768 348.112 352.53 345.712L352.717 345.18H367.941H383.164V350.784V356.375L369.047 356.418L354.917 356.461L353.91 356.791C350.101 358.07 347.47 360.715 346.205 364.509C345.875 365.5 345.86 365.658 345.788 372.757L345.716 379.986L344.825 380.316C339.909 382.17 337.422 387.674 339.276 392.603C340.326 395.434 342.899 397.676 345.932 398.438C347.269 398.768 349.842 398.653 351.107 398.208C353.623 397.317 355.42 395.736 356.584 393.394C359.042 388.421 356.613 382.213 351.467 380.359L350.532 380.029V373.404C350.532 367.742 350.561 366.679 350.762 366.003C351.122 364.825 351.495 364.178 352.387 363.244C353.321 362.252 354.083 361.778 355.29 361.404C356.124 361.146 356.843 361.131 369.666 361.131H383.164V373.16C383.164 386.266 383.164 386.295 383.983 387.947C384.472 388.953 385.507 390.117 386.456 390.721C388.986 392.359 400.328 396.555 408.105 398.754C439.601 407.664 481.792 411.156 522.891 408.253C547.285 406.543 569.481 402.605 587.076 396.9C594.335 394.558 602.069 391.353 603.492 390.103C604.326 389.37 605.203 388.005 605.548 386.898C605.836 385.978 605.836 385.59 605.836 362.583C605.836 336.931 605.893 338.555 604.973 336.601C604.743 336.098 604.355 335.408 604.111 335.049L603.665 334.402L604.154 333.784C604.901 332.864 605.361 331.988 605.606 331.025C605.807 330.277 605.836 327.475 605.836 306.882C605.836 281.316 605.893 282.94 604.973 280.986C604.743 280.483 604.355 279.793 604.111 279.434L603.665 278.787L604.111 278.212L604.556 277.652L609.286 277.609C613.799 277.566 614.03 277.551 614.403 277.264C615.18 276.689 615.395 276.258 615.395 275.266C615.395 274.275 615.18 273.844 614.403 273.269C614.03 272.981 613.785 272.967 609.918 272.924L605.836 272.881V250.477C605.836 234.583 605.793 227.857 605.678 227.311C605.476 226.391 604.743 224.739 604.125 223.833L603.665 223.172L604.24 222.425C604.959 221.462 605.39 220.614 605.606 219.752L605.778 219.077H619.42H633.048L633.22 219.652C633.882 221.893 635.736 224.02 637.979 225.156C639.488 225.917 640.365 226.104 642.277 226.104C644.404 226.104 645.741 225.716 647.394 224.624C649.22 223.417 650.456 221.836 651.233 219.695C651.578 218.761 651.606 218.444 651.606 216.706C651.606 214.967 651.578 214.651 651.233 213.716C650.169 210.77 648.027 208.658 645.137 207.709C644.016 207.35 643.657 207.293 642.205 207.293C639.833 207.307 638.165 207.882 636.254 209.348C635.003 210.311 633.666 212.236 633.22 213.76L633.048 214.334H619.478H605.908V208.802V203.269L618.342 203.197L630.777 203.125L631.783 202.795C634.917 201.746 637.36 199.662 638.755 196.831C639.876 194.546 639.905 194.287 639.905 186.498V179.629L640.236 179.5C642.277 178.709 643.355 178.02 644.491 176.827C645.511 175.72 646.23 174.484 646.69 173.018C647.179 171.438 647.136 169.095 646.604 167.471C646.129 166.006 645.109 164.425 643.959 163.361C642.967 162.456 641.199 161.508 639.833 161.163C638.74 160.89 636.498 160.89 635.319 161.163C631.179 162.14 628.117 166.049 628.117 170.36C628.117 173.234 629.512 176.079 631.768 177.833C632.617 178.479 634.025 179.241 634.773 179.413L635.161 179.514V186.168C635.161 192.29 635.132 192.893 634.888 193.698C634.514 194.905 634.04 195.667 633.048 196.601C632.113 197.492 631.467 197.866 630.288 198.225C629.598 198.426 628.132 198.455 617.666 198.455H605.836V185.406C605.836 170.935 605.864 171.495 604.872 169.483C601.322 162.312 587.709 156.205 565.298 151.75C548.996 148.502 530.337 146.576 508.3 145.858C503.369 145.7 485.098 145.7 480.053 145.872ZM512.613 150.729C527.649 151.448 538.617 152.396 549.988 153.992C568.201 156.535 582.72 160.257 591.748 164.698C596.707 167.126 599.539 169.397 600.704 171.84C601.077 172.659 601.121 172.86 601.063 173.795C601.006 174.571 600.891 175.016 600.589 175.576C596.808 182.518 578.135 189.099 551.21 192.979C532.637 195.667 512.526 196.888 490.403 196.687C479.765 196.587 474.231 196.385 465.031 195.796C427.813 193.353 398.344 186.196 389.877 177.56C387.534 175.16 387.261 172.961 389.043 170.561C391.818 166.796 399.451 162.959 410.405 159.797C427.856 154.768 452.093 151.563 480.125 150.6C484.782 150.442 508.487 150.543 512.613 150.729ZM639.574 166.092C640.868 166.767 641.716 167.773 642.119 169.138C642.421 170.144 642.406 170.633 642.061 171.768C641.702 172.904 640.782 174.01 639.704 174.556C639.143 174.844 638.697 174.944 637.792 175.002C636.714 175.059 636.541 175.03 635.707 174.642C634.586 174.111 633.795 173.335 633.307 172.3C632.803 171.222 632.775 169.555 633.264 168.492C633.81 167.299 635.017 166.236 636.311 165.819C636.987 165.589 638.927 165.761 639.574 166.092ZM389.086 183.164C391.171 184.774 395.052 186.858 398.905 188.438C414.142 194.69 440.061 199.231 469.703 200.826C484.638 201.616 501.817 201.674 516.422 200.97C548.522 199.403 575.216 194.747 591.245 187.935C594.695 186.47 598.461 184.357 600.33 182.848C600.661 182.575 600.962 182.359 601.006 182.359C601.049 182.359 601.092 190.493 601.092 200.423V218.502L600.761 219.077C600.387 219.738 599.87 220.025 596.521 221.448C576.941 229.783 547.688 235.402 514.913 237.112C502.823 237.744 486.234 237.744 474.159 237.112C447.522 235.718 423.601 231.838 404.511 225.831C398.488 223.934 389.676 220.456 388.713 219.608C388.569 219.479 388.325 219.105 388.181 218.789C387.922 218.243 387.908 217.381 387.908 200.28C387.908 190.421 387.936 182.359 387.98 182.359C388.023 182.359 388.511 182.719 389.086 183.164ZM644.117 212.437C645.181 212.926 646 213.702 646.474 214.665C646.819 215.369 646.877 215.656 646.877 216.706C646.877 217.755 646.819 218.042 646.474 218.746C645.066 221.635 641.17 222.281 638.899 220.011C636.857 217.97 637.145 214.521 639.488 212.883C640.911 211.906 642.593 211.733 644.117 212.437ZM393.054 226.779C412.173 234.439 439.242 239.684 469.199 241.567C487.485 242.702 507.567 242.573 525.191 241.208C553.266 239.009 577.847 234.022 595.845 226.837L599.295 225.472L599.769 226.003C600.042 226.305 600.431 226.866 600.632 227.268C600.962 227.886 601.02 228.159 601.02 229.208C601.02 230.257 600.962 230.53 600.632 231.148C598.159 235.819 588.643 240.489 574.066 244.211C560.151 247.746 541.636 250.362 521.885 251.555C510.945 252.216 502.967 252.402 490.547 252.302C480.93 252.216 478.184 252.144 470.924 251.77C430.803 249.686 398.56 242.271 389.805 233.117C387.965 231.191 387.448 229.309 388.253 227.541C388.655 226.679 389.475 225.486 389.676 225.472C389.733 225.472 391.257 226.061 393.054 226.779ZM389.503 239.095C400.946 247.373 429.337 253.811 464.599 256.139C474.087 256.771 479.205 256.944 490.618 257.044C515.847 257.245 537.927 255.708 558.182 252.331C577.703 249.083 593.013 244.111 599.913 238.779C600.488 238.333 600.991 237.974 601.02 237.974C601.063 237.974 601.077 246.166 601.063 256.182L601.02 274.404L600.689 274.878C600.316 275.396 599.252 275.942 595.744 277.408C576.424 285.441 548.119 290.887 516.566 292.655C503.211 293.388 487.226 293.417 473.728 292.727C443.698 291.16 415.695 286.073 396.533 278.687C392.076 276.962 389.043 275.597 388.598 275.094C387.879 274.303 387.908 275.065 387.908 255.851C387.908 238.391 387.908 237.945 388.181 238.132C388.325 238.247 388.928 238.678 389.503 239.095ZM391.156 281.647C396.332 283.889 405.302 286.835 412.849 288.789C430.43 293.316 451.345 296.305 473.728 297.469C487.053 298.159 503.226 298.13 516.566 297.397C548.119 295.658 576.496 290.298 596.075 282.394L599.295 281.086L599.741 281.589C600.574 282.523 600.991 283.486 601.063 284.636C601.121 285.628 601.092 285.757 600.617 286.734C596.779 294.451 573.65 301.838 542.082 305.43C525.435 307.327 510.442 308.06 490.906 307.917C480.57 307.845 477.896 307.773 470.493 307.385C449.764 306.293 430.228 303.663 415.508 299.984C407.444 297.972 402.01 296.089 396.993 293.575C392.91 291.548 390.553 289.853 389.072 287.884C387.778 286.159 387.548 284.679 388.31 283.055C388.698 282.207 389.532 281.086 389.762 281.086C389.82 281.086 390.452 281.331 391.156 281.647ZM390.495 295.414C392.048 296.463 395.771 298.374 398.358 299.467C413.337 305.775 439.313 310.403 469.128 312.055C477.25 312.501 479.966 312.573 490.762 312.659C502.018 312.745 508.616 312.63 517.141 312.199C544.755 310.805 568.288 307.141 584.632 301.708C591 299.582 596.621 296.894 600.042 294.322L601.02 293.575L601.063 311.653C601.092 328.883 601.077 329.731 600.833 330.22C600.474 330.895 600.157 331.111 598.073 332.045C568.719 345.151 516.523 351.446 466.54 347.896C436.079 345.74 409.355 340.136 391.142 332.103C388.928 331.125 388.569 330.867 388.181 330.019C387.922 329.473 387.908 328.639 387.908 311.509V293.56L388.598 294.078C388.971 294.365 389.82 294.969 390.495 295.414ZM391.516 337.42C401.909 341.774 415.867 345.625 430.89 348.327C472.031 355.699 523.221 355.34 563.113 347.393C576.438 344.749 589.52 340.941 598.001 337.247L599.295 336.687L599.769 337.218C600.531 338.109 601.006 339.23 601.063 340.323C601.121 341.156 601.063 341.415 600.704 342.191C597.642 348.686 581.053 355.024 556.672 359.033C542.283 361.404 526.628 362.827 508.516 363.431C502.981 363.618 486.09 363.618 480.412 363.431C459.626 362.755 441.455 360.887 425.139 357.754C408.004 354.463 395.225 349.707 390.193 344.749C387.951 342.55 387.361 340.711 388.253 338.771C388.583 338.038 389.532 336.701 389.719 336.701C389.748 336.701 390.567 337.032 391.516 337.42ZM345.4 338.612C346.406 339.072 347.298 339.963 347.772 340.998C348.563 342.694 348.16 344.821 346.795 346.186C345.846 347.134 344.811 347.551 343.416 347.537C342.453 347.537 342.137 347.465 341.519 347.149C340.441 346.603 339.866 346.028 339.334 345.051C337.249 341.127 341.361 336.759 345.4 338.612ZM389.848 350.612C402.283 359.321 433.578 365.917 471.499 367.814C484.955 368.489 502.636 368.518 516.063 367.886C555.451 366.032 587.45 359.249 599.87 350.08L601.02 349.232L601.063 367.268C601.092 383.751 601.077 385.346 600.862 385.792C600.531 386.481 600.014 386.826 598.044 387.703C578.336 396.354 549.054 402.16 515.991 403.956C508.688 404.344 504.491 404.445 494.572 404.445C482.195 404.445 474.806 404.186 464.312 403.381C434.756 401.096 409.111 395.607 391.156 387.732C388.971 386.769 388.583 386.496 388.181 385.633C387.922 385.087 387.908 384.254 387.908 367.11V349.161L388.382 349.534C388.626 349.75 389.302 350.224 389.848 350.612ZM350.115 384.958C351.035 385.404 351.941 386.338 352.387 387.286C352.918 388.421 352.918 390.045 352.387 391.166C351.596 392.804 350.187 393.753 348.376 393.868C347.513 393.911 347.14 393.868 346.493 393.624C344.883 393.02 343.646 391.454 343.416 389.729C343.316 388.953 343.603 387.545 344.02 386.884C344.638 385.878 345.702 385.044 346.795 384.685C347.513 384.455 349.411 384.613 350.115 384.958Z" fill="#713DFF"/>
<path d="M571.422 209.664C570.602 210.081 570.2 210.497 569.812 211.317C569.38 212.222 569.366 213.242 569.769 214.119C570.157 214.981 570.545 215.384 571.407 215.786C573.262 216.663 575.547 215.671 576.079 213.745C576.496 212.265 575.964 210.799 574.685 209.894C573.865 209.333 572.284 209.218 571.422 209.664Z" fill="#713DFF"/>
<path d="M571.407 265.336C570.545 265.739 570.157 266.141 569.769 267.003C568.762 269.216 570.415 271.746 572.845 271.746C574.239 271.746 575.677 270.725 576.051 269.504C576.927 266.558 574.124 264.043 571.407 265.336Z" fill="#713DFF"/>
<path d="M571.623 320.836C569.912 321.583 569.107 323.308 569.639 325.075C569.854 325.822 570.688 326.757 571.393 327.087C572.169 327.432 573.52 327.432 574.282 327.087C575.964 326.325 576.697 324.256 575.878 322.546C575.691 322.143 575.389 321.684 575.202 321.511C574.296 320.692 572.672 320.376 571.623 320.836Z" fill="#713DFF"/>
<path d="M571.723 376.422C570.89 376.724 570.243 377.299 569.84 378.118C569.208 379.397 569.38 380.834 570.3 381.854C571.005 382.63 571.766 382.975 572.845 382.975C573.923 382.975 574.685 382.63 575.389 381.854C576.28 380.862 576.481 379.425 575.878 378.146C575.173 376.623 573.319 375.861 571.723 376.422Z" fill="#713DFF"/>
<path d="M304.1 241.711C295.691 242.573 288.475 245.979 282.609 251.842C277.176 257.245 273.769 264.1 272.676 271.817C272.346 274.102 272.346 278.945 272.676 281.13C273.251 285.024 274.315 288.516 275.925 291.793C277.679 295.371 279.778 298.317 282.609 301.134C288.187 306.71 294.929 310.029 302.95 311.136C304.69 311.38 309.807 311.38 311.504 311.15C319.511 310.029 326.051 306.896 331.614 301.493C337.825 295.472 341.433 287.711 342.123 278.888L342.223 277.638H344.84C347.068 277.638 347.528 277.594 348.031 277.365C349.77 276.574 349.799 274.074 348.088 273.211C347.499 272.924 347.269 272.895 344.753 272.895H342.065L341.979 272.421C341.936 272.177 341.835 271.501 341.749 270.955C340.081 259.861 332.65 249.916 322.314 244.973C319.108 243.435 315.342 242.329 311.719 241.854C310.066 241.639 305.61 241.553 304.1 241.711ZM312.222 246.74C318.447 247.804 323.708 250.463 328.236 254.86C333.052 259.53 335.941 265.063 337.12 271.817C337.494 274.002 337.465 279.29 337.048 281.518C335.51 289.953 330.824 297.081 323.766 301.723C313.775 308.305 300.751 308.276 290.674 301.637C281.618 295.673 276.356 285.024 277.204 274.361C278.369 259.617 289.553 248.077 304.244 246.467C306.142 246.252 310.224 246.396 312.222 246.74Z" fill="#FDE565"/>
<path d="M304.532 251.928C300.564 252.374 296.295 253.998 293.075 256.268C291.508 257.375 288.963 259.803 287.784 261.327C281.948 268.843 280.927 279.089 285.183 287.525C286.519 290.169 287.957 292.109 290.257 294.308C292.155 296.147 293.808 297.325 296.021 298.461C307.752 304.425 321.911 300.3 328.624 288.962C332.405 282.552 333.023 274.39 330.249 267.391C326.166 257.059 315.557 250.678 304.532 251.928ZM311.317 256.944C315.169 257.748 318.533 259.574 321.365 262.405C329.214 270.237 329.214 282.739 321.365 290.571C318.519 293.417 315.212 295.199 311.245 296.061C309.16 296.506 305.365 296.506 303.353 296.061C301.455 295.644 300.032 295.155 298.451 294.365C296.582 293.417 295.705 292.813 293.491 290.93C292.888 290.428 291.22 288.372 290.559 287.338C289.164 285.182 288.244 282.912 287.684 280.325C287.253 278.241 287.253 274.735 287.684 272.651C289.524 264.072 296.165 257.878 304.833 256.656C306.285 256.455 309.721 256.599 311.317 256.944Z" fill="#FDE565"/>
<path d="M305.797 263.856L305.753 265.595L304.877 265.911C304.402 266.083 303.784 266.371 303.497 266.543C302.706 267.032 301.671 268.225 301.254 269.13C300.909 269.863 300.866 270.122 300.866 271.53C300.866 272.981 300.895 273.168 301.254 273.858C301.484 274.275 301.872 274.85 302.117 275.137C302.749 275.856 304.417 276.933 305.782 277.494C308.226 278.5 309.347 279.233 309.793 280.095C309.894 280.311 309.994 280.842 309.994 281.273C309.994 283.3 307.924 284.377 305.063 283.817C304.129 283.63 302.648 283.027 301.958 282.524L301.542 282.236L301.312 282.84C301.182 283.185 300.923 283.903 300.722 284.449C300.521 284.981 300.363 285.484 300.363 285.556C300.363 285.973 303.238 287.122 304.79 287.338L305.538 287.438V289.149V290.859H307.191H308.83L308.873 289.048L308.916 287.223L309.491 287.05C312.481 286.159 314.407 283.386 314.105 280.397C313.832 277.824 312.495 276.229 309.275 274.735C306.501 273.441 305.998 273.154 305.452 272.593C304.992 272.134 304.905 271.932 304.848 271.286C304.776 270.323 305.178 269.662 306.113 269.188C307.364 268.555 309.894 268.843 311.561 269.806C311.906 270.007 312.237 270.122 312.294 270.064C312.352 270.007 312.668 269.259 312.984 268.397L313.559 266.86L312.539 266.357C311.964 266.098 310.943 265.753 310.253 265.624L308.988 265.379V263.741V262.117H307.407H305.84L305.797 263.856Z" fill="#66D1FF"/>
<path d="M674.549 242.199C664.343 243.665 655.89 250.692 652.656 260.393C651.563 263.655 651.06 267.65 651.391 270.409C651.491 271.271 651.606 272.162 651.65 272.421L651.721 272.881L646.403 272.924C641.285 272.967 641.055 272.981 640.681 273.269C639.905 273.844 639.689 274.275 639.689 275.266C639.689 276.258 639.905 276.689 640.681 277.264C641.069 277.551 641.242 277.566 646.59 277.566H652.095L652.555 277.235C652.8 277.048 653.03 276.919 653.044 276.948C653.058 276.962 653.288 277.508 653.547 278.141C656.753 285.728 664.616 296.966 674.506 308.075C675.642 309.354 676.749 310.518 676.95 310.647C677.151 310.777 677.683 310.92 678.129 310.949C679.192 311.021 679.494 310.805 681.493 308.607C689.341 299.941 696.931 289.666 700.856 282.38C702.164 279.951 703.228 277.566 703.947 275.425C704.795 272.881 705.025 271.731 705.125 269.446C705.542 259.617 699.864 249.888 690.937 245.131C688.565 243.866 685.575 242.846 682.815 242.343C681.047 242.027 676.361 241.941 674.549 242.199ZM682.944 247.243C687.329 248.235 690.707 250.103 693.898 253.279C697.909 257.289 700.123 262.275 700.382 267.866C700.482 270.15 700.295 271.271 699.404 273.973C698.815 275.755 697.233 279.147 695.94 281.431C692.662 287.237 687.099 294.811 680.515 302.485L678.244 305.129L677.87 304.683C677.669 304.439 676.648 303.261 675.599 302.039C663.754 288.286 656.638 276.445 656.063 269.604C656.005 268.986 656.048 267.722 656.149 266.773C656.566 262.706 657.96 259.099 660.462 255.622C661.367 254.357 663.912 251.857 665.306 250.865C667.721 249.155 670.912 247.761 673.816 247.186C675.829 246.769 675.958 246.769 678.718 246.812C680.846 246.841 681.493 246.913 682.944 247.243Z" fill="#FDE565"/>
<path d="M675.541 252.719C668.037 254.07 662.762 261.054 663.495 268.67C664.084 274.921 668.368 279.994 674.477 281.661C676.202 282.136 679.336 282.222 681.162 281.834C684.756 281.086 687.889 279.118 690.103 276.2C691.095 274.907 692.173 272.651 692.619 270.955C692.95 269.705 692.993 269.231 692.993 267.291C692.993 265.351 692.95 264.876 692.619 263.669C691.095 257.921 686.538 253.71 680.745 252.704C679.279 252.446 677.007 252.446 675.541 252.719ZM680.371 257.518C685 258.553 688.249 262.62 688.234 267.362C688.206 274.763 680.4 279.563 673.773 276.244C669.159 273.93 667.017 268.44 668.9 263.698C669.964 261.039 672.22 258.826 674.866 257.863C676.432 257.289 678.718 257.145 680.371 257.518Z" fill="#66D1FF"/>
<path d="M355.779 273.096C355.175 273.355 354.586 274.088 354.471 274.706C354.27 275.755 354.615 276.632 355.477 277.264C355.865 277.551 356.038 277.566 361.385 277.566C366.733 277.566 366.905 277.551 367.294 277.264C368.07 276.689 368.285 276.258 368.285 275.266C368.285 274.275 368.07 273.844 367.294 273.269C366.92 272.981 366.704 272.967 361.558 272.938C357.331 272.91 356.124 272.938 355.779 273.096Z" fill="#FDE565"/>
<path d="M622.008 273.096C621.404 273.355 620.815 274.088 620.7 274.706C620.499 275.755 620.844 276.632 621.706 277.264C622.08 277.551 622.31 277.566 627.298 277.609C631.826 277.638 632.588 277.623 633.12 277.408C634.946 276.718 635.061 274.102 633.293 273.211C632.674 272.895 632.559 272.895 627.542 272.895C623.632 272.91 622.339 272.953 622.008 273.096Z" fill="#FDE565"/>
<path d="M503.916 411.673C503.384 411.875 502.852 412.378 502.608 412.924C502.363 413.455 502.334 413.944 502.334 418.471C502.334 422.997 502.363 423.486 502.608 424.018C503.254 425.441 504.98 425.8 506.173 424.751C507.064 423.96 507.078 423.888 507.078 418.471C507.078 413.154 507.064 412.995 506.273 412.263C505.612 411.659 504.635 411.415 503.916 411.673Z" fill="#EF5DA8"/>
<path d="M503.915 430.212C503.384 430.413 502.852 430.916 502.607 431.462C502.392 431.936 502.334 432.41 502.334 433.919V435.787L501.457 436.06C499.416 436.693 497.159 438.719 496.138 440.831C495.837 441.464 495.578 442.096 495.578 442.225C495.578 442.441 495.319 442.47 493.134 442.47C490.374 442.47 490.015 442.556 489.296 443.375C488.246 444.568 488.606 446.292 490.029 446.939C490.532 447.169 490.992 447.212 493.019 447.212H495.405L495.722 448.146C496.426 450.273 498.295 452.371 500.394 453.406C501.917 454.153 502.981 454.397 504.634 454.397C506.302 454.397 507.337 454.153 508.947 453.363C511.074 452.328 513.044 450.029 513.691 447.83L513.877 447.226L516.508 447.183C519.369 447.14 519.513 447.097 520.203 446.192C520.864 445.286 520.576 443.663 519.613 442.93C519.11 442.542 519.067 442.542 516.465 442.47L513.82 442.398L513.475 441.564C512.44 438.992 510.427 436.995 508.012 436.118L507.078 435.787V433.948C507.078 431.936 506.949 431.447 506.273 430.801C505.612 430.197 504.634 429.953 503.915 430.212ZM506.69 440.803C508.875 441.866 509.91 444.64 508.918 446.81C508.429 447.888 507.825 448.52 506.762 449.095C505.957 449.526 505.727 449.569 504.706 449.583C503.685 449.583 503.441 449.526 502.579 449.109C499.488 447.586 499.085 443.303 501.86 441.248C502.823 440.544 503.628 440.314 504.879 440.372C505.626 440.4 506.115 440.515 506.69 440.803Z" fill="#EF5DA8"/>
<path d="M380.002 442.728C379.082 443.231 378.564 444.338 378.765 445.416C378.895 446.091 379.613 446.882 380.26 447.068C380.605 447.169 382.517 447.212 385.78 447.183C390.553 447.14 390.783 447.126 391.157 446.839C391.775 446.393 392.091 445.876 392.177 445.229C392.292 444.395 391.904 443.433 391.243 442.93L390.74 442.542L385.622 442.499C380.85 442.47 380.476 442.484 380.002 442.728Z" fill="#EF5DA8"/>
<path d="M398.474 442.671C397.856 442.93 397.137 443.806 397.022 444.41C396.821 445.531 397.396 446.594 398.431 446.982C398.962 447.198 399.71 447.212 404.109 447.183C408.953 447.14 409.183 447.126 409.557 446.838C411.038 445.732 410.923 443.591 409.327 442.786C408.709 442.47 408.594 442.47 403.793 442.47C400.084 442.484 398.804 442.527 398.474 442.671Z" fill="#EF5DA8"/>
<path d="M416.658 442.743C415.35 443.433 414.976 445.258 415.896 446.364C416.601 447.198 416.744 447.212 422.15 447.212C426.649 447.212 427.138 447.183 427.67 446.939C429.093 446.292 429.452 444.568 428.403 443.375C427.612 442.484 427.54 442.47 422.092 442.47C417.564 442.47 417.118 442.499 416.658 442.743Z" fill="#EF5DA8"/>
<path d="M435.13 442.671C434.512 442.944 433.794 443.806 433.679 444.41C433.477 445.531 434.052 446.594 435.087 446.982C435.619 447.198 436.367 447.212 440.765 447.183C445.61 447.14 445.84 447.126 446.214 446.838C446.832 446.393 447.148 445.876 447.234 445.229C447.349 444.395 446.961 443.433 446.3 442.93L445.797 442.542L440.679 442.513C436.669 442.484 435.461 442.513 435.13 442.671Z" fill="#EF5DA8"/>
<path d="M453.315 442.743C452.007 443.433 451.633 445.258 452.553 446.364C453.257 447.198 453.401 447.212 458.806 447.212C463.306 447.212 463.794 447.183 464.326 446.939C465.75 446.292 466.109 444.568 465.059 443.375C464.269 442.484 464.197 442.47 458.749 442.47C454.221 442.47 453.775 442.499 453.315 442.743Z" fill="#EF5DA8"/>
<path d="M471.715 442.728C470.795 443.231 470.277 444.338 470.479 445.416C470.608 446.091 471.327 446.882 471.974 447.068C472.319 447.169 474.231 447.212 477.494 447.183C482.266 447.14 482.496 447.126 482.87 446.839C483.488 446.393 483.805 445.876 483.891 445.229C484.006 444.395 483.618 443.433 482.956 442.93L482.453 442.542L477.336 442.499C472.563 442.47 472.189 442.484 471.715 442.728Z" fill="#EF5DA8"/>
<path d="M526.844 442.671C526.226 442.944 525.507 443.806 525.392 444.41C525.191 445.531 525.766 446.594 526.801 446.982C527.333 447.198 528.081 447.212 532.479 447.183C537.324 447.14 537.554 447.126 537.928 446.838C538.546 446.393 538.862 445.876 538.948 445.229C539.063 444.395 538.675 443.433 538.014 442.93L537.511 442.542L532.393 442.513C528.382 442.484 527.175 442.513 526.844 442.671Z" fill="#EF5DA8"/>
<path d="M545.029 442.743C543.721 443.433 543.347 445.258 544.267 446.364C544.971 447.198 545.115 447.212 550.52 447.212C555.02 447.212 555.508 447.183 556.04 446.939C557.463 446.292 557.823 444.568 556.773 443.375C555.983 442.484 555.911 442.47 550.463 442.47C545.934 442.47 545.489 442.499 545.029 442.743Z" fill="#EF5DA8"/>
<path d="M563.501 442.671C562.883 442.944 562.164 443.806 562.049 444.41C561.848 445.531 562.423 446.594 563.458 446.982C563.99 447.198 564.737 447.212 569.136 447.183C573.981 447.14 574.211 447.126 574.584 446.838C575.202 446.393 575.519 445.876 575.605 445.229C575.72 444.395 575.332 443.433 574.671 442.93L574.167 442.542L569.05 442.513C565.039 442.484 563.832 442.513 563.501 442.671Z" fill="#EF5DA8"/>
<path d="M581.685 442.786C580.09 443.591 579.975 445.732 581.455 446.838C581.829 447.126 582.059 447.14 586.904 447.183C591.302 447.212 592.05 447.198 592.582 446.982C594.077 446.422 594.508 444.597 593.43 443.375C592.639 442.484 592.567 442.47 587.177 442.47C582.433 442.47 582.303 442.47 581.685 442.786Z" fill="#EF5DA8"/>
<path d="M600.086 442.728C599.166 443.231 598.648 444.338 598.849 445.416C598.979 446.091 599.697 446.882 600.344 447.068C600.689 447.169 602.601 447.212 605.864 447.183C610.637 447.14 610.867 447.126 611.241 446.839C611.859 446.393 612.175 445.876 612.261 445.229C612.376 444.395 611.988 443.433 611.327 442.93L610.824 442.542L605.706 442.499C600.934 442.47 600.56 442.484 600.086 442.728Z" fill="#EF5DA8"/>
<path d="M618.558 442.671C617.94 442.93 617.221 443.806 617.106 444.41C616.905 445.531 617.48 446.594 618.515 446.982C619.046 447.198 619.794 447.212 624.193 447.183C629.037 447.14 629.267 447.126 629.641 446.838C631.122 445.732 631.007 443.591 629.411 442.786C628.793 442.47 628.678 442.47 623.876 442.47C620.168 442.484 618.888 442.527 618.558 442.671Z" fill="#EF5DA8"/>
<path d="M371.017 443.246C369.608 443.691 367.768 444.898 366.719 446.077C365.31 447.643 364.246 449.986 364.102 451.811C364.045 452.601 364.074 452.831 364.361 453.32C365.554 455.346 368.3 454.685 368.803 452.256C369.177 450.374 370.485 448.678 372.196 447.816C373.202 447.298 373.763 446.695 373.906 445.976C374.251 444.137 372.728 442.7 371.017 443.246Z" fill="#EF5DA8"/>
<path d="M637.015 443.188C635.923 443.519 635.233 444.525 635.333 445.646C635.434 446.594 635.923 447.212 637.058 447.744C638.884 448.621 640.135 450.201 640.537 452.141C640.638 452.644 640.825 453.234 640.954 453.478C641.227 454.01 642.162 454.541 642.837 454.541C643.915 454.541 645.123 453.593 645.31 452.601C645.597 451.035 644.347 447.916 642.694 446.077C641.084 444.281 638.223 442.815 637.015 443.188Z" fill="#EF5DA8"/>
<path d="M365.252 459.542C364.232 460.031 363.987 460.548 363.901 462.373L363.829 463.94L362.392 464.127C356.153 464.888 350.216 467.762 345.53 472.289C339.636 477.951 336.416 485.525 336.43 493.745C336.43 497.035 336.718 499.249 337.551 502.18C340.527 512.656 349.382 520.891 360.092 523.133C365.727 524.311 371.578 523.894 376.796 521.94C378.851 521.164 381.209 519.971 382.934 518.822C393.14 512.024 398.186 499.795 395.728 487.795C393.687 477.807 386.729 469.587 377.141 465.822C375.43 465.161 372.44 464.4 370.658 464.17C369.91 464.069 369.148 463.968 368.976 463.94C368.688 463.882 368.674 463.796 368.616 462.316C368.573 460.62 368.444 460.29 367.61 459.672C367.064 459.269 365.986 459.212 365.252 459.542ZM361.874 468.725C361.759 468.869 361.299 469.429 360.825 469.99C359.718 471.326 357.662 474.402 356.771 476.069C356.139 477.276 356.038 477.391 355.722 477.319C354.586 477.046 350.159 475.034 349.699 474.603C349.54 474.445 349.67 474.287 350.417 473.697C353.35 471.355 357.059 469.587 360.652 468.768C362.133 468.438 362.104 468.438 361.874 468.725ZM375.258 469.731C377.083 470.407 379.139 471.456 380.605 472.447C381.913 473.338 383.164 474.344 383.164 474.502C383.164 474.617 380.26 476.083 379.196 476.5L378.463 476.802L377.773 475.551C376.853 473.899 375.33 471.628 374.165 470.191C373.116 468.898 373.058 468.926 375.258 469.731ZM368.516 470.306C370.614 472.519 372.081 474.402 373.446 476.672C374.409 478.267 374.553 478.095 371.822 478.569C370.313 478.842 369.436 478.885 366.489 478.9C363.053 478.9 360.451 478.684 360.451 478.382C360.451 478.095 362.291 475.192 363.398 473.726C364.735 471.973 367.136 469.343 367.409 469.343C367.509 469.343 368.013 469.774 368.516 470.306ZM349.584 479.403C351.294 480.25 351.999 480.552 354.069 481.285C354.37 481.4 354.37 481.4 353.91 482.952C353.278 485.022 352.746 487.594 352.545 489.534C352.444 490.396 352.344 491.258 352.315 491.431L352.257 491.761H346.493H340.714L340.815 490.856C341.275 486.66 343.23 481.788 345.745 478.497L346.378 477.678L346.982 478.052C347.312 478.253 348.477 478.857 349.584 479.403ZM387.146 478.727C389.777 482.42 391.487 486.775 391.875 490.784L391.976 491.761H387.29H382.589L382.531 491.431C382.503 491.258 382.402 490.439 382.316 489.606C382.1 487.565 381.554 484.993 380.921 482.995C380.203 480.696 380.188 480.739 381.195 480.337C382.273 479.891 385.018 478.497 385.708 478.052C386.01 477.851 386.283 477.692 386.327 477.692C386.37 477.692 386.729 478.152 387.146 478.727ZM376.738 483.929C377.515 486.401 378.42 491.215 378.176 491.646C378.09 491.805 356.742 491.79 356.656 491.646C356.555 491.474 356.958 488.499 357.303 486.919C357.461 486.186 357.806 484.921 358.051 484.116C358.597 482.392 358.324 482.492 361.098 482.938C363.7 483.34 369.263 483.311 372.023 482.866C373.13 482.694 374.395 482.464 374.826 482.349C376.149 482.018 376.12 481.989 376.738 483.929ZM352.329 496.892C352.588 499.895 353.105 502.726 353.767 504.925C353.968 505.572 354.126 506.161 354.126 506.233C354.126 506.319 353.853 506.448 353.522 506.549C352.358 506.908 349.44 508.23 347.916 509.093L346.363 509.969L345.803 509.236C344.365 507.354 342.885 504.566 342.08 502.238C341.591 500.844 340.973 498.156 340.829 496.82L340.728 495.929H346.478H352.229L352.329 496.892ZM378.205 496.073C378.32 496.259 378.032 498.846 377.687 500.657C377.428 501.95 376.48 505.385 376.336 505.543C376.307 505.557 375.445 505.414 374.424 505.212C369.508 504.221 364.677 504.135 359.819 504.925C358.669 505.112 358.381 505.126 358.295 504.968C357.878 504.307 356.843 499.378 356.642 497.035L356.541 495.929H367.323C374.28 495.929 378.147 495.986 378.205 496.073ZM391.933 496.303C391.933 497.582 391.157 500.944 390.423 502.87C389.46 505.356 387.017 509.581 386.413 509.811C386.312 509.854 385.536 509.495 384.688 509.021C383.84 508.561 382.589 507.929 381.899 507.641C381.209 507.354 380.605 507.066 380.548 507.009C380.49 506.966 380.634 506.319 380.864 505.572C381.655 503.057 382.215 500.125 382.517 496.892L382.618 495.929H387.275H391.933V496.303ZM370.701 508.949C373.274 509.265 374.568 509.581 374.467 509.854C374.424 509.984 373.978 510.745 373.504 511.55C372.282 513.591 370.643 515.732 368.918 517.543L367.452 519.08L366.518 518.175C365.281 516.953 363.513 514.826 362.478 513.332C361.501 511.909 360.164 509.596 360.164 509.351C360.164 508.992 364.663 508.59 367.639 508.69C368.386 508.719 369.766 508.834 370.701 508.949ZM356.57 511.837C357.504 513.648 359.172 516.249 360.422 517.801C360.911 518.419 361.314 518.951 361.314 518.98C361.314 519.095 359.531 518.635 358.022 518.117C355.477 517.269 352.703 515.761 350.36 513.921C349.9 513.562 349.526 513.231 349.526 513.174C349.526 513.001 352.056 511.737 353.867 511.018C354.83 510.63 355.664 510.314 355.707 510.3C355.75 510.3 356.139 510.989 356.57 511.837ZM381.266 512.11C382.301 512.613 383.164 513.088 383.164 513.159C383.164 513.576 379.599 515.962 377.486 516.982C376.206 517.586 374.108 518.405 374.108 518.275C374.108 518.247 374.438 517.772 374.855 517.241C375.876 515.89 377.241 513.763 378.061 512.268C378.65 511.162 378.78 511.018 379.053 511.104C379.211 511.148 380.217 511.607 381.266 512.11Z" fill="#EF5DA8"/>
<path d="M641.975 459.542C641.645 459.7 641.228 460.045 641.041 460.304L640.696 460.793V466.052V471.312L641.084 471.815C641.587 472.476 642.55 472.864 643.384 472.749C644.031 472.663 644.548 472.347 644.994 471.729C645.281 471.341 645.296 471.168 645.296 466.038C645.296 460.907 645.281 460.735 644.994 460.347C644.246 459.341 643.082 459.039 641.975 459.542Z" fill="#EF5DA8"/>
<path d="M650.499 463.509C650.197 463.624 649.824 463.825 649.651 463.983C648.961 464.601 648.961 464.644 648.961 470.996V476.96H640.767H632.573V483.355V489.75H625.372C617.278 489.75 617.494 489.721 616.79 490.799L616.401 491.388L616.358 506.333C616.33 514.568 616.358 521.624 616.401 522.041C616.516 522.946 616.948 523.621 617.652 523.981C618.155 524.254 618.917 524.254 643.125 524.254C665.895 524.254 668.109 524.239 668.569 524.024C668.842 523.894 669.173 523.664 669.302 523.521C669.963 522.802 669.935 523.823 669.949 493.917C669.949 473.841 669.906 465.52 669.791 465.104C669.59 464.385 668.871 463.667 668.152 463.465C667.246 463.221 651.218 463.264 650.499 463.509ZM665.176 493.802L665.205 519.497H659.455H653.705V493.773V468.05L659.426 468.078L665.133 468.122L665.176 493.802ZM648.817 500.599V519.497H643.168H637.504L637.418 500.714C637.375 490.382 637.375 481.874 637.404 481.817C637.447 481.745 640.034 481.702 643.154 481.702H648.817V500.599ZM632.573 506.994V519.497H626.895H621.217V506.994V494.492H626.895H632.573V506.994Z" fill="#EF5DA8"/>
<g filter="url(#filter1_f_232_933)">
<path d="M85.3595 408.883C179.543 323.045 199.075 264.212 321.818 252.229C470.172 237.747 561.63 314.403 702.06 265.844C789.066 235.758 859.064 200.048 902.024 141" stroke="#5B31C8" stroke-width="17"/>
</g>
<path d="M-228.191 0L-228.191 560.108M-165.357 0L-165.357 560.108M-102.524 0L-102.524 560.108M-39.6906 0L-39.6906 560.108M23.1427 0L23.1427 560.108M85.9761 0L85.976 560.108M148.809 0L148.809 560.108M211.643 0L211.643 560.108M274.476 0L274.476 560.108M337.31 0L337.31 560.108M400.143 0L400.143 560.108M462.976 0L462.976 560.108M525.81 0L525.81 560.108M588.643 0V560.108M651.477 0V560.108M714.31 0V560.108M777.143 0V560.108M839.977 0V560.108M902.81 0V560.108M965.643 0V560.108M1028.48 0V560.108M1091.31 0V560.108M1154.14 0V560.108M1216.98 0V560.108M1248 0.392914L-260 0.392782M1248 63.2381L-260 63.2381M1248 126.083L-260 126.083M1248 188.929L-260 188.929M1248 251.774L-260 251.774M1248 314.619L-260 314.619M1248 377.464L-260 377.464M1248 440.31L-260 440.309M1248 503.155L-260 503.155M1248 566L-260 566" stroke="url(#paint0_linear_232_933)" stroke-opacity="0.24"/>
</g>
<defs>
<filter id="filter0_f_232_933" x="233" y="-7" width="523" height="579.047" filterUnits="userSpaceOnUse" color-interpolation-filters="sRGB">
<feFlood flood-opacity="0" result="BackgroundImageFix"/>
<feBlend mode="normal" in="SourceGraphic" in2="BackgroundImageFix" result="shape"/>
<feGaussianBlur stdDeviation="16" result="effect1_foregroundBlur_232_933"/>
</filter>
<filter id="filter1_f_232_933" x="-93.3662" y="-37.0007" width="1175.26" height="625.166" filterUnits="userSpaceOnUse" color-interpolation-filters="sRGB">
<feFlood flood-opacity="0" result="BackgroundImageFix"/>
<feBlend mode="normal" in="SourceGraphic" in2="BackgroundImageFix" result="shape"/>
<feGaussianBlur stdDeviation="86.5" result="effect1_foregroundBlur_232_933"/>
</filter>
<linearGradient id="paint0_linear_232_933" x1="494" y1="0" x2="494" y2="566" gradientUnits="userSpaceOnUse">
<stop offset="0.442708" stop-color="#63557D"/>
<stop offset="1" stop-color="#63557D" stop-opacity="0"/>
</linearGradient>
<clipPath id="clip0_232_933">
<rect width="988" height="566" rx="16" fill="white"/>
</clipPath>
</defs>
</svg>
