<svg width="18" height="15" viewBox="0 0 18 15" fill="none" xmlns="http://www.w3.org/2000/svg">
<path d="M5.66082 14.6341C12.4536 14.6341 16.1683 9.0045 16.1683 4.12273C16.1683 3.96285 16.1651 3.80371 16.1579 3.64522C16.8807 3.12202 17.5045 2.47421 18 1.73217C17.3383 2.02646 16.6262 2.22454 15.8792 2.31384C16.6417 1.85649 17.227 1.13294 17.5032 0.27048C16.7783 0.70068 15.9852 1.00395 15.1582 1.16722C14.4843 0.44912 13.5248 0 12.4625 0C10.4231 0 8.7693 1.65446 8.7693 3.69384C8.7693 3.98378 8.8017 4.26571 8.8651 4.53622C5.79574 4.38172 3.07409 2.91165 1.25261 0.67632C0.92454 1.24011 0.75199 1.88087 0.75256 2.53317C0.75256 3.8149 1.40451 4.94638 2.39598 5.6084C1.80951 5.5904 1.23592 5.432 0.72344 5.1463C0.72289 5.1618 0.72289 5.1769 0.72289 5.1935C0.72289 6.9826 1.99584 8.4764 3.68565 8.8149C3.36828 8.9014 3.04079 8.9451 2.71185 8.9449C2.4743 8.9449 2.24279 8.9215 2.01779 8.8783C2.48795 10.3462 3.85127 11.4144 5.46765 11.4442C4.20366 12.4353 2.61143 13.0256 0.8809 13.0256C0.58652 13.0258 0.29237 13.0088 0 12.9744C1.63441 14.0224 3.57494 14.6341 5.66082 14.6341Z" fill="white"/>
</svg>
