<svg width="306" height="236" viewBox="0 0 306 236" fill="none" xmlns="http://www.w3.org/2000/svg">
<path d="M-146.795 0L-146.795 232.554M-120.712 0L-120.712 232.554M-94.6286 0L-94.6286 232.554M-68.5453 0L-68.5453 232.554M-42.462 0L-42.462 232.554M-16.3786 0L-16.3786 232.554M9.70471 0L9.70469 232.554M35.7881 0L35.7881 232.554M61.8715 0L61.8715 232.554M87.9548 0L87.9548 232.554M114.038 0L114.038 232.554M140.122 0L140.122 232.554M166.205 0L166.205 232.554M192.288 0V232.554M218.372 0V232.554M244.455 0V232.554M270.538 0V232.554M296.622 0V232.554M322.705 0V232.554M348.788 0V232.554M374.872 0V232.554M400.955 0V232.554M427.038 0V232.554M453.122 0V232.554M466 0.163136L-160 0.163081M466 26.2561L-160 26.2561M466 52.3491L-160 52.3491M466 78.4421L-160 78.4421M466 104.535L-160 104.535M466 130.628L-160 130.628M466 156.721L-160 156.721M466 182.814L-160 182.814M466 208.907L-160 208.907M466 235L-160 235" stroke="url(#paint0_linear_292_241)" stroke-opacity="0.24"/>
<defs>
<linearGradient id="paint0_linear_292_241" x1="153" y1="0" x2="153" y2="235" gradientUnits="userSpaceOnUse">
<stop offset="0.442708" stop-color="#63557D"/>
<stop offset="1" stop-color="#63557D" stop-opacity="0"/>
</linearGradient>
</defs>
</svg>
