<svg width="1920" height="739" viewBox="0 0 1920 739" fill="none" xmlns="http://www.w3.org/2000/svg">
<mask id="path-1-inside-1_91_2001" fill="white">
<path d="M1920 739L0 739L6.46054e-05 1.52537e-05L1920 0.000183105L1920 739Z"/>
</mask>
<path d="M1920 739L0 739L6.46054e-05 1.52537e-05L1920 0.000183105L1920 739Z" fill="url(#paint0_radial_91_2001)"/>
<path d="M1920 739L0 739L6.46054e-05 1.52537e-05L1920 0.000183105L1920 739Z" fill="url(#paint1_radial_91_2001)"/>
<path d="M6.4518e-05 1.00002L1920 1.00018L1920 -0.999817L6.46928e-05 -0.999985L6.4518e-05 1.00002Z" fill="url(#paint2_radial_91_2001)" mask="url(#path-1-inside-1_91_2001)"/>
<mask id="path-3-inside-2_91_2001" fill="white">
<path d="M1920 739L0 739L6.46054e-05 1.52537e-05L1920 0.000183105L1920 739Z"/>
</mask>
<path d="M1920 739L0 739L6.46054e-05 1.52537e-05L1920 0.000183105L1920 739Z" fill="url(#paint3_radial_91_2001)"/>
<path d="M1920 739L0 739L6.46054e-05 1.52537e-05L1920 0.000183105L1920 739Z" fill="url(#paint4_radial_91_2001)"/>
<path d="M6.4518e-05 1.00002L1920 1.00018L1920 -0.999817L6.46928e-05 -0.999985L6.4518e-05 1.00002Z" fill="url(#paint5_radial_91_2001)" mask="url(#path-3-inside-2_91_2001)"/>
<mask id="path-5-inside-3_91_2001" fill="white">
<path d="M1920 739L0 739L6.46054e-05 1.52537e-05L1920 0.000183105L1920 739Z"/>
</mask>
<path d="M1920 739L0 739L6.46054e-05 1.52537e-05L1920 0.000183105L1920 739Z" fill="url(#paint6_radial_91_2001)"/>
<path d="M1920 739L0 739L6.46054e-05 1.52537e-05L1920 0.000183105L1920 739Z" fill="url(#paint7_radial_91_2001)"/>
<path d="M6.4518e-05 1.00002L1920 1.00018L1920 -0.999817L6.46928e-05 -0.999985L6.4518e-05 1.00002Z" fill="url(#paint8_radial_91_2001)" mask="url(#path-5-inside-3_91_2001)"/>
<path d="M40.5 0L40.5 713.494M120.5 0L120.5 713.494M200.5 0L200.5 713.494M280.5 0L280.5 713.494M360.5 0L360.5 713.494M440.5 0L440.5 713.494M520.5 0L520.5 713.494M600.5 0L600.5 713.494M680.5 0L680.5 713.494M760.5 0L760.5 713.494M840.5 0L840.5 713.494M920.501 0L920.5 713.494M1000.5 0L1000.5 713.494M1080.5 0V713.494M1160.5 0V713.494M1240.5 0V713.494M1320.5 0V713.494M1400.5 0V713.494M1480.5 0V713.494M1560.5 0V713.494M1640.5 0V713.494M1720.5 0V713.494M1800.5 0V713.494M1880.5 0V713.494M1920 0.500514L7.39965e-08 0.500346M1920 80.556L2.51384e-09 80.556M1920 160.612L0 160.611M1920 240.667L0 240.667M1920 320.723L0 320.722M1920 400.778L0 400.778M1920 480.834L0 480.833M1920 560.889L0 560.889M1920 640.945L0 640.944M1920 721L0 721" stroke="url(#paint9_linear_91_2001)" stroke-opacity="0.24"/>
<defs>
<radialGradient id="paint0_radial_91_2001" cx="0" cy="0" r="1" gradientUnits="userSpaceOnUse" gradientTransform="translate(959.015 0.000280588) rotate(90) scale(739 949.169)">
<stop stop-color="#8566FF" stop-opacity="0.02"/>
<stop offset="1" stop-color="#8566FF" stop-opacity="0"/>
</radialGradient>
<radialGradient id="paint1_radial_91_2001" cx="0" cy="0" r="1" gradientUnits="userSpaceOnUse" gradientTransform="translate(959.015 0.000299636) rotate(90) scale(667 856.693)">
<stop stop-color="#8566FF" stop-opacity="0.02"/>
<stop offset="1" stop-color="#8566FF" stop-opacity="0"/>
</radialGradient>
<radialGradient id="paint2_radial_91_2001" cx="0" cy="0" r="1" gradientUnits="userSpaceOnUse" gradientTransform="translate(960 0.000156484) scale(792 961.401)">
<stop stop-color="#9586B1" stop-opacity="0.4"/>
<stop offset="1" stop-color="#9586B1" stop-opacity="0"/>
</radialGradient>
<radialGradient id="paint3_radial_91_2001" cx="0" cy="0" r="1" gradientUnits="userSpaceOnUse" gradientTransform="translate(959.015 0.000280588) rotate(90) scale(739 949.169)">
<stop stop-color="#8566FF" stop-opacity="0.02"/>
<stop offset="1" stop-color="#8566FF" stop-opacity="0"/>
</radialGradient>
<radialGradient id="paint4_radial_91_2001" cx="0" cy="0" r="1" gradientUnits="userSpaceOnUse" gradientTransform="translate(959.015 0.000299636) rotate(90) scale(667 856.693)">
<stop stop-color="#8566FF" stop-opacity="0.02"/>
<stop offset="1" stop-color="#8566FF" stop-opacity="0"/>
</radialGradient>
<radialGradient id="paint5_radial_91_2001" cx="0" cy="0" r="1" gradientUnits="userSpaceOnUse" gradientTransform="translate(960 0.000156484) scale(792 961.401)">
<stop stop-color="#9586B1" stop-opacity="0.4"/>
<stop offset="1" stop-color="#9586B1" stop-opacity="0"/>
</radialGradient>
<radialGradient id="paint6_radial_91_2001" cx="0" cy="0" r="1" gradientUnits="userSpaceOnUse" gradientTransform="translate(959.015 0.000280588) rotate(90) scale(739 949.169)">
<stop stop-color="#8566FF" stop-opacity="0.02"/>
<stop offset="1" stop-color="#8566FF" stop-opacity="0"/>
</radialGradient>
<radialGradient id="paint7_radial_91_2001" cx="0" cy="0" r="1" gradientUnits="userSpaceOnUse" gradientTransform="translate(959.015 0.000299636) rotate(90) scale(667 856.693)">
<stop stop-color="#8566FF" stop-opacity="0.02"/>
<stop offset="1" stop-color="#8566FF" stop-opacity="0"/>
</radialGradient>
<radialGradient id="paint8_radial_91_2001" cx="0" cy="0" r="1" gradientUnits="userSpaceOnUse" gradientTransform="translate(960 0.000156484) scale(792 961.401)">
<stop stop-color="#9586B1" stop-opacity="0.4"/>
<stop offset="1" stop-color="#9586B1" stop-opacity="0"/>
</radialGradient>
<linearGradient id="paint9_linear_91_2001" x1="960" y1="0" x2="960" y2="721" gradientUnits="userSpaceOnUse">
<stop offset="0.442708" stop-color="#63557D"/>
<stop offset="1" stop-color="#63557D" stop-opacity="0"/>
</linearGradient>
</defs>
</svg>
