<svg width="1680" height="455" viewBox="0 0 1680 455" fill="none" xmlns="http://www.w3.org/2000/svg">
<path d="M35.4375 0L35.4375 624.431M105.438 0L105.438 624.431M175.438 0L175.438 624.431M245.438 0L245.438 624.431M315.438 0L315.438 624.431M385.438 0L385.438 624.431M455.438 0L455.438 624.431M525.438 0L525.438 624.431M595.438 0L595.438 624.431M665.438 0L665.438 624.431M735.438 0L735.438 624.431M805.438 0L805.438 624.431M875.438 0L875.438 624.431M945.438 0V624.431M1015.44 0V624.431M1085.44 0V624.431M1155.44 0V624.431M1225.44 0V624.431M1295.44 0V624.431M1365.44 0V624.431M1435.44 0V624.431M1505.44 0V624.431M1575.44 0V624.431M1645.44 0V624.431M1680 0.438037L6.47469e-08 0.43789M1680 70.5005L2.19961e-09 70.5004M1680 140.563L0 140.563M1680 210.625L0 210.625M1680 280.688L0 280.688M1680 350.75L0 350.75M1680 420.813L0 420.813M1680 490.875L0 490.875M1680 560.938L0 560.938M1680 631L0 631" stroke="url(#paint0_linear_91_2101)" stroke-opacity="0.08"/>
<defs>
<linearGradient id="paint0_linear_91_2101" x1="840" y1="0" x2="840" y2="631" gradientUnits="userSpaceOnUse">
<stop offset="0.442708" stop-color="#63557D"/>
<stop offset="1" stop-color="#63557D" stop-opacity="0"/>
</linearGradient>
</defs>
</svg>
