<svg width="128" height="128" viewBox="0 0 128 128" fill="none" xmlns="http://www.w3.org/2000/svg">
<path d="M49.0671 58.8811C47.0631 58.8811 44.827 59.6529 44.3582 62.1936C44.3088 62.4643 44.487 62.5923 44.6597 62.6308L46.7131 62.8776C46.9027 62.8668 47.0323 62.6617 47.0685 62.4666C47.2443 61.5922 47.963 61.1797 48.7656 61.1797C49.1998 61.1797 49.6855 61.3285 49.9431 61.7271C50.2369 62.1713 50.216 62.775 50.216 63.2878V63.5893C48.9962 63.7296 47.3893 63.8144 46.2473 64.328C44.9296 64.914 44.002 66.1068 44.002 67.8595C44.002 70.1056 45.3783 71.226 47.1502 71.226C48.6461 71.226 49.4735 70.8744 50.627 69.6669C51.0102 70.2359 51.1328 70.4942 51.8314 71.0903C51.909 71.1342 51.9984 71.1525 52.087 71.1427C52.1756 71.1329 52.2589 71.0954 52.3249 71.0355V71.0625C52.7452 70.6793 53.5085 69.9823 53.9396 69.6121C54.1107 69.4679 54.0737 69.232 53.9396 69.0369C53.554 68.4918 53.1461 68.053 53.1461 67.0383V63.6718C53.1461 62.2453 53.2664 60.9298 52.2424 59.949C51.4359 59.1541 50.0904 58.8811 49.0671 58.8811ZM76.6608 58.8811C74.656 58.8811 72.4214 59.6529 71.9526 62.1936C71.9033 62.4643 72.0806 62.5923 72.2533 62.6308L74.3075 62.8776C74.4972 62.8668 74.6275 62.6617 74.6629 62.4666C74.8395 61.5922 75.5582 61.1797 76.3601 61.1797C76.795 61.1797 77.28 61.3285 77.5367 61.7271C77.8305 62.1713 77.7827 62.775 77.7827 63.2878V63.5893C76.5629 63.7296 74.9837 63.8144 73.841 64.328C72.5217 64.914 71.5971 66.1068 71.5971 67.8595C71.5971 70.1056 72.9735 71.226 74.7447 71.226C76.239 71.226 77.0664 70.8744 78.2214 69.6669C78.6031 70.2359 78.7273 70.4942 79.4266 71.0903C79.5041 71.1342 79.5934 71.1526 79.6819 71.1428C79.7703 71.1329 79.8535 71.0954 79.9194 71.0355V71.0625C80.3404 70.6793 81.1045 69.9823 81.5347 69.6121C81.7059 69.4679 81.6666 69.232 81.5347 69.0369C81.1492 68.4918 80.7405 68.053 80.7405 67.0383V63.6718C80.7405 62.2453 80.8331 60.9298 79.8106 59.949C79.001 59.1541 77.6832 58.8811 76.6608 58.8811ZM61.1391 58.9906C59.8437 58.9906 58.8845 59.6445 58.3748 61.044H58.347V59.5928C58.3404 59.4935 58.2979 59.4 58.2276 59.3295C58.1573 59.259 58.0639 59.2164 57.9646 59.2096H55.9929C55.8844 59.211 55.7806 59.2547 55.7039 59.3315C55.6271 59.4083 55.5833 59.512 55.5819 59.6206V70.7071C55.5917 70.8055 55.6353 70.8976 55.7053 70.9675C55.7753 71.0374 55.8675 71.0808 55.9659 71.0903H58.0733C58.1819 71.0893 58.2858 71.0456 58.3625 70.9688C58.4392 70.8919 58.4827 70.7879 58.4835 70.6793V64.7937C58.4835 63.5106 58.4218 61.7557 59.9347 61.7557C61.4282 61.7557 61.2208 63.5592 61.2208 64.7937V70.6793C61.2208 70.8883 61.392 71.0764 61.6048 71.0903H63.7121C63.9358 71.0903 64.1224 70.9029 64.1224 70.6793V64.7937C64.1224 64.1645 64.0969 63.2469 64.3136 62.6864C64.5303 62.1258 65.0623 61.7557 65.5735 61.7557C66.1819 61.7557 66.6484 61.9677 66.8057 62.7133C66.9028 63.1567 66.8604 64.328 66.8604 64.7937V70.6793C66.8604 70.8883 67.0316 71.0764 67.2429 71.0903H69.351C69.5746 71.0903 69.7612 70.9029 69.7612 70.6793V63.6718C69.7612 62.4805 69.88 61.1288 69.2138 60.195C68.6239 59.3561 67.66 58.9898 66.7772 58.9898C65.5396 58.9898 64.3861 59.6437 63.8756 61.0432C63.2865 59.6445 62.4553 58.9906 61.1391 58.9906ZM96.9724 58.9906C93.9275 58.9906 92.2365 61.6685 92.2365 65.1229C92.2365 68.5527 93.9074 71.3085 96.9724 71.3085C99.9202 71.3085 101.791 68.6159 101.791 65.2317C101.791 61.7333 100.096 58.9906 96.9724 58.9906ZM108.99 58.9906C107.535 58.9906 106.703 59.7177 106.115 61.2352H106.088V59.5381C106.05 59.3669 105.889 59.2474 105.705 59.2373H103.761C103.661 59.2351 103.563 59.2702 103.487 59.3359C103.411 59.4016 103.362 59.4931 103.35 59.5928V70.6793C103.35 70.8883 103.523 71.0764 103.733 71.0903H105.814C105.923 71.0885 106.026 71.0446 106.102 70.9678C106.179 70.8911 106.222 70.7876 106.224 70.6793V64.712C106.224 63.964 106.288 63.2816 106.581 62.6046C106.817 62.0672 107.274 61.7279 107.785 61.7279C109.237 61.7279 109.098 63.4975 109.098 64.712V70.7348C109.113 70.8289 109.158 70.9154 109.228 70.9801C109.298 71.0448 109.387 71.0839 109.482 71.0911H111.59C111.69 71.0911 111.786 71.0551 111.861 70.9896C111.937 70.9242 111.986 70.8337 112 70.7348V63.7543C112 62.681 112.002 61.1912 111.452 60.3045C110.863 59.3476 109.93 58.9906 108.99 58.9906ZM83.6961 59.1826C83.4817 59.1826 83.3128 59.3522 83.3121 59.5928V61.1804C83.3128 61.4195 83.4763 61.5899 83.6961 61.5914H87.3093L83.1756 67.6953C82.9242 68.0893 82.9026 68.5349 82.9026 68.7909V70.4063C82.9026 70.6392 83.1555 70.8921 83.3954 70.7618C85.7518 69.4757 88.5747 69.5898 90.7044 70.7348C90.9634 70.8759 91.2248 70.6115 91.2248 70.3786V68.6807C91.2188 68.5557 91.1803 68.4344 91.1131 68.3288C91.0459 68.2232 90.9523 68.1369 90.8416 68.0785C89.6326 67.3837 88.2292 67.1701 86.9007 67.2025L90.4861 61.9477C90.8177 61.475 91.0028 61.1912 91.0059 60.9615V59.5936C91.0059 59.3576 90.8447 59.1834 90.6234 59.1834H83.6961V59.1826ZM96.9724 61.263C97.6394 61.263 98.1321 61.5606 98.3688 62.3301C98.6418 63.2184 98.6703 64.3257 98.6703 65.2594C98.6703 66.6828 98.604 69.0369 96.9732 69.0369C95.3239 69.0369 95.3308 66.1223 95.3308 64.7667C95.33 63.415 95.421 61.263 96.9724 61.263ZM50.1891 65.3142V65.7799C50.1891 66.6219 50.2199 67.3298 49.8058 68.0785C49.4712 68.6876 48.9453 69.0647 48.3554 69.0647C47.5497 69.0647 47.0693 68.41 47.0693 67.4763C47.0685 65.6357 48.6685 65.3142 50.1891 65.3142ZM77.7827 65.3142V65.7799C77.7827 66.6219 77.8135 67.3298 77.4002 68.0785C77.0648 68.6876 76.5428 69.0647 75.9491 69.0647C75.1418 69.0647 74.6622 68.41 74.6622 67.4763C74.6622 65.6357 76.2606 65.3142 77.7827 65.3142Z" fill="white"/>
<path d="M91.4426 71.4456V73.034H92.5113V71.4456H91.4426ZM60.4824 71.7201V83.0255H61.4679V82.0124C61.6776 82.4141 61.9166 82.714 62.2065 82.9153C62.4965 83.1173 62.828 83.2168 63.1912 83.2168C63.9152 83.2168 64.5406 82.8474 65.0803 82.0949C65.6209 81.3415 65.9015 80.2505 65.9015 78.8648C65.9015 77.9565 65.7851 77.2039 65.5453 76.5663C65.3055 75.9294 64.9863 75.4551 64.5876 75.1421C64.1874 74.829 63.734 74.6494 63.2467 74.6494C62.8982 74.6494 62.5728 74.7404 62.2875 74.9223C62.0037 75.1043 61.774 75.4019 61.5488 75.7713V71.7201H60.4824ZM70.6105 74.3749C69.8687 74.3749 69.2781 74.5946 68.8594 75.0318C68.4407 75.469 68.2309 76.0311 68.2309 76.7297C68.2309 77.1345 68.3196 77.4792 68.4761 77.7969C68.6319 78.1153 68.854 78.3737 69.1331 78.5633C69.4138 78.753 69.9736 79.0029 70.8032 79.275C71.3777 79.4601 71.7208 79.6174 71.8712 79.7408C72.0879 79.9204 72.2004 80.1556 72.2004 80.4802C72.2004 80.855 72.0693 81.168 71.8164 81.4109C71.5635 81.6554 71.2104 81.7664 70.7485 81.7664C70.2859 81.7664 69.9049 81.6368 69.6266 81.3562C69.3475 81.0755 69.1971 80.6483 69.1331 80.07L68.0659 80.2882C68.3073 82.0447 69.1832 82.9176 70.6938 82.9161C71.4995 82.9161 72.1156 82.6886 72.5821 82.2044C73.0478 81.7201 73.2946 81.0701 73.2946 80.2882C73.2946 79.8657 73.219 79.5002 73.0756 79.1941C72.9434 78.906 72.7349 78.6596 72.4726 78.4816C72.2135 78.305 71.6329 78.0683 70.7485 77.7699C70.1054 77.5448 69.7299 77.3797 69.5996 77.2764C69.3806 77.1037 69.2703 76.8677 69.2703 76.5655C69.2703 76.2571 69.3729 75.9957 69.5996 75.7983C69.8263 75.6016 70.1756 75.4976 70.6398 75.4976C71.4556 75.4976 71.9121 75.9455 72.0077 76.8385L73.0486 76.6742C72.9761 76.1098 72.8535 75.6626 72.6662 75.3595C72.465 75.043 72.181 74.7875 71.845 74.6208C71.4864 74.442 71.0801 74.3749 70.6105 74.3749ZM77.1538 74.3749C76.2987 74.3749 75.5762 74.7272 75.0179 75.4698C74.4605 76.2123 74.1983 77.288 74.1983 78.6998C74.1983 80.06 74.4666 81.1256 75.0179 81.8481C75.5716 82.5683 76.2871 82.9153 77.1816 82.9153C77.8917 82.9153 78.4808 82.7025 78.9604 82.2583C79.4416 81.815 79.7909 81.1611 79.9729 80.2867L78.8779 80.0955C78.5641 81.2143 77.9835 81.7633 77.1816 81.7648C76.6696 81.7648 76.2517 81.5482 75.8946 81.0809C75.5369 80.6129 75.3349 79.9189 75.2932 79.0005H80.0006V78.6173C80.0006 77.2356 79.7253 76.1985 79.1794 75.469C78.6327 74.7404 77.9696 74.3749 77.1538 74.3749ZM83.6416 74.3749C83.3864 74.3749 83.1628 74.4612 82.9569 74.6486C82.751 74.8352 82.5197 75.2223 82.2722 75.7975V74.5383H81.3138V82.7233H82.3817V78.4531C82.3817 77.8578 82.4388 77.2841 82.5737 76.7559C82.6508 76.4521 82.7965 76.2139 82.9839 76.0442C83.172 75.8738 83.3872 75.7975 83.6131 75.7975C83.8645 75.7975 84.1143 75.8985 84.3795 76.099L84.7358 74.8128C84.3641 74.5152 83.9994 74.3749 83.6416 74.3749ZM96.726 74.3749C95.8809 74.3749 95.1846 74.7311 94.6449 75.4428C94.1082 76.1545 93.8252 77.2232 93.8252 78.6451C93.8252 80.0569 94.112 81.1264 94.6449 81.8481C95.1792 82.5683 95.847 82.9153 96.6712 82.9153C97.3529 82.9153 97.9373 82.6624 98.4231 82.1488C98.9089 81.6361 99.205 80.8796 99.3268 79.9042L98.2859 79.74C98.208 80.4378 98.0268 80.9406 97.7384 81.2729C97.4508 81.6045 97.1038 81.7656 96.6982 81.7656C96.1816 81.7656 95.7413 81.5243 95.4105 81.0269C95.0813 80.5288 94.9186 79.7315 94.9186 78.6181C94.9186 77.5386 95.0936 76.7598 95.4383 76.264C95.7837 75.7674 96.2256 75.4976 96.7522 75.4976C97.1046 75.4976 97.4053 75.634 97.6559 75.907C97.908 76.1815 98.0746 76.6148 98.1756 77.1669L99.2173 76.9487C99.0924 76.0859 98.8156 75.4359 98.3676 75.0048C97.9204 74.573 97.3775 74.3749 96.726 74.3749ZM102.831 74.3749C101.975 74.3749 101.253 74.7272 100.695 75.4698C100.137 76.2123 99.8735 77.288 99.8735 78.6998C99.8735 80.06 100.143 81.1256 100.695 81.8481C101.249 82.5683 101.964 82.9153 102.858 82.9153C103.565 82.9153 104.157 82.7025 104.637 82.2583C105.117 81.815 105.466 81.1611 105.65 80.2867L104.555 80.0955C104.239 81.2143 103.686 81.7633 102.885 81.7648C102.373 81.7648 101.928 81.5482 101.571 81.0809C101.214 80.6129 101.012 79.9189 100.969 79.0005H105.677V78.6173C105.677 77.2356 105.402 76.1985 104.856 75.469C104.312 74.7404 103.647 74.3749 102.831 74.3749ZM109.155 74.3749C108.41 74.3749 107.822 74.5946 107.403 75.0318C106.983 75.4683 106.773 76.0311 106.773 76.7297C106.773 77.1345 106.836 77.4792 106.992 77.7969C107.146 78.1153 107.369 78.3737 107.65 78.5633C107.928 78.753 108.49 79.0029 109.32 79.275C109.893 79.4601 110.265 79.6174 110.415 79.7408C110.632 79.9204 110.743 80.1556 110.743 80.4802C110.743 80.855 110.614 81.168 110.36 81.4109C110.109 81.6554 109.755 81.7664 109.293 81.7664C108.829 81.7664 108.449 81.6368 108.17 81.3562C107.892 81.0755 107.711 80.6483 107.65 80.07L106.583 80.2882C106.824 82.0447 107.698 82.9176 109.21 82.9161C110.017 82.9161 110.66 82.6886 111.126 82.2044C111.592 81.7201 111.837 81.0701 111.837 80.2882C111.837 79.8657 111.763 79.5002 111.619 79.1941C111.477 78.9041 111.26 78.658 110.989 78.4816C110.73 78.305 110.177 78.0683 109.293 77.7699C108.649 77.5448 108.247 77.3797 108.116 77.2764C107.897 77.1037 107.787 76.8677 107.787 76.5655C107.787 76.2571 107.916 75.9957 108.143 75.7983C108.37 75.6016 108.722 75.4976 109.184 75.4976C110 75.4976 110.456 75.9455 110.552 76.8385L111.592 76.6742C111.52 76.1098 111.398 75.6626 111.209 75.3595C111.008 75.043 110.724 74.7875 110.389 74.6208C110.032 74.442 109.622 74.3749 109.155 74.3749ZM84.7365 74.5391L87.1192 82.7241H88.1316L90.5134 74.5391H89.4185L88.0221 79.5488C87.8532 80.1541 87.7036 80.6776 87.6111 81.1087C87.4955 80.5651 87.3829 79.9937 87.2287 79.4385L85.86 74.5391H84.7365ZM91.4426 74.5391V82.7241H92.5113V74.5391H91.4426ZM56.3487 74.6494C55.5021 74.6494 54.8212 75.0287 54.2691 75.7713C53.7162 76.5138 53.4194 77.5895 53.4194 79.0013C53.4194 80.3623 53.6931 81.4017 54.2406 82.1218C54.7873 82.8428 55.5182 83.2168 56.4042 83.2168C57.1067 83.2168 57.6803 82.9762 58.1553 82.5321C58.6303 82.0887 58.9588 81.4348 59.1415 80.5612L58.0736 80.397C57.7621 81.5158 57.1976 82.0648 56.4042 82.0663C55.8961 82.0663 55.4712 81.8497 55.1173 81.3816C54.7626 80.9143 54.5567 80.2204 54.5151 79.302H59.1685L59.1963 78.9188C59.1963 77.537 58.9156 76.473 58.3751 75.7428C57.8346 75.0141 57.156 74.6494 56.3487 74.6494ZM44.3323 74.8406L46.2484 83.0255H47.3703L48.6302 76.7297L48.8492 78.1254L49.8616 83.0255H50.9566L52.9004 74.8406H51.888L50.8193 79.5758L50.4631 81.1642L50.1346 79.5758L49.2039 74.8398H48.109L47.1236 79.6305L46.7951 81.3276L46.4126 79.5758L45.4264 74.8398H44.3323V74.8406ZM77.1261 75.4976C77.6581 75.4976 78.0961 75.7543 78.44 76.264C78.6759 76.6125 78.8301 77.143 78.8772 77.8516H75.3456C75.3796 77.133 75.5824 76.5794 75.9216 76.1545C76.2609 75.7304 76.6488 75.4976 77.1261 75.4976ZM102.803 75.4976C103.333 75.4976 103.773 75.7543 104.117 76.264C104.354 76.6125 104.507 77.143 104.555 77.8516H101.023C101.057 77.133 101.261 76.5794 101.598 76.1545C101.935 75.7304 102.326 75.4976 102.803 75.4976ZM56.3487 75.7983C56.8746 75.7983 57.2971 76.0558 57.6364 76.5655C57.8708 76.914 58.0258 77.4445 58.0736 78.1531H54.596C54.6292 77.4345 54.8081 76.8523 55.1443 76.429C55.4789 76.0034 55.8753 75.7983 56.3487 75.7983ZM63.138 75.7983C63.6122 75.7983 64.017 76.062 64.3432 76.5655C64.6694 77.0682 64.8089 77.8447 64.8089 78.9196C64.8089 79.9659 64.6547 80.747 64.3154 81.2737C63.9769 81.8011 63.5752 82.0671 63.1388 82.0671C62.818 82.0671 62.5265 81.9592 62.2628 81.7386C61.9976 81.5181 61.804 81.202 61.6599 80.781C61.5164 80.3599 61.4416 79.7115 61.4416 78.8648C61.4416 77.8671 61.6198 77.1199 61.9613 76.5925C62.3029 76.0651 62.7016 75.7983 63.138 75.7983Z" fill="white"/>
<path d="M28.9885 67.1212L24.9096 68.8723L28.687 70.4877L33.0675 68.8723L28.9885 67.1212ZM22.857 69.3103L22.7197 77.1953L28.6878 79.8231V71.6374L22.857 69.3103ZM35.1201 69.3103L29.7272 71.3637V79.0837L35.1201 76.8938V69.3103ZM41.5532 44.7832L37.4464 46.5343L41.2517 48.1497L45.6322 46.5343L41.5532 44.7832ZM35.8588 47.1103V54.9938L40.951 56.4719L41.1152 49.2994L35.8588 47.1103ZM47.2468 47.5475L42.4284 49.6009V57.3479L47.2468 55.158V47.5475ZM22.2671 55.879L18.1881 57.6308L21.9656 59.2462L26.3453 57.6308L22.2671 55.879ZM16.1363 58.0696L15.999 65.953L21.9664 68.5809V60.3959L16.1363 58.0696ZM28.3994 58.0696L23.0065 60.1222V67.8422L28.3994 65.6523V58.0696ZM35.407 55.5883L31.328 57.3394L35.1055 58.954L39.4852 57.3394L35.407 55.5883ZM29.2754 57.7773L29.1389 65.6616L35.1062 68.2894V60.1044L29.2754 57.7773ZM41.5393 57.7773L36.1464 59.8307V67.5507L41.5393 65.3601V57.7773ZM54.3869 44.7832L50.3087 46.5343L54.0862 48.1497L58.4667 46.5343L54.3869 44.7832ZM48.2554 46.9731L48.1181 54.8573L54.0862 57.4843V49.3002L48.2554 46.9731ZM60.5185 46.9731L55.1256 49.0264V56.7456L60.5185 54.5558V46.9731Z" fill="white"/>
</svg>
