<svg width="128" height="128" viewBox="0 0 128 128" fill="none" xmlns="http://www.w3.org/2000/svg">
<path d="M73.4748 23.0905C73.3084 23.1404 72.4351 23.4311 71.5118 23.7301C66.5712 25.3413 63.0695 27.2101 62.2045 28.6968C61.8718 29.2615 61.8135 29.7266 62.0048 30.1834C62.2211 30.6984 62.6203 31.0971 63.7183 31.8695C64.234 32.2349 65.1073 32.9824 65.6812 33.5472C68.4011 36.2548 69.7152 39.577 69.5655 43.3311C69.3992 47.5586 67.4113 51.7861 63.6185 56.0053C62.296 57.4837 60.9319 58.7129 58.3285 60.7976C56.1576 62.5334 54.9765 63.663 54.1697 64.751C51.6993 68.1064 52.3647 71.0964 56.1243 73.5964C59.443 75.8057 65.2903 77.6412 72.1939 78.6378C74.5062 78.9701 77.1179 79.186 77.75 79.0946L78.1909 79.0282L78.8812 77.7824C82.3829 71.4951 84.1463 65.5567 84.3625 59.4189C84.454 56.6781 84.113 53.4389 83.5224 51.5452C83.4143 51.2047 83.3395 50.914 83.3478 50.9057C83.3561 50.8974 84.3376 50.5984 85.5187 50.2496C91.7486 48.3974 97.7788 46.9357 102.761 46.0719C103.734 45.9058 104.558 45.7314 104.599 45.6899C104.865 45.4324 104.092 44.2198 102.828 42.9241C98.1697 38.1235 89.9353 34.4691 80.2703 32.9077C78.4071 32.6087 78.1826 32.5007 77.4922 31.5871C76.3943 30.1336 75.3629 27.6586 73.9572 23.1155C73.9156 22.966 73.874 22.966 73.4748 23.0905ZM74.1153 24.8015C74.6559 26.2799 74.9886 27.4343 74.9886 27.8413V28.1652L74.5311 28.1154C72.0442 27.8247 68.0684 27.2101 67.22 26.9858C67.0037 26.9277 66.8789 26.8446 66.9205 26.7782C66.9871 26.6785 67.8272 26.2715 70.3391 25.1337C72.6763 24.0706 73.5663 23.6802 73.6411 23.6719C73.6744 23.6636 73.8824 24.1786 74.1153 24.8015ZM68.8502 27.916C71.8861 28.5556 74.1069 28.9542 74.5894 28.9542C75.0635 28.9542 75.0135 28.9958 72.7761 30.3579C71.0544 31.4044 70.8548 31.504 70.4222 31.504H69.9481L68.6672 30.2167C67.1202 28.6552 66.0721 27.5091 66.0721 27.3762C66.0721 27.3263 66.1054 27.3097 66.147 27.3347C66.1886 27.343 67.4113 27.6087 68.8502 27.916ZM66.6045 29.3529C67.353 30.225 67.927 30.9559 67.8937 30.9808C67.8272 31.0389 65.6978 30.5157 64.4003 30.117C63.2608 29.7682 63.1277 29.6519 63.4271 29.2615C63.6268 29.0041 65.0907 27.7832 65.1988 27.7748C65.2321 27.7748 65.8559 28.4808 66.6045 29.3529ZM76.3028 31.1469C76.6022 31.8529 76.8268 32.4259 76.8185 32.4342C76.8018 32.4425 72.8094 31.8279 72.46 31.7615C72.3852 31.7449 73.0589 31.2881 73.9738 30.7316C74.8888 30.1751 75.654 29.7599 75.6956 29.8014C75.7372 29.8429 76.0033 30.4409 76.3028 31.1469ZM67.5943 32.4924C67.6691 32.5671 68.6256 35.6319 68.5841 35.6734C68.5674 35.69 68.1183 35.1668 67.5776 34.5023C67.037 33.8379 66.2219 32.8994 65.7478 32.4176L64.8994 31.5289L66.2135 31.9857C66.9455 32.2266 67.561 32.4592 67.5943 32.4924ZM71.412 32.8994C73.0672 33.1319 74.4396 33.3479 74.4646 33.3728C74.4895 33.3977 73.4831 34.1784 72.2438 35.1003C70.9962 36.0222 69.9731 36.7697 69.9565 36.7531C69.9398 36.7365 69.8151 36.3544 69.6737 35.8893C69.5323 35.4325 69.1829 34.4774 68.8918 33.7631C68.6007 33.0489 68.3678 32.4675 68.3844 32.4675C68.3927 32.4675 69.7568 32.6668 71.412 32.8994ZM75.5708 34.2199C75.9368 35.0754 76.0782 35.8893 76.1364 37.5255C76.1697 38.4059 76.1697 39.1202 76.1447 39.1202C76.1115 39.1202 75.5875 38.9375 74.9803 38.7215C73.7659 38.2813 71.3871 37.5006 71.1043 37.4425C70.9795 37.4176 71.5534 36.8694 73.0672 35.5737C74.24 34.5605 75.2381 33.7382 75.288 33.7382C75.3296 33.7382 75.4544 33.9542 75.5708 34.2199ZM79.8378 34.4276C81.6676 34.8013 83.2729 35.1335 83.3977 35.1668C83.5807 35.2083 83.1398 35.4824 81.2018 36.5455C79.871 37.2764 78.3572 38.1069 77.8415 38.3976C77.3258 38.6883 76.8933 38.9125 76.885 38.9042C76.8767 38.8959 76.9266 38.6219 77.0014 38.2979C77.2759 37.1102 77.1013 35.6319 76.5523 34.4525C76.3943 34.112 76.2612 33.8047 76.2612 33.788C76.2695 33.6967 76.6022 33.7631 79.8378 34.4276ZM84.8366 36.6618C84.7451 37.077 84.5372 37.783 84.3792 38.2398C84.0298 39.2448 82.7489 41.861 82.5742 41.9275C82.5077 41.9524 81.9005 41.6783 81.2434 41.3128C80.5863 40.9474 79.6298 40.4657 79.1308 40.2414L78.2158 39.8345L81.5678 37.6833C84.3459 35.906 84.9281 35.5654 84.9614 35.7232C84.9863 35.8312 84.9281 36.2465 84.8366 36.6618ZM87.2903 35.8976C90.7671 36.8943 94.4434 38.2398 94.2272 38.4391C94.1856 38.4807 93.7281 38.6302 93.2208 38.7714C90.5924 39.5105 86.941 40.773 85.2359 41.5288C84.7035 41.7613 84.2461 41.9358 84.2211 41.9025C84.1962 41.8776 84.4041 41.1135 84.6869 40.1999C85.2359 38.4059 85.8763 35.989 85.8763 35.6817C85.8763 35.5488 85.9262 35.499 86.051 35.5322C86.1342 35.5654 86.6915 35.7315 87.2903 35.8976ZM72.327 39.5022C73.1171 39.7597 74.0487 40.1168 74.3897 40.2913C75.0052 40.5986 75.0135 40.6069 74.8389 40.7979C74.5228 41.1467 71.071 44.361 70.9712 44.3942C70.9213 44.4108 70.8797 43.9291 70.8797 43.2231C70.8797 42.0022 70.7383 39.7929 70.6302 39.3029C70.547 38.9292 70.6135 38.9375 72.327 39.5022ZM94.4185 40.1418C93.6616 41.3959 92.4056 43.1816 91.5073 44.3111C90.5841 45.4656 88.6294 47.6333 88.513 47.6333C88.4714 47.6333 88.1886 47.2845 87.8809 46.8526C86.7663 45.2663 85.4771 43.8959 84.3459 43.0985C84.2378 43.0238 84.1712 42.9407 84.1962 42.9158C84.2211 42.8909 86.076 42.2098 88.3134 41.3959C92.8382 39.7597 94.8344 39.0953 94.9591 39.1783C94.9758 39.1866 94.7346 39.6185 94.4185 40.1418ZM97.2465 39.9258C100.374 42.1019 102.495 43.8626 103.26 44.9174C103.451 45.1832 103.593 45.4075 103.576 45.4241C103.56 45.4407 102.553 45.5487 101.339 45.6732C96.4896 46.1467 93.0378 46.6367 91.2079 47.1018C90.7172 47.2264 90.3096 47.3177 90.3013 47.3094C90.293 47.3011 90.6173 46.9025 91.0249 46.4124C93.1376 43.8792 95.0506 41.2464 95.7576 39.876C95.9489 39.5105 96.1319 39.2199 96.1652 39.2199C96.2068 39.2199 96.6892 39.5355 97.2465 39.9258ZM79.7463 42.6251C80.3451 42.949 80.8026 43.2397 80.7776 43.2896C80.7277 43.3809 75.4627 46.2629 75.4128 46.2214C75.4045 46.2131 75.6706 45.3493 76.02 44.2945C76.3693 43.2397 76.702 42.0936 76.7686 41.7447L76.885 41.1052L77.775 41.5786C78.2657 41.8361 79.1474 42.3012 79.7463 42.6251ZM75.3296 42.7912C74.8222 44.552 73.7909 46.8277 73.3168 47.2181C73.2086 47.3094 72.9924 47.1848 72.302 46.6201C71.8113 46.2297 71.3122 45.8393 71.1791 45.748C71.0544 45.6566 70.9546 45.5653 70.9795 45.5404C71.3455 45.1832 75.5376 41.8029 75.5625 41.8527C75.5708 41.8859 75.471 42.3095 75.3296 42.7912ZM84.8782 45.856C85.6684 46.3875 87.4317 47.9573 87.3402 48.0569C87.3153 48.0818 85.527 48.6632 83.3727 49.3443C81.2185 50.0253 78.8147 50.7977 78.0328 51.0552C77.251 51.321 76.6022 51.5203 76.5939 51.512C76.5856 51.5037 77.1345 50.8808 77.8083 50.125C79.5716 48.1566 81.3848 46.0553 82.0336 45.2247L82.5909 44.5105L83.3145 44.9008C83.7054 45.1168 84.4124 45.5487 84.8782 45.856ZM80.7943 44.7264C80.7444 44.7929 80.2703 45.3909 79.7379 46.0636C79.2056 46.7363 77.9247 48.3725 76.8933 49.7014L75.0135 52.1183L74.9553 51.7114C74.8389 50.9223 74.4147 49.3692 74.1735 48.8459L73.9323 48.3144L75.13 47.7164C76.361 47.1018 78.9395 45.7065 80.1455 45.0005C80.8858 44.5686 80.9357 44.5437 80.7943 44.7264ZM70.8132 47.65C71.3039 47.8991 71.7614 48.2313 71.7614 48.331C71.7614 48.4888 68.5757 50.9472 68.4842 50.8559C68.4676 50.831 68.7504 50.2662 69.1247 49.5934C69.499 48.9207 69.8733 48.1649 69.9648 47.9074C70.0563 47.65 70.1893 47.4423 70.2642 47.4423C70.3391 47.434 70.5803 47.5337 70.8132 47.65ZM73.5247 50.6732C73.741 51.1051 73.9738 52.3093 73.8574 52.4173C73.8075 52.4588 72.4933 53.0818 70.9296 53.8043C69.3659 54.5186 67.3281 55.4821 66.3965 55.9472C65.465 56.4123 64.758 56.7362 64.8328 56.6781C64.8994 56.6199 65.9224 55.7561 67.1118 54.7761C69.4075 52.8741 72.0192 50.5984 72.4933 50.0918L72.7844 49.7845L73.0672 50.0503C73.2169 50.1997 73.4249 50.4821 73.5247 50.6732ZM70.9546 50.6482C70.73 50.8559 69.499 51.919 68.2347 53.0153C66.9704 54.1116 65.4483 55.4322 64.8578 55.9472C63.66 56.9854 63.66 56.9854 65.1905 55.0003C66.3716 53.4638 66.9871 52.8907 68.6839 51.7529C69.5073 51.2047 71.1459 50.2745 71.3122 50.2745C71.3372 50.2745 71.1791 50.4406 70.9546 50.6482ZM82.8238 51.6947C82.882 52.0187 82.9652 53.0236 82.9984 53.9206L83.0567 55.5568L82.674 55.3824C81.3599 54.7761 77.6669 52.6997 77.8083 52.6416C78.6151 52.3177 82.5992 50.9971 82.6491 51.0469C82.6824 51.0801 82.7655 51.3708 82.8238 51.6947ZM79.6964 54.6266C81.2351 55.5319 82.5077 56.2794 82.5243 56.296C82.541 56.3126 82.3413 56.4787 82.0918 56.6614C81.6011 57.0186 76.3943 59.7096 76.3194 59.6431C76.2945 59.6182 76.3693 59.1697 76.4774 58.6548C76.6937 57.6083 76.8767 54.4854 76.7935 53.497C76.7602 53.1482 76.7769 52.899 76.8268 52.9323C76.8601 52.9572 78.1576 53.7213 79.6964 54.6266ZM75.4461 53.9621C75.5625 54.9339 75.4211 56.8857 75.1549 57.9073C74.8472 59.1033 74.6642 59.6016 74.5311 59.6431C74.3481 59.7013 73.2086 58.6714 72.5183 57.8076C71.8196 56.9355 70.8963 55.2993 71.0377 55.1665C71.1209 55.0834 75.1799 53.414 75.313 53.414C75.3463 53.4057 75.4045 53.6548 75.4461 53.9621ZM70.4638 56.404C70.8963 57.2927 71.8778 58.5717 72.9508 59.6597C73.6411 60.3574 73.8158 60.5816 73.7077 60.6564C73.2253 60.9803 71.0627 61.9936 69.6986 62.5251C68.0434 63.173 65.8892 63.9205 65.8392 63.854C65.8226 63.8291 66.3133 62.9321 66.9372 61.8607C68.2846 59.5268 69.9897 56.2129 69.9897 55.9389C69.998 55.5983 70.1394 55.7395 70.4638 56.404ZM67.9103 56.4621C67.8854 56.5286 67.6774 57.0435 67.4529 57.6083C66.4963 60.0335 64.6332 63.3308 64.2173 63.3308C63.8929 63.3308 63.4188 61.4122 63.2857 59.5684L63.2192 58.6382L65.4982 57.492C66.7542 56.8608 67.8188 56.3458 67.8687 56.3458C67.9186 56.3375 67.9353 56.3957 67.9103 56.4621ZM83.1232 58.7046C83.1315 60.0999 82.5493 63.4803 82.2332 63.8208C82.1001 63.962 80.6612 63.4304 79.3553 62.7577C78.1909 62.1597 76.2695 60.972 76.2695 60.8474C76.2695 60.8142 76.5606 60.6647 76.9266 60.5152C77.617 60.2245 80.8359 58.5053 82.1999 57.6996L82.9818 57.2345L83.0483 57.5917C83.0816 57.791 83.1149 58.2976 83.1232 58.7046ZM61.6555 60.3159C61.7886 61.4205 62.1296 62.7743 62.5538 63.8457C62.7285 64.2859 62.8532 64.668 62.8283 64.6846C62.6619 64.8341 55.8165 66.7194 54.9099 66.8606L54.4774 66.9271L54.544 66.5948C54.6355 66.1214 55.3009 64.7759 55.7916 64.0451C56.4071 63.1397 57.9209 61.6198 58.919 60.9139C59.6676 60.3906 61.4642 59.3358 61.5141 59.4023C61.5474 59.4106 61.5973 59.8175 61.6555 60.3159ZM77.1844 62.6497C79.2971 63.663 80.0956 64.0118 81.1103 64.3607L81.8839 64.6264L81.3931 64.8756C78.6234 66.2792 73.716 68.2726 72.4517 68.5217C72.1689 68.5799 72.1273 68.5633 72.1856 68.4221C72.4018 67.8573 75.3296 61.8192 75.3878 61.8192C75.4211 61.8192 76.2362 62.1929 77.1844 62.6497ZM73.4665 62.4255C73.3168 63.1397 72.51 65.4404 72.0442 66.4869C71.6366 67.4005 70.6967 69.1696 70.5304 69.3357C70.4555 69.4104 68.7837 68.4719 67.9935 67.9071C67.1035 67.2759 65.1572 65.3988 65.2154 65.2244C65.2404 65.158 66.4215 64.7012 67.8521 64.2112C70.8631 63.173 72.5432 62.5501 73.034 62.2926C73.4997 62.0434 73.5413 62.06 73.4665 62.4255ZM81.8839 65.5982C81.8589 65.8058 81.6843 66.7111 81.5013 67.633C80.9274 70.5067 80.2287 72.4751 79.7878 72.4751C79.1723 72.4751 74.9803 71.4619 73.6245 70.9802C72.7013 70.6562 71.9111 70.2825 71.6449 70.0582C71.4786 69.917 71.5701 69.8672 72.7678 69.3772C76.6438 67.7991 81.1187 65.7809 81.6011 65.3988C81.8922 65.1663 81.9338 65.1995 81.8839 65.5982ZM62.2544 66.4786C61.8135 67.2676 60.9152 68.5632 59.1935 70.8805L57.7296 72.8572L57.2888 72.5416C56.6733 72.1014 55.6918 71.0383 55.2842 70.3656C54.8434 69.643 54.544 68.746 54.5107 68.0649L54.4857 67.5334L55.2094 67.4586C56.1908 67.359 58.944 66.7942 60.8986 66.2792C61.7886 66.0467 62.5288 65.8723 62.5455 65.8806C62.5538 65.9055 62.429 66.1713 62.2544 66.4786ZM66.5213 68.5134C67.012 68.8623 67.6857 69.3107 68.0268 69.5101L68.6506 69.8755L68.3678 69.9918C68.2098 70.0582 65.9307 70.8888 63.2941 71.8356C58.7942 73.4552 58.5031 73.5549 58.3784 73.3888C58.3035 73.2891 58.2536 73.1894 58.2619 73.1562C58.2702 73.123 59.4846 71.5532 60.9651 69.6679L63.6517 66.2377L64.6415 67.06C65.1988 67.5168 66.0306 68.1646 66.5213 68.5134ZM67.6275 73.6711C66.6461 75.1412 65.8143 76.3787 65.781 76.412C65.7062 76.5116 64.1341 76.1462 62.9614 75.7475C61.7304 75.3322 60.2082 74.5681 59.6094 74.0532L59.1769 73.6795L60.15 73.4137C64.1175 72.334 69.3659 70.9469 69.3909 70.9635C69.4075 70.9802 68.609 72.2011 67.6275 73.6711ZM72.3436 71.4453C74.448 72.1678 76.361 72.5748 78.848 72.8406L79.53 72.9153L77.6752 73.5798C73.0506 75.2492 69.2994 76.4203 67.4196 76.7857C66.8873 76.8854 66.4048 76.9767 66.3549 76.9767C66.305 76.9767 66.6793 76.4618 67.195 75.8306C68.609 74.1113 70.1394 72.1512 70.547 71.5449C70.7466 71.2542 70.9462 71.0051 70.9878 71.0051C71.0377 71.0134 71.6449 71.2044 72.3436 71.4453ZM79.2389 75.3322C78.4404 77.3837 77.8582 78.6378 77.6585 78.7126C77.2676 78.8621 71.803 78.0648 70.1311 77.608C69.0249 77.309 68.3179 77.0183 68.5258 76.9435C68.609 76.9186 69.3992 76.7276 70.2892 76.5282C73.1754 75.8804 77.5837 74.5432 79.4136 73.7625C79.6464 73.6628 79.8544 73.5881 79.871 73.6047C79.8877 73.6213 79.6049 74.3937 79.2389 75.3322ZM46.925 77.0681C46.5341 77.2342 46.3511 77.5581 46.3095 78.1644C46.268 78.7292 46.268 78.7375 45.9852 78.7375C45.7024 78.7375 45.694 78.7541 45.7273 79.1528C45.7523 79.5265 45.7855 79.5681 46.0267 79.6013L46.2929 79.6345V82.6743L46.7504 82.6328L47.2162 82.5996L47.2494 81.1046L47.2827 79.6096H48.6468V80.7059C48.6468 82.068 48.7882 82.4252 49.3787 82.6245C49.6449 82.7159 49.8944 82.7325 50.1606 82.6743C50.5349 82.5996 50.5515 82.5747 50.5848 82.176L50.6181 81.7524L50.2937 81.8106C49.7281 81.9102 49.6948 81.8438 49.7114 80.4651L49.7198 79.6179H50.0025C50.4933 79.6179 50.6014 79.5265 50.6014 79.1196V78.7375H49.7198V78.3721C49.7198 77.8322 49.6283 77.7408 49.1209 77.7741L48.6884 77.799L48.6551 78.2641L48.6218 78.7292H47.2661V78.397C47.2661 77.9402 47.5073 77.7159 47.9232 77.799C48.2392 77.8571 48.2475 77.8571 48.2475 77.5332C48.2475 77.3588 48.1893 77.1512 48.1311 77.0847C47.998 76.9684 47.2162 76.9518 46.925 77.0681ZM25.2494 77.2259C24.8252 77.5249 25.0331 78.1478 25.5655 78.1478C26.1144 78.1478 26.2142 78.0731 26.2142 77.6495C26.2059 77.1096 25.7235 76.8937 25.2494 77.2259ZM18.0464 77.4917C17.8966 77.5997 17.88 77.8488 17.905 80.1079L17.9299 82.5996L18.3957 82.6328L18.8615 82.666V80.4983C18.8615 79.3023 18.8864 78.3472 18.9114 78.3721C18.9447 78.397 19.2275 79.186 19.5518 80.1245C19.8762 81.0631 20.2089 82.0182 20.2921 82.2507L20.4501 82.6743L20.9409 82.6328L21.4316 82.5996L22.1802 80.5232L22.9288 78.4468L22.9787 80.5232C23.012 81.6694 23.0452 82.6162 23.0535 82.6328C23.0619 82.6494 23.2864 82.6494 23.536 82.6328L24.0018 82.5996L24.0267 80.1162C24.0433 78.3638 24.0184 77.5913 23.9352 77.4917C23.7605 77.2757 22.6543 77.3173 22.4547 77.5415C22.3715 77.6412 22.0222 78.4468 21.6895 79.3272C21.3568 80.2076 21.0573 80.9634 21.0241 81.0049C20.9908 81.0464 20.6997 80.3405 20.3753 79.4435C20.0509 78.5299 19.6932 77.7159 19.5685 77.5913C19.3938 77.4169 19.2441 77.3671 18.7783 77.3671C18.4706 77.3671 18.1379 77.4252 18.0464 77.4917ZM28.1273 78.7375C27.412 78.9701 26.9878 79.7093 26.9878 80.7474C26.9878 81.9102 27.4286 82.5414 28.3602 82.6992C28.7844 82.774 29.508 82.6079 29.7575 82.3836C29.9239 82.2341 29.9987 81.6777 29.8657 81.5531C29.8324 81.5199 29.6494 81.578 29.4581 81.686C28.7511 82.068 28.2271 81.8521 28.0607 81.1129C27.9526 80.6229 28.0691 79.9916 28.3269 79.7176C28.5348 79.4933 29.0505 79.4767 29.4498 79.6843C29.8241 79.8754 29.9322 79.8089 29.9322 79.377C29.9322 79.1362 29.874 79.0033 29.6993 78.8953C29.3999 78.6877 28.5182 78.6129 28.1273 78.7375ZM31.9451 78.9368C31.604 79.2358 31.604 79.2358 31.5708 79.0116C31.5458 78.8206 31.4793 78.779 31.1216 78.7541L30.7057 78.7209V82.6411H31.6872V81.4285C31.6872 80.2159 31.6872 80.2159 31.9783 79.9003C32.2195 79.6428 32.3277 79.593 32.6188 79.6262C32.9848 79.6677 33.0596 79.5847 33.0596 79.1279C33.0596 78.5631 32.494 78.4634 31.9451 78.9368ZM34.6566 78.7541C33.8664 78.9867 33.384 79.9086 33.4838 80.9966C33.5753 82.0016 34.091 82.5747 35.0226 82.7075C36.6694 82.9318 37.7424 81.5863 37.2766 79.892C36.9938 78.8953 35.8626 78.397 34.6566 78.7541ZM35.8044 79.5182C36.3201 79.7923 36.4532 80.9883 36.029 81.5531C35.7628 81.9019 35.1723 81.9684 34.8146 81.686C34.5984 81.5116 34.5817 81.4285 34.5817 80.6976C34.5817 79.9418 34.5984 79.8837 34.8562 79.6594C35.139 79.4103 35.505 79.3604 35.8044 79.5182ZM38.6989 78.779C38.1999 78.995 38.0169 79.2857 38.0169 79.8255C38.0169 80.4069 38.1999 80.6229 39.0732 81.0381C39.5723 81.279 39.6804 81.3704 39.6804 81.578C39.6804 81.7524 39.6056 81.8521 39.4059 81.9185C39.1564 82.0016 38.9235 81.96 38.1333 81.7109C37.9836 81.661 37.9587 81.7026 37.9836 82.0348C38.0086 82.3504 38.0668 82.4418 38.308 82.558C38.7156 82.7574 39.6971 82.7408 40.1046 82.5248C40.6952 82.2092 40.8781 81.2541 40.4456 80.7724C40.3458 80.6644 39.9882 80.4401 39.6305 80.274C38.9817 79.9667 38.8237 79.7425 39.0483 79.4767C39.198 79.3023 39.6388 79.3023 40.0797 79.485C40.3708 79.6096 40.429 79.6096 40.4789 79.4933C40.5787 79.2275 40.4623 78.9119 40.2211 78.7873C39.8967 78.6129 39.0649 78.6129 38.6989 78.779ZM42.6664 78.7126C41.8014 79.0199 41.4105 79.5431 41.3273 80.4734C41.2275 81.6195 41.6434 82.3504 42.5417 82.6162C44.0472 83.0564 45.2199 82.1843 45.2116 80.6312C45.2033 79.6926 44.7791 79.0033 44.0472 78.7541C43.7061 78.6378 42.9326 78.6129 42.6664 78.7126ZM43.8059 79.6594C44.0638 79.8754 44.0804 79.9418 44.0804 80.6312C44.0804 81.279 44.0555 81.3953 43.8392 81.6195C43.5315 81.9434 42.9492 81.9684 42.6581 81.6777C42.4086 81.4285 42.3337 81.1046 42.392 80.4318C42.4252 79.9916 42.4918 79.8421 42.6997 79.6511C43.049 79.3521 43.4566 79.3604 43.8059 79.6594ZM25.1496 80.6644L25.1745 82.6079H26.156V78.7873L25.6403 78.7624L25.1246 78.7292L25.1496 80.6644ZM20.4668 85.0497C19.2108 85.3238 18.2626 86.0131 17.7636 87.0347C17.4558 87.6576 17.4392 87.749 17.4392 88.7623C17.4392 89.7423 17.4641 89.8918 17.7053 90.3901C18.2293 91.4616 19.1942 92.2174 21.207 93.131C23.4029 94.1276 24.0018 94.7422 24.0018 96.013C24.0018 97.1675 23.4611 97.8568 22.2717 98.2223C21.0906 98.5877 19.9095 98.4133 18.3791 97.6492C17.8717 97.3917 17.4142 97.1675 17.381 97.1508C17.3394 97.1342 17.2479 97.1924 17.1564 97.2754C16.9734 97.4665 16.9401 98.4133 17.1148 98.7289C17.4808 99.4182 19.4021 100.058 21.074 100.058C24.218 100.058 26.2475 98.189 26.0812 95.4399C26.0479 94.8419 25.973 94.5512 25.7235 94.0529C25.2328 93.0645 24.6006 92.5496 22.6793 91.6111C21.7893 91.1792 20.8161 90.6559 20.5084 90.4483C19.294 89.6344 19.0112 88.2473 19.8679 87.2839C20.342 86.744 20.8244 86.5696 21.8142 86.5613C22.7541 86.5613 23.1367 86.661 24.218 87.2091C25.1496 87.6826 25.2328 87.641 25.2328 86.7191C25.2328 85.8886 25.1829 85.8138 24.3345 85.4235C23.2116 84.9334 21.7061 84.7839 20.4668 85.0497ZM33.5753 84.9916C31.7205 85.2906 30.2899 86.1876 29.3333 87.6576C28.8509 88.4051 28.5847 89.1028 28.3352 90.2822C28.0607 91.5695 28.1273 94.4349 28.4517 95.6143C29.2502 98.5129 31.0384 99.9083 34.0993 100.041C35.7129 100.108 36.3367 99.9913 37.9171 99.3186C37.9753 99.2937 38.2415 99.4598 38.5076 99.684C39.5224 100.564 41.7515 101.827 42.5333 101.976C43.0158 102.068 43.1489 101.91 43.1489 101.229C43.1489 100.913 43.1239 100.589 43.0906 100.498C43.0574 100.407 42.5916 100.116 42.0426 99.8418C41.2025 99.4266 39.5224 98.3468 39.5224 98.2223C39.5224 98.1973 39.6804 97.9814 39.8634 97.7322C40.6536 96.7023 41.1277 95.2655 41.294 93.4051C41.4188 91.9848 41.3023 90.4649 40.978 89.2855C40.3874 87.151 38.9485 85.6809 36.919 85.1328C36.2453 84.9666 34.3156 84.8753 33.5753 84.9916ZM36.5197 86.8603C37.6842 87.2922 38.4577 88.1726 38.9069 89.543C39.1315 90.2323 39.173 90.548 39.2146 92.0097C39.2729 93.9698 39.1231 94.9167 38.6074 96.013C37.784 97.7738 35.9791 98.6541 33.8747 98.3302C31.263 97.9316 30.1152 95.9632 30.2483 92.1011C30.3231 89.8835 30.7224 88.7207 31.7537 87.7407C32.3609 87.1593 32.8018 86.9018 33.5088 86.7274C34.3239 86.5115 35.7711 86.5779 36.5197 86.8603ZM60.0835 85.058C58.8774 85.3487 57.8544 86.0962 57.4135 86.9932C56.9145 88.0231 56.8978 89.4765 57.3719 90.4151C57.9292 91.5197 58.6778 92.0928 61.0067 93.1974C62.7701 94.0363 63.3606 94.5263 63.6018 95.3485C63.8846 96.3203 63.5186 97.3336 62.7035 97.8651C61.4309 98.6874 59.6177 98.5545 57.6797 97.4997C56.8063 97.0263 56.6816 97.0761 56.6816 97.915C56.6816 98.6957 56.7897 98.9282 57.322 99.2355C58.9606 100.199 61.6888 100.324 63.3856 99.5262C65.4317 98.5628 66.3549 96.0296 65.3901 94.0197C65.2653 93.7622 64.916 93.3137 64.5999 93.0064C64.1175 92.533 63.7349 92.3004 62.1213 91.5114C59.443 90.1991 58.9107 89.6343 59.0687 88.2972C59.1519 87.6327 59.5012 87.1427 60.1167 86.8354C60.5409 86.6194 60.7738 86.5779 61.4226 86.5779C62.3874 86.5779 62.7784 86.6776 63.7515 87.1759C64.5833 87.5995 64.758 87.6327 64.8494 87.4002C64.9659 87.1095 64.9077 86.1377 64.7663 85.9301C64.575 85.6643 63.6018 85.2324 62.7784 85.058C61.9549 84.8836 60.8237 84.8753 60.0835 85.058ZM44.8373 85.2158C44.7458 85.3072 44.7209 87.0264 44.7209 92.3586V99.385L44.9621 99.6259L45.2033 99.8667H48.6801C51.3417 99.8667 52.1734 99.8335 52.2566 99.7422C52.4063 99.5511 52.4729 98.9781 52.3897 98.596L52.3148 98.2555L49.5284 98.2056L46.7421 98.1558L46.7171 91.7024C46.7005 86.6942 46.6672 85.2324 46.5757 85.1743C46.3678 85.058 44.9704 85.0829 44.8373 85.2158ZM70.9795 88.8868C70.5054 88.9616 69.5572 89.3354 69.1663 89.6011C68.2264 90.2407 67.561 91.2622 67.1867 92.6326C66.9538 93.5047 66.9538 95.6558 67.1867 96.5445C67.6691 98.3634 68.7338 99.4681 70.4306 99.9166C71.1708 100.108 73.0423 100.108 73.9572 99.9166C74.8222 99.7339 75.7205 99.4016 75.8869 99.2106C76.0449 99.0279 76.0366 98.0395 75.8786 97.8817C75.7954 97.7987 75.5376 97.8568 74.8472 98.0894C72.1939 98.9864 70.1478 98.596 69.3576 97.0429C69.1247 96.5861 68.9084 95.6725 68.9084 95.1575V94.8834H72.2771C74.4064 94.8834 75.7538 94.8419 75.9451 94.7755C76.3776 94.626 76.4941 94.2522 76.4192 93.2888C76.2695 91.3785 75.6291 90.1825 74.3731 89.4267C73.5746 88.945 72.0941 88.7041 70.9795 88.8868ZM72.7761 90.4234C73.7742 90.7224 74.3897 91.5695 74.4812 92.7406L74.5311 93.4134H68.8918L68.9583 93.0064C69.133 91.9931 69.5572 91.2373 70.2143 90.7888C70.9546 90.2822 71.8778 90.1493 72.7761 90.4234ZM82.4162 88.9118C81.9504 89.0613 81.2767 89.6011 80.7943 90.2074L80.3285 90.8054L80.2786 89.9333L80.2287 89.0613L79.6464 89.028C79.3221 89.0114 78.9644 89.0197 78.8396 89.053L78.6151 89.1028V94.4266C78.6151 99.194 78.6317 99.7505 78.7731 99.8086C78.9727 99.8834 80.1289 99.8834 80.3202 99.8086C80.4616 99.7588 80.4782 99.3518 80.4782 96.2788V92.8071L80.9107 92.2008C81.5013 91.3702 82.2665 90.6975 82.7073 90.6144C82.9402 90.5729 83.3062 90.6061 83.7387 90.7141C84.1629 90.822 84.4457 90.847 84.5039 90.7888C84.5538 90.739 84.5871 90.3403 84.5705 89.925C84.5455 89.1775 84.5289 89.1443 84.2544 89.0197C83.9134 88.8536 82.7905 88.7872 82.4162 88.9118ZM99.2843 88.9201C98.5107 89.053 97.4128 89.6177 96.8472 90.1825C95.7743 91.2539 95.3251 92.7323 95.4 94.925C95.4665 96.9017 95.8325 97.8817 96.8722 98.8535C97.862 99.792 98.91 100.099 100.806 100.041C102.195 99.9913 103.443 99.7172 104.017 99.3352C104.3 99.1442 104.333 99.0694 104.358 98.5877C104.375 98.297 104.341 97.9897 104.291 97.9066C104.192 97.7488 104.275 97.7322 102.62 98.2555C101.946 98.4631 101.588 98.5129 100.757 98.5212C99.1096 98.5296 98.2612 98.0894 97.7039 96.9598C97.471 96.4864 97.3879 96.1542 97.3463 95.606L97.2964 94.8834L100.823 94.8585C105.057 94.8253 104.774 94.9167 104.766 93.6127C104.757 91.3204 103.767 89.7257 101.979 89.1028C101.33 88.8869 100.025 88.7955 99.2843 88.9201ZM101.131 90.4317C102.104 90.7224 102.744 91.5861 102.877 92.8071L102.944 93.4134H97.3047L97.3629 92.9233C97.5043 91.7273 98.3278 90.6975 99.3924 90.3735C99.8 90.249 100.598 90.2822 101.131 90.4317ZM110.846 88.9035C110.214 89.1111 109.34 89.842 108.858 90.5646C108.7 90.8054 108.691 90.7888 108.691 90.0247C108.691 89.543 108.65 89.1942 108.575 89.1277C108.417 88.9699 107.203 88.9699 107.045 89.1277C106.878 89.2938 106.878 99.5844 107.045 99.7505C107.203 99.9083 108.608 99.9083 108.766 99.7505C108.85 99.6674 108.883 98.7372 108.883 96.204V92.7738L109.249 92.234C109.789 91.4283 110.471 90.7971 110.946 90.6559C111.353 90.5313 111.511 90.548 112.601 90.8303C112.909 90.9134 113 90.739 113 90.0828C113 89.352 112.933 89.1526 112.626 89.0114C112.31 88.8702 111.17 88.7955 110.846 88.9035ZM84.795 89.1609C84.6952 89.2855 84.9947 90.1991 86.5085 94.4183C87.5149 97.2256 88.4215 99.6093 88.5213 99.7172C88.8956 100.099 90.7504 100.008 90.9168 99.601C91.0415 99.2771 94.4767 89.7506 94.5433 89.5264C94.6597 89.136 94.4518 89.0197 93.6117 89.0197C93.1209 89.0197 92.8132 89.0613 92.755 89.1443C92.7051 89.2108 92.0064 91.1958 91.2079 93.5546C90.4094 95.9133 89.7274 97.807 89.6858 97.7571C89.6442 97.7156 88.9622 95.7887 88.172 93.4715C87.3818 91.1543 86.6831 89.2108 86.6249 89.136C86.4752 88.945 84.9448 88.9699 84.795 89.1609Z" fill="white"/>
</svg>
