<svg width="128" height="128" viewBox="0 0 128 128" fill="none" xmlns="http://www.w3.org/2000/svg">
<path fill-rule="evenodd" clip-rule="evenodd" d="M63.6135 88.0208C64.7854 88.99 66.1594 89.4033 67.6426 89.4798C68.256 89.5119 68.8871 89.4818 69.4907 89.3719C70.4481 89.198 71.4029 88.9795 72.3342 88.699C74.2307 88.1268 75.8695 87.138 77.0931 85.541C77.7902 84.6307 78.3624 83.6464 78.73 82.5582C79.0334 81.6603 79.3185 80.7533 79.5455 79.8345C79.7247 79.1105 79.8136 78.363 79.9221 77.6234C79.9947 77.1342 80.0386 76.6398 80.0837 76.1461C80.1569 75.345 80.2334 74.5452 80.2864 73.7421C80.3237 73.1836 80.3224 72.6225 80.344 72.0634C80.3511 71.8927 80.3786 71.7233 80.395 71.5539C80.4087 71.3963 80.4885 71.342 80.6494 71.3447C81.2144 71.3532 81.7807 71.3675 82.3451 71.342C82.9775 71.3139 83.6145 71.2864 84.237 71.1825C85.123 71.0341 86.0019 70.8464 86.8712 70.6201C87.8966 70.3513 88.8377 69.8706 89.7441 69.3239C90.7983 68.6863 91.7609 67.9388 92.5398 66.9755C93.2193 66.1371 93.541 65.1653 93.3769 64.1052C93.1388 62.5651 91.8446 61.5561 90.3399 61.4874C89.7945 61.4625 89.2412 61.5201 88.6984 61.5888C88.0412 61.6725 87.3937 61.8203 86.7385 61.9177C86.2859 61.9857 85.8275 62.0158 85.3762 62.0629L85.3638 62.004C86.2074 60.4103 87.0864 58.8349 87.8842 57.2196C88.497 55.9797 89.0202 54.6959 89.561 53.4207C90.4569 51.3097 91.1717 49.1339 91.7642 46.9216C92.3312 44.804 92.8164 42.6636 92.9701 40.4662C93.0316 39.5893 93.0741 38.7084 93.0682 37.8301C93.0643 37.129 92.9884 36.4273 92.9185 35.7289C92.8387 34.9284 92.5967 34.1698 92.2619 33.44C91.8211 32.4774 91.1364 31.688 90.4164 30.9386C89.8402 30.3382 89.2059 29.7915 88.5774 29.2448C87.6808 28.4653 86.6724 27.842 85.6261 27.2894C84.44 26.6594 83.1834 26.1721 81.8827 25.8376C81.0902 25.6378 80.2925 25.4588 79.4905 25.3007C79.2054 25.2432 78.9177 25.0967 78.6306 25.0967H73.2235C73.028 25.0967 72.8344 25.2249 72.6376 25.2464C71.3435 25.3877 70.0658 25.6515 68.8217 26.0345C68.3574 26.1777 67.9336 26.094 67.4922 26.0528C67.1534 26.0214 66.8205 25.9344 66.4818 25.9174C65.1928 25.8533 63.9025 25.7605 62.6129 25.7742C61.3782 25.7873 60.156 25.9913 58.9612 26.3301C57.9612 26.6152 56.9823 26.9611 56.085 27.4876C55.7018 27.7126 55.397 27.67 55.0001 27.5563C53.6669 27.1657 52.3222 26.8159 50.9677 26.5073C50.1234 26.3183 49.2543 26.2228 48.3917 26.1339C47.5639 26.0479 46.7329 25.9962 45.9008 25.9789C45.0885 25.9612 44.2711 25.9619 43.4621 26.0338C42.1745 26.1483 40.9116 26.4098 39.6835 26.8323C38.3297 27.2952 37.0647 27.9854 35.9428 28.8733C34.7983 29.7791 33.8802 30.8836 33.1432 32.1465C32.3656 33.4786 31.8313 34.9049 31.5004 36.4018C31.3205 37.2134 31.3866 38.0479 31.263 38.8719C31.2251 39.1269 31.3016 39.3833 31.3016 39.6396V43.2266C31.3016 43.4647 31.2316 43.7034 31.2617 43.9427C31.3356 44.5176 31.3101 45.097 31.4075 45.6679C31.5605 46.5717 31.6985 47.4722 31.8843 48.3694C32.1439 49.6231 32.3917 50.8754 32.6795 52.1232C32.8888 53.0316 33.1157 53.9347 33.3648 54.8326C33.7441 56.2046 34.1143 57.5786 34.544 58.9343C34.9435 60.1945 35.3987 61.4364 35.8532 62.6789C36.476 64.3971 37.2393 66.0609 38.1355 67.6537C38.917 69.0342 39.8084 70.3271 41.0052 71.3898C41.7945 72.0908 42.6715 72.629 43.6923 72.8985C44.4898 73.1103 45.3256 73.1336 46.1336 72.9665C47.0702 72.7761 47.9452 72.3572 48.6808 71.7468C48.7671 71.6769 48.8606 71.6226 48.9633 71.7521C49.3518 72.2439 49.871 72.5721 50.4145 72.8553C51.8806 73.6205 53.4783 73.85 55.1008 73.9429C55.4945 73.9651 55.8908 73.9089 56.2864 73.8984C57.0588 73.8768 57.8082 73.7264 58.5452 73.5132C58.9324 73.4014 59.3097 73.2588 59.7034 73.1267C59.7237 73.5459 59.7498 73.9487 59.7629 74.3522L59.8172 76.5515C59.8277 76.8864 59.8407 77.2212 59.8715 77.5547C59.9513 78.414 60.0291 79.2734 60.1318 80.1301C60.2024 80.7206 60.2769 81.315 60.4156 81.8918C60.6943 83.0542 61.0755 84.1896 61.5548 85.2846C62.0136 86.3475 62.7194 87.2855 63.6135 88.0208ZM61.2651 77.0551C61.2187 76.0225 61.184 74.9894 61.1611 73.9559C61.1336 72.6859 61.1245 71.4153 61.1068 70.1453L61.1036 70.0969C60.4581 70.4847 59.8218 70.9085 59.1489 71.2583C58.3595 71.6684 57.5028 71.9058 56.6154 71.9731C55.9202 72.0254 55.2146 72.0732 54.5227 72.0182C53.3874 71.926 52.2521 71.7488 51.2358 71.189C50.8238 70.9621 50.3935 70.6854 50.109 70.3238C49.4283 69.4547 49.7546 68.3567 50.7813 67.8283C51.4909 67.462 52.2652 67.3097 53.0342 67.1318C53.7037 66.98 54.3661 66.7989 55.0197 66.589C55.6645 66.3778 56.0713 65.8546 56.4735 65.3412L57.1104 64.5225L56.3446 64.4427C55.5847 64.372 54.8595 64.1621 54.1663 63.8548C53.5738 63.5925 53.5646 63.5637 53.1291 64.0359C52.4032 64.8239 51.6969 65.6316 50.9847 66.4333C50.4609 67.0232 49.941 67.6164 49.4185 68.2082C48.9031 68.7935 48.4192 69.4115 47.8627 69.9556C47.0374 70.7639 46.042 71.2498 44.8544 71.1949C44.0925 71.1596 43.3954 70.8928 42.7676 70.4566C41.4734 69.5554 40.6017 68.2932 39.8071 66.9689C38.7902 65.2712 38.0087 63.463 37.341 61.6058C36.8786 60.3214 36.4136 59.0363 36.0108 57.7336C35.572 56.3178 35.1868 54.8856 34.8082 53.4521C34.5217 52.3711 34.268 51.2809 34.026 50.1888C33.7475 48.9474 33.4898 47.7014 33.253 46.4514C33.0954 45.6071 33.0045 44.7504 32.877 43.9009C32.705 42.7545 32.6736 41.5989 32.7364 40.4486C32.792 39.412 32.9404 38.3788 33.0882 37.3494C33.2929 35.9251 33.7625 34.5812 34.4374 33.3118C34.8537 32.5383 35.3639 31.8192 35.9565 31.1707C36.9309 30.0923 38.11 29.3135 39.4219 28.7282C40.3381 28.3194 41.3066 28.0742 42.2935 27.8813C43.7584 27.5961 45.2363 27.6079 46.7143 27.638C47.3604 27.6517 48.0046 27.7688 48.65 27.8335C50.0404 27.9715 51.4026 28.2645 52.7478 28.6248C53.7288 28.8877 54.6894 29.2291 55.6612 29.5247C55.758 29.5541 55.9012 29.5515 55.9817 29.4998C57.2994 28.6392 58.7388 28.0716 60.2711 27.7466C60.8524 27.6236 61.4528 27.5693 62.0472 27.5314C62.7692 27.4863 63.4984 27.4431 64.2191 27.4856C65.0856 27.5353 65.9495 27.6629 66.8107 27.7806C67.2293 27.8381 67.6374 27.9826 68.0559 28.0219C68.2573 28.0408 68.4699 27.895 68.6817 27.8453C69.7634 27.5948 70.8405 27.3169 71.932 27.1201C72.7442 26.9736 73.5747 26.9042 74.4 26.8572C75.3221 26.8042 76.2495 26.7656 77.1702 26.8101C78.3343 26.8663 79.4899 27.0318 80.6304 27.2973C82.0443 27.6262 83.3993 28.1036 84.6883 28.7667C85.6516 29.2631 86.5665 29.8373 87.3911 30.5436C87.9313 31.0072 88.4846 31.4644 88.9718 31.981C89.5734 32.618 90.1868 33.2543 90.5648 34.0698C90.8493 34.6852 91.052 35.3221 91.1083 35.9951C91.1776 36.8328 91.262 37.6731 91.2548 38.5122C91.2476 39.3139 91.1377 40.1151 91.0605 40.9155C90.8833 42.7388 90.4877 44.5228 90.0057 46.2833C89.6035 47.7375 89.1478 49.1763 88.6395 50.5969C88.1759 51.9068 87.6403 53.1925 87.0994 54.4736C86.7008 55.4221 86.268 56.3559 85.802 57.2732C84.9165 59.0075 83.9957 60.7242 82.9304 62.3591C82.7466 62.641 82.572 62.93 82.3928 63.2184C82.8578 63.5317 83.3843 63.6422 83.914 63.6998C84.4182 63.754 84.9322 63.7874 85.4358 63.7495C86.2421 63.6893 87.0458 63.5742 87.8476 63.4624C88.6415 63.3512 89.4191 63.1256 90.2352 63.1851C91.0488 63.2446 91.6321 63.8633 91.5765 64.6258C91.5412 65.1084 91.3195 65.5224 90.9991 65.8762C89.4851 67.5464 87.5847 68.5587 85.4109 69.0577C84.5849 69.2474 83.7335 69.3448 82.8879 69.4239C82.1658 69.4877 81.4403 69.5047 80.7161 69.475C80.185 69.4553 79.6586 69.3337 79.1158 69.2552C79.0609 69.7516 79.0092 70.2689 78.9464 70.7842L78.6933 72.7611C78.6168 73.3876 78.5573 74.0168 78.4782 74.6433C78.401 75.2515 78.3049 75.8564 78.2238 76.4639C78.1486 77.0296 78.093 77.5985 78.008 78.1636C77.8792 79.0294 77.7556 79.8972 77.5862 80.7566C77.3834 81.7833 77.0735 82.7773 76.5653 83.704C75.9467 84.8347 75.0697 85.696 73.9527 86.3336C72.8017 86.9908 71.5429 87.3329 70.2683 87.6193C69.3645 87.8227 68.4352 87.8554 67.5203 87.7723C65.9344 87.6291 64.5807 86.9509 63.5573 85.7208C62.5809 84.547 61.9197 83.2024 61.6836 81.6793C61.5725 80.9546 61.4861 80.2263 61.4247 79.4957C61.3539 78.6834 61.3007 77.8697 61.2651 77.0551ZM63.0478 66.6217C63.0576 67.1645 63.0014 67.7073 63.004 68.2501C63.0151 70.7764 63.0334 73.3033 63.055 75.8302C63.0589 76.2429 63.0792 76.6568 63.1086 77.0688C63.1708 77.9321 63.2322 78.796 63.3159 79.6566C63.3761 80.268 63.4578 80.8775 63.554 81.4844C63.6913 82.3431 64.0824 83.1082 64.5258 83.84C64.9077 84.4691 65.4054 85.0028 66.06 85.3716C67.173 85.9975 68.3705 86.0498 69.5777 85.8196C70.3932 85.6646 71.1949 85.4141 71.9862 85.1558C72.7651 84.906 73.4761 84.4807 74.0646 83.9126C74.6198 83.375 75.0135 82.7191 75.279 81.9952C75.7936 80.5918 75.9552 79.1131 76.1677 77.6469C76.2475 77.0976 76.3168 76.547 76.3894 75.997C76.4725 75.3711 76.5562 74.7459 76.636 74.1201C76.6961 73.6532 76.7497 73.1869 76.8066 72.7206C76.8884 72.0509 76.9741 71.3819 77.0519 70.7123C77.1114 70.1943 77.1611 69.6744 77.2147 69.1552C77.2827 68.4914 77.3553 67.8296 77.4148 67.1645C77.4593 66.6609 77.441 66.1476 77.5306 65.6525C77.6947 64.7455 78.1237 63.9738 78.9281 63.4741C79.2643 63.2662 79.6449 63.1288 80.0176 62.9523L79.9535 62.8548C79.6089 62.4075 79.2558 61.9674 78.9177 61.5149C78.3866 60.8046 78.0047 60.0127 77.6208 59.2168C77.2572 58.4621 76.8125 57.748 76.43 57.0018C75.7623 55.7004 75.0821 54.4023 74.4667 53.0767C73.6931 51.4091 73.0836 49.6839 72.892 47.8371C72.8102 47.0563 72.7893 46.2754 72.9482 45.5018C73.2013 44.2658 73.8461 43.2992 74.9317 42.6361C75.9388 42.0214 77.0604 41.8226 78.2094 41.7604C78.9222 41.7219 79.6396 41.7532 80.3793 41.7532L80.3551 41.6283C79.8947 40.6657 79.465 39.6867 78.9608 38.7476C78.2506 37.4214 77.3403 36.2259 76.3279 35.1161C75.5809 34.2909 74.76 33.5357 73.8756 32.8599C73.0005 32.1975 72.0785 31.6056 71.0942 31.1223C69.925 30.5408 68.6902 30.1016 67.4163 29.8144C66.1836 29.541 64.9443 29.3736 63.6795 29.3599C62.6018 29.3481 61.5306 29.3978 60.4803 29.6405C58.8951 30.0073 57.4453 30.66 56.1851 31.7168C55.4871 32.3019 54.8635 32.9704 54.3285 33.7075C53.6961 34.574 53.1873 35.5118 52.7517 36.4934C52.154 37.8412 51.744 39.2427 51.4628 40.684C51.3228 41.4034 51.2129 42.1273 51.1011 42.8513C51.0619 43.1057 51.0593 43.364 51.0357 43.655L51.5144 43.4058L51.9814 43.1966C53.562 42.4739 55.1989 42.0089 56.9581 42.0619C57.7062 42.0842 58.4203 42.2326 59.0861 42.5602C60.3613 43.1894 61.1068 44.2586 61.4312 45.611C61.6549 46.5449 61.8085 47.497 61.9576 48.4473C62.0741 49.1889 62.1937 49.9383 62.2068 50.6865C62.2258 51.7799 62.1708 52.8759 62.1113 53.9687C62.0604 54.898 61.8681 55.814 61.5411 56.6853C60.9499 58.2653 60.2907 59.8198 59.6753 61.3906C59.4719 61.9099 59.3156 62.4468 59.124 63.0177L59.9009 63.0183C59.9951 63.0203 60.0912 63.0229 60.1821 63.0445C60.8891 63.2113 61.5031 63.5317 62.006 64.0758C62.6783 64.7978 63.0302 65.6427 63.0478 66.6217ZM49.5453 59.1305C49.1446 58.1875 48.9029 57.1847 48.8299 56.1628C48.7619 55.1988 48.8763 54.2401 48.9757 53.2801C49.0712 52.3508 49.1523 51.4169 49.1798 50.4844C49.2262 48.9495 49.1229 47.4186 49.0496 45.885C49.0058 44.9721 49.1117 44.048 49.1928 43.1331C49.2661 42.3091 49.3576 41.4832 49.5139 40.6709C49.7749 39.3081 50.1221 37.9648 50.6159 36.6628C51.0835 35.4281 51.6223 34.2267 52.3809 33.1444C52.9021 32.4015 53.492 31.709 54.059 30.983L53.8903 30.9229C52.0441 30.3369 50.1673 29.8778 48.2361 29.6784C47.3238 29.5836 46.4076 29.5286 45.4927 29.4737C45.2115 29.4573 44.9264 29.4953 44.6445 29.5221C43.9467 29.5894 43.2398 29.6156 42.5531 29.7464C41.3845 29.9687 40.2629 30.3428 39.2251 30.9517C38.3066 31.4921 37.5014 32.2052 36.8538 33.0515C36.1298 33.9874 35.6413 35.0455 35.2914 36.1729C34.8781 37.5038 34.6806 38.8738 34.6277 40.2557C34.5812 41.4675 34.5583 42.6858 34.7676 43.893C34.9226 44.7909 35.0266 45.6993 35.1979 46.5946C35.4283 47.8153 35.6869 49.0304 35.9735 50.2391C36.3875 51.9682 36.8021 53.6986 37.2932 55.4068C37.7628 57.0424 38.2918 58.6636 38.8673 60.2658C39.3369 61.5731 39.8803 62.8561 40.4526 64.1216C40.8253 64.9462 41.2766 65.7401 41.75 66.5118C42.2529 67.3319 42.8258 68.1101 43.6014 68.7052C44.5817 69.456 45.3397 69.5731 46.3363 68.7484C46.7627 68.3959 47.123 67.9591 47.4945 67.5438C48.0837 66.8846 48.6527 66.2058 49.2399 65.5433C49.9874 64.7003 50.7441 63.8659 51.4955 63.0255C51.6544 62.8483 51.8081 62.6652 51.9624 62.486L51.7054 62.2617C50.7789 61.3766 50.0437 60.3109 49.5453 59.1305ZM77.889 34.0162C78.5036 34.7301 79.0866 35.4707 79.6364 36.2357C80.6901 37.7133 81.5382 39.3273 82.1574 41.0332C82.4321 41.7886 82.6518 42.5511 82.5537 43.377C82.4857 43.9558 82.4903 44.5424 82.4399 45.1245C82.3974 45.6084 82.3202 46.0897 82.2581 46.5723C82.1639 47.2996 82.0279 48.0255 81.9874 48.7559C81.9481 49.4518 81.9893 50.1541 82.0332 50.8506C82.077 51.5588 82.1725 52.2638 82.2372 52.9701C82.3104 53.7725 82.4098 54.573 82.4321 55.3767C82.4504 56.0359 82.3915 56.6984 82.3346 57.3576C82.2615 58.1474 82.0697 58.9217 81.7657 59.6543C81.5545 60.1736 81.3027 60.6758 81.0653 61.1951L81.1608 61.2958L81.3059 61.4083L81.4531 61.1467C82.688 59.2036 83.7852 57.1763 84.7367 55.0798C85.3467 53.7266 85.9254 52.3594 86.4723 50.9794C87.325 48.8343 88.0139 46.6276 88.5329 44.3783C88.7684 43.3685 88.9489 42.3431 89.1084 41.3177C89.2333 40.5159 89.3367 39.705 89.3602 38.8961C89.3844 38.0381 89.3373 37.1735 89.2582 36.3181C89.1987 35.672 89.0391 35.022 88.635 34.4955C87.9836 33.6499 87.2812 32.8416 86.4174 32.2014C85.6895 31.6632 84.9636 31.1093 84.1834 30.6567C82.9454 29.938 81.6055 29.4606 80.2053 29.1349C78.8379 28.8165 77.4541 28.6791 76.0611 28.6497C75.2397 28.632 74.4144 28.7203 73.595 28.7981C72.8521 28.8675 72.1138 28.9865 71.3663 29.0846C72.1687 29.5358 72.9607 29.9374 73.7062 30.4102C75.2757 31.4042 76.683 32.6003 77.889 34.0162ZM57.4982 61.851C58.0051 60.2292 58.6963 58.6792 59.3653 57.1215C59.9088 55.8574 60.205 54.5266 60.3038 53.1585C60.3528 52.4842 60.3397 51.8015 60.3064 51.1253C60.2739 50.3729 60.2049 49.6226 60.0997 48.8769C59.9591 47.9261 59.7996 46.9745 59.5746 46.0413C59.3307 45.0316 58.7159 44.3279 57.6617 44.0683C57.0202 43.9107 56.3819 43.9172 55.7325 44.0199C54.148 44.2691 52.6975 44.8531 51.3464 45.7084C51.0743 45.8804 50.9239 46.0197 50.9716 46.4088C51.071 47.2355 51.0926 48.0752 51.0887 48.909C51.0835 50.0894 51.0331 51.2698 50.9886 52.4495C50.9742 52.8334 50.9187 53.2167 50.8768 53.5992C50.814 54.1852 50.6917 54.7705 50.6957 55.3558C50.6996 55.9587 50.7611 56.5754 50.9075 57.1594C51.3725 59.0115 52.3561 60.5261 53.9694 61.5953C54.9615 62.2532 56.0589 62.5841 57.2641 62.6475C57.3439 62.3709 57.4178 62.11 57.4982 61.851ZM55.6043 45.9668C55.3918 45.5214 55.5134 45.1519 56.0052 44.9806C56.1256 44.9394 56.2485 44.8936 56.3728 44.8818C56.5448 44.8648 56.7181 44.8773 56.8914 44.8773C57.5159 44.8812 58.1162 44.9682 58.6309 45.3645C58.9618 45.6195 59.0508 45.9563 58.8363 46.3042C58.5322 46.7966 58.0698 47.0438 57.5009 47.0909C56.6056 47.1648 55.9771 46.7476 55.6043 45.9668ZM80.4388 45.8039L80.6422 44.0219C80.6716 43.7838 80.5467 43.7184 80.3466 43.7125C79.7168 43.6955 79.0877 43.6726 78.4579 43.6622C77.749 43.6491 77.0578 43.7629 76.4012 44.0323C75.6727 44.3325 75.1181 44.8125 74.8912 45.6058C74.7251 46.1903 74.6727 46.8012 74.7368 47.4055C74.8253 48.3405 75.0371 49.2596 75.3666 50.1391C75.8074 51.3116 76.2678 52.4836 76.8191 53.6071C77.5652 55.1275 78.4089 56.6003 79.2015 58.0979C79.4127 58.4974 79.5919 58.9153 79.8123 59.3816C80.2573 58.454 80.5003 57.4425 80.5251 56.4139C80.5467 55.5631 80.4793 54.7103 80.4296 53.8595C80.3989 53.3389 80.325 52.821 80.2746 52.3018C80.2047 51.5785 80.0974 50.8545 80.0804 50.1293C80.0641 49.3916 80.1164 48.65 80.1792 47.913C80.238 47.208 80.3544 46.5076 80.4388 45.8039ZM79.0203 45.2324C78.7862 45.8778 78.2866 46.2427 77.6378 46.3493C77.0336 46.4494 76.5039 46.2264 76.1102 45.7438C75.8296 45.4004 75.9369 44.9943 76.3574 44.7615C76.84 44.4947 77.3704 44.4273 77.9962 44.3868C78.1669 44.4175 78.4219 44.4443 78.6652 44.513C79.0177 44.6124 79.1485 44.8792 79.0203 45.2324ZM60.3181 65.1149C59.9729 64.8324 59.5151 64.8161 59.1868 65.1261C58.7787 65.5119 58.4197 65.9527 58.0606 66.3869C57.6467 66.8892 57.2569 67.411 56.7233 67.8001C55.9457 68.3658 55.0374 68.5999 54.1257 68.8216C53.4011 68.9982 52.6726 69.1624 51.946 69.3311L51.9369 69.4253C52.1527 69.5247 52.3613 69.6496 52.5869 69.7208C53.6954 70.0714 54.8235 70.2466 55.9954 70.1472C56.8403 70.0746 57.646 69.8902 58.4092 69.5286C59.4601 69.0309 60.2691 68.2416 60.9564 67.3247C61.0715 67.1717 61.1238 66.9454 61.1369 66.7479C61.1833 66.0508 60.8295 65.5322 60.3181 65.1149ZM80.5552 64.8128C80.0117 64.9953 79.5697 65.2732 79.4382 65.8611C79.3486 66.2587 79.3159 66.6701 79.2813 67.0775C79.2747 67.1494 79.3643 67.2815 79.4323 67.2999C79.8509 67.4104 80.272 67.5405 80.6997 67.5791C81.2262 67.6268 81.7611 67.6118 82.2908 67.5856C82.8624 67.5569 83.4379 67.5196 84.0016 67.4254C85.3285 67.2018 86.6135 66.8395 87.7541 66.0861C88.1661 65.8147 88.5728 65.5374 88.9822 65.2614L88.9482 65.2032C88.512 65.268 88.0771 65.3471 87.639 65.3935C86.747 65.489 85.8543 65.5897 84.959 65.6414C84.5267 65.6662 84.0886 65.5832 83.653 65.5479C82.9219 65.4884 82.2078 65.3262 81.5898 64.9351C81.2334 64.7101 80.9351 64.6853 80.5552 64.8128Z" fill="white"/>
<path d="M24 89.9598C24.939 89.8075 25.889 89.7335 26.8402 89.7387C28.3018 89.7387 29.3737 90.0788 30.0538 90.6909C30.6829 91.235 31.057 92.0682 31.057 93.089C31.057 94.1262 30.7503 94.9424 30.1722 95.5375C29.39 96.3706 28.1148 96.7957 26.6695 96.7957C26.2274 96.7957 25.8193 96.7787 25.4799 96.6937V101.285H24V89.9598ZM25.4799 95.4858C25.803 95.5708 26.2111 95.6048 26.7042 95.6048C28.4888 95.6048 29.5777 94.7377 29.5777 93.1564C29.5777 91.6431 28.5065 90.912 26.8742 90.912C26.2281 90.912 25.735 90.963 25.4799 91.031V95.4858ZM40.0176 97.1011C40.0176 100.145 37.9086 101.472 35.9192 101.472C33.6918 101.472 31.9745 99.8393 31.9745 97.2371C31.9745 94.4826 33.7768 92.8673 36.0552 92.8673C38.4193 92.8667 40.0176 94.5846 40.0176 97.1011ZM33.4884 97.1861C33.4884 98.9885 34.5256 100.349 35.9879 100.349C37.4162 100.349 38.4867 99.0055 38.4867 97.1521C38.4867 95.7579 37.7902 93.9895 36.0212 93.9895C34.2523 93.9895 33.4884 95.6218 33.4884 97.1861ZM41.7003 99.7536C42.1424 100.043 42.9245 100.349 43.6727 100.349C44.7609 100.349 45.271 99.8046 45.271 99.1245C45.271 98.4104 44.8465 98.0193 43.7407 97.6112C42.2614 97.0841 41.5643 96.268 41.5643 95.2818C41.5643 93.9555 42.6355 92.8673 44.4038 92.8673C45.237 92.8673 45.9688 93.1054 46.4278 93.3774L46.0538 94.4656C45.5477 94.1538 44.9649 93.9889 44.3705 93.9895C43.4863 93.9895 42.9932 94.4996 42.9932 95.1117C42.9932 95.7919 43.4869 96.0979 44.5581 96.506C45.9864 97.0501 46.7175 97.7642 46.7175 98.9885C46.7175 100.434 45.5953 101.454 43.64 101.454C42.7388 101.454 41.9056 101.233 41.3275 100.893L41.7003 99.7536ZM50.4406 90.6903V93.0537H52.5823V94.1929H50.4406V98.6307C50.4406 99.6509 50.729 100.229 51.5628 100.229C51.8551 100.233 52.1466 100.199 52.43 100.127L52.498 101.249C52.2096 101.368 51.7498 101.453 51.1724 101.453C50.4752 101.453 49.9135 101.232 49.5564 100.824C49.132 100.382 48.9783 99.6509 48.9783 98.6818V94.1929H47.7031V93.0537H48.9783V91.0813L50.4406 90.6903ZM61.2546 93.0544C61.2199 93.6495 61.1866 94.3126 61.1866 95.3158V100.094C61.1866 101.981 60.8125 103.137 60.0134 103.852C59.2142 104.6 58.058 104.838 57.0208 104.838C56.0346 104.838 54.9464 104.6 54.2826 104.158L54.6567 103.019C55.2008 103.359 56.051 103.665 57.0712 103.665C58.6015 103.665 59.7237 102.866 59.7237 100.791V99.8733H59.6897C59.2306 100.638 58.3464 101.251 57.0712 101.251C55.0308 101.251 53.5685 99.5162 53.5685 97.2371C53.5685 94.4486 55.3879 92.8673 57.2752 92.8673C58.7041 92.8673 59.4863 93.6155 59.8433 94.2956H59.8773L59.9454 93.0544H61.2546ZM59.7073 96.302C59.7073 96.0469 59.6903 95.8259 59.6223 95.6218C59.3503 94.7547 58.6191 94.0405 57.5309 94.0405C56.102 94.0405 55.0825 95.2478 55.0825 97.1521C55.0825 98.7674 55.8986 100.111 57.5139 100.111C58.4321 100.111 59.2652 99.5326 59.5883 98.5804C59.6733 98.3253 59.708 98.0363 59.708 97.7812V96.302H59.7073ZM63.5664 95.6218C63.5664 94.6527 63.5494 93.8195 63.4984 93.0544H64.8083L64.8586 94.6697H64.9266C65.3007 93.5645 66.2019 92.8673 67.2051 92.8673C67.3751 92.8673 67.4935 92.8843 67.6295 92.9183V94.3296C67.4622 94.2932 67.2913 94.2761 67.12 94.2786C66.0658 94.2786 65.3171 95.0777 65.1137 96.1999C65.0717 96.43 65.0489 96.6632 65.0457 96.8971V101.284H63.5664V95.6218ZM69.7902 97.4412C69.8242 99.4646 71.1158 100.298 72.6121 100.298C73.6839 100.298 74.3294 100.111 74.8905 99.8726L75.1455 100.944C74.6184 101.182 73.7173 101.454 72.408 101.454C69.8746 101.454 68.3613 99.7876 68.3613 97.3051C68.3613 94.8227 69.8235 92.8667 72.221 92.8667C74.9075 92.8667 75.6216 95.2301 75.6216 96.7434C75.6216 97.0494 75.5876 97.2875 75.5706 97.4405H69.7902V97.4412ZM74.177 96.37C74.1934 95.4178 73.7853 93.9385 72.1026 93.9385C70.5893 93.9385 69.9262 95.3328 69.8065 96.37H74.177ZM77.3219 99.4816C78.1236 99.963 79.0394 100.221 79.9744 100.23C81.4877 100.23 82.3719 99.4305 82.3719 98.2743C82.3719 97.2031 81.7598 96.591 80.2125 95.9959C78.3421 95.3328 77.1859 94.3636 77.1859 92.7483C77.1859 90.963 78.6652 89.6367 80.8926 89.6367C82.0658 89.6367 82.916 89.9088 83.4261 90.1978L83.018 91.405C82.3491 91.0455 81.601 90.8584 80.8416 90.8609C79.2773 90.8609 78.6822 91.7961 78.6822 92.5783C78.6822 93.6495 79.3787 94.1766 80.9606 94.7887C82.899 95.5375 83.8852 96.472 83.8852 98.1553C83.8852 99.9236 82.5759 101.454 79.8724 101.454C78.7672 101.454 77.56 101.131 76.9472 100.723L77.3219 99.4816ZM95.3623 102.967C93.8842 102.579 92.4209 102.137 90.9755 101.641C90.7374 101.556 90.4994 101.471 90.2784 101.471C87.5579 101.369 85.2284 99.3625 85.2284 95.6728C85.2284 92.0002 87.4728 89.6367 90.5674 89.6367C93.679 89.6367 95.703 92.0512 95.703 95.4348C95.703 98.3763 94.3428 100.264 92.4384 100.927V100.995C93.5776 101.284 94.8189 101.556 95.788 101.726L95.3623 102.967ZM94.1381 95.5028C94.1381 93.2074 92.9485 90.8433 90.5164 90.8433C88.0169 90.8433 86.7927 93.1557 86.8097 95.6388C86.7927 98.0703 88.136 100.264 90.4484 100.264C92.8125 100.264 94.1381 98.1213 94.1381 95.5028ZM97.6231 89.8238H99.103V100.043H104V101.284H97.6231V89.8238Z" fill="white"/>
</svg>
