<svg width="128" height="128" viewBox="0 0 128 128" fill="none" xmlns="http://www.w3.org/2000/svg">
<path fill-rule="evenodd" clip-rule="evenodd" d="M76.242 44.447C74.5465 39.1216 71.8269 34.4084 67.9945 30.3526C67.0257 29.3267 65.9487 28.3868 65.2729 27.1106C64.8458 26.3028 64.4388 25.4837 64.0228 24.6706L63.7584 24L63.6849 24.264C63.6504 25.5908 62.9055 26.4899 61.9783 27.33C60.934 28.2745 59.9625 29.3004 58.9598 30.2915L55.8762 34.3828L53.3832 39.008L51.7157 43.5498L51.6656 43.6201C50.7482 46.6604 50.2957 49.7868 50.0736 52.9434C49.9897 54.1303 50.086 55.3335 50.1518 56.5263C50.2462 58.2314 50.5398 59.9069 50.98 61.5574C52.5797 67.5514 55.8268 72.5228 60.2666 76.7474C61.0909 77.5322 61.9822 78.2462 62.8423 78.9923L63.2232 80.3112L63.5774 82.3578L63.7467 84.4944C63.7448 84.9279 63.7272 85.3633 63.7526 85.7955C63.7597 85.9065 63.903 86.009 63.9837 86.1154L64.7025 86.3702L65.4506 86.6638L65.3224 84.765L65.3165 82.8944L65.575 80.0452L65.7625 79.4252L66.2997 78.4656C66.9625 77.9283 67.6728 77.4396 68.2764 76.8413C69.3683 75.7595 70.4582 74.6627 71.4355 73.4771C72.707 71.9404 73.793 70.2569 74.6709 68.4618C75.2562 67.2578 75.8083 66.0296 76.2647 64.7718C76.6671 63.6631 76.9165 62.4973 77.2336 61.3564L77.3169 61.1101C77.9713 58.031 78.0813 54.9204 77.8411 51.7901C77.6477 49.2673 77.0597 46.8325 76.242 44.447V44.447ZM63.2851 77.4679C63.3854 76.9615 63.5097 76.4577 63.6002 75.9493C63.5097 76.4577 63.386 76.9615 63.2851 77.4679ZM65.5099 77.8173L65.0893 76.8879L65.5099 77.8173L66.1278 78.35L65.5099 77.8173ZM91.6541 89.5918C91.1163 88.5521 90.3272 87.7626 89.2841 87.2444C88.4103 86.8109 87.4708 86.6205 86.5046 86.5929C85.7806 86.5718 85.0539 86.6093 84.3286 86.6185C83.6847 86.6264 83.0401 86.6375 82.3961 86.6316C81.6389 86.6237 80.8817 86.6007 80.1245 86.5791C79.9988 86.5751 79.9096 86.6007 79.851 86.7295C79.7592 86.9298 79.6505 87.1229 79.5378 87.3423L79.6641 87.383C80.0398 87.45 80.4175 87.5071 80.7912 87.5827C81.2717 87.6792 81.4879 87.9577 81.51 88.3662C81.5425 88.9482 81.5556 89.5314 81.5536 90.1147C81.5439 92.4227 81.5276 94.7307 81.5106 97.038C81.5093 97.1904 81.5067 97.3494 81.4657 97.4925C81.4182 97.6581 81.3668 97.8722 81.2443 97.9536C81.0241 98.0963 80.7769 98.1914 80.5184 98.2328C80.1531 98.2932 80.0919 98.3096 79.978 98.6722L79.9285 98.8534C79.8738 99.0511 79.9031 99.0899 80.1075 99.0919C81.2808 99.105 82.4534 99.1306 83.6261 99.1267C84.6958 99.1227 85.7656 99.1884 86.8314 98.9855C87.8387 98.7943 88.7789 98.4594 89.637 97.8925C90.7504 97.1563 91.5512 96.1724 91.9738 94.8883C92.315 93.8512 92.3912 92.7931 92.2753 91.7087C92.2029 90.9698 91.9922 90.2514 91.6541 89.5918V89.5918ZM89.5986 95.9372C88.9709 97.1155 88.0347 97.9024 86.6966 98.1099C85.8587 98.2393 85.0194 98.2019 84.2205 97.882C83.7146 97.6797 83.5264 97.239 83.5108 96.7182C83.4965 96.2077 83.4893 95.6971 83.4893 95.1865C83.4867 93.3908 83.4867 91.5951 83.4893 89.8C83.4906 89.2345 83.5004 88.6677 83.5095 88.1015C83.516 87.7035 83.5987 87.5702 83.9835 87.538C85.6738 87.3948 87.2865 87.5787 88.6259 88.7787C89.454 89.5209 89.9254 90.4674 90.1214 91.5544C90.2028 92.0076 90.2276 92.4713 90.2783 92.931C90.2373 93.9806 90.0967 95.0019 89.5986 95.9372ZM103.785 93.9924C103.452 93.1741 102.82 92.6611 102.027 92.3327C101.756 92.2204 101.477 92.1278 101.184 92.0187L101.286 91.953C101.602 91.7488 101.954 91.5839 102.226 91.3324C102.888 90.7209 103.162 89.9518 103.033 89.0382C102.911 88.1692 102.481 87.5314 101.714 87.1177C101.017 86.7433 100.266 86.6067 99.4881 86.6073C98.143 86.6086 96.7971 86.629 95.452 86.6316C94.9884 86.6323 94.5248 86.5975 94.0612 86.5909C93.9714 86.5896 93.8379 86.6126 93.7995 86.673C93.6934 86.8372 93.623 87.0264 93.5475 87.2089C93.5039 87.3153 93.5469 87.3738 93.6673 87.3896C93.9909 87.4342 94.3138 87.4901 94.6381 87.5387C95.0861 87.6063 95.3029 87.8414 95.3302 88.2966L95.3361 88.5666C95.3367 89.982 95.3413 91.3974 95.3354 92.8128C95.3271 94.2263 95.3138 95.6397 95.2957 97.0531C95.2938 97.2311 95.2697 97.4098 95.2443 97.5865C95.2059 97.8531 95.0646 98.037 94.7937 98.0948L94.0274 98.2472C93.9369 98.2656 93.806 98.263 93.7689 98.3195C93.6282 98.5316 93.515 98.7635 93.5306 99.0433L93.6094 99.0649L96.1832 99.1286L96.6995 99.1267C97.5902 99.1162 98.4822 99.1339 99.3716 99.0879C100.335 99.0393 101.239 98.751 102.075 98.2551C102.965 97.7264 103.65 97.0295 103.893 95.9812C104.05 95.312 104.05 94.6387 103.785 93.9924V93.9924ZM97.2464 87.9623C97.2503 87.6779 97.3747 87.5544 97.6546 87.5472C98.3442 87.5282 99.0291 87.5321 99.6945 87.7718C100.555 88.0818 101.085 88.8306 101.075 89.7455C101.07 90.0969 101.076 90.445 100.947 90.7826C100.694 91.4473 100.208 91.798 99.5194 91.8664C99.16 91.9031 98.7973 91.9071 98.477 91.9242L97.4079 91.8769C97.2659 91.8716 97.2041 91.8086 97.2047 91.6614L97.2464 87.9623V87.9623ZM101.678 96.8252C101.333 97.5812 100.706 97.9786 99.9198 98.1165C99.2935 98.2249 98.6514 98.1964 98.0368 98.0331C97.5772 97.9142 97.3896 97.5418 97.2978 97.1287C97.236 96.8522 97.2464 96.5231 97.2412 96.2354C97.2327 95.7914 97.2392 94.8699 97.2392 94.8699H97.2301C97.2301 94.2131 97.2321 93.6443 97.2282 93.0144C97.2275 92.8785 97.2503 92.8108 97.415 92.8161C97.9997 92.8338 98.5864 92.8437 99.171 92.8667C99.6939 92.887 100.184 93.0433 100.644 93.2936C101.344 93.6745 101.766 94.2578 101.882 95.0591C101.971 95.6666 101.933 96.2643 101.678 96.8252V96.8252ZM37.4879 97.5333L37.5003 93.9622C37.5022 93.4249 37.4345 92.8982 37.26 92.3885C36.7789 90.9849 35.4519 90.3458 34.0703 90.8496C33.442 91.0788 32.8788 91.4263 32.341 91.8204C32.0278 92.0503 32.0278 92.0503 31.8012 91.7225C31.1599 90.7951 30.2438 90.4779 29.1773 90.8201C28.4878 91.0407 27.8849 91.4184 27.3138 91.8572C27.2604 91.8979 27.153 91.9432 27.1211 91.9189C27.0677 91.8788 27.0306 91.7836 27.0319 91.712L27.071 91.0775C27.0742 90.9442 27.0488 90.8102 27.0358 90.6703C26.778 90.7603 26.5722 90.8503 26.3567 90.9028C25.6907 91.067 25.02 91.2181 24.35 91.3724C24.1879 91.4099 24.0167 91.4591 24.001 91.647C23.9848 91.8315 24.1612 91.8624 24.298 91.9176C24.5857 92.0345 24.8716 92.1586 25.1561 92.2847C25.3951 92.3911 25.4843 92.5836 25.4829 92.8424C25.4784 93.9491 25.4856 95.0545 25.479 96.1612C25.4764 96.6111 25.4556 97.0604 25.4354 97.5103C25.4172 97.909 25.2824 98.0758 24.8996 98.1763C24.6964 98.2301 24.49 98.2663 24.2856 98.3149C24.2407 98.3254 24.1638 98.3543 24.1632 98.3766C24.1547 98.5717 24.1443 98.7713 24.1768 98.9612C24.1834 98.9953 24.3878 98.9953 24.5011 99.0085L24.5773 99.0039C25.3664 98.992 26.1555 98.9796 26.9453 98.971C27.364 98.9664 27.782 98.9704 28.2364 98.9704L28.2853 98.3333C28.0248 98.2853 27.7924 98.2492 27.5632 98.1986C27.2058 98.1198 27.0534 97.9287 27.0443 97.5648L27.0378 97.0439C27.0339 95.6929 27.0287 94.3425 27.0287 92.9915C27.0287 92.7951 27.1094 92.6394 27.2806 92.5218C27.6433 92.2749 28.0261 92.0785 28.45 91.9688C29.3433 91.7383 30.1181 92.0588 30.4619 92.8253C30.5706 93.067 30.6559 93.3343 30.68 93.597C30.8063 94.9514 30.7516 96.307 30.6755 97.6613C30.6592 97.9536 30.5231 98.1007 30.2373 98.1723L29.5653 98.3155C29.5113 98.3293 29.4325 98.2925 29.4286 98.3379C29.4136 98.525 29.4221 98.8121 29.4221 98.8121H29.5823L31.628 98.8797C32.1886 98.8784 32.7499 98.9467 33.3098 98.9612C33.4101 98.9631 33.4993 98.9782 33.5051 98.8613C33.5115 98.6798 33.5091 98.4981 33.498 98.3168L33.3912 98.2978L32.815 98.1671C32.4263 98.0745 32.2921 97.9254 32.2908 97.5287C32.2863 96.5507 32.2993 95.5734 32.2908 94.596C32.2859 94.0371 32.2652 93.4783 32.229 92.9205C32.2192 92.7721 32.242 92.6749 32.3592 92.5915C32.6989 92.341 33.0811 92.1551 33.4869 92.043C34.7468 91.7081 35.7781 92.4049 35.8432 93.7153C35.907 94.9789 35.8803 96.2472 35.8706 97.5136C35.8673 97.9543 35.7228 98.0876 35.2924 98.2058L35.144 98.2446C34.7032 98.351 34.7071 98.351 34.7331 98.8232C34.7416 98.971 34.7819 99.0091 34.9382 99.0052C35.8361 98.9848 36.7339 98.9796 37.6318 98.9717C37.999 98.9684 38.3662 98.9717 38.766 98.9717L38.8474 98.3569C38.4965 98.263 38.1729 98.1934 37.8603 98.0902C37.5843 97.9957 37.4866 97.8275 37.4879 97.5333V97.5333ZM68.4079 92.1205C68.7778 91.7744 68.7804 91.3173 68.6768 90.8096C68.3838 91.1189 68.0557 91.2614 67.6813 91.2884C67.1793 91.3245 66.6864 91.2805 66.2189 91.0788C64.9545 90.5311 63.7096 90.5698 62.4686 91.1708C61.4249 91.6752 60.7829 92.4614 60.7185 93.6535C60.6774 94.4174 60.8194 95.1405 61.3246 95.7481C61.6274 96.1119 62.0161 96.3477 62.4543 96.5106C62.6431 96.5809 62.6574 96.6715 62.4992 96.793C62.3824 96.8821 62.2613 96.9654 62.1366 97.0426C61.8721 97.2103 61.606 97.3754 61.3383 97.5379C61.1814 97.6338 61.128 97.7559 61.1794 97.9431C61.3298 98.4935 61.7172 98.8114 62.2017 99.0433L62.3781 99.1674L62.2238 99.3231C61.7491 99.7112 61.2556 100.078 60.8012 100.49C60.4196 100.836 60.2965 101.299 60.4118 101.811C60.6442 102.832 61.3155 103.464 62.2681 103.755C63.9329 104.263 65.4962 103.971 66.9215 102.976C67.7666 102.386 68.3728 101.617 68.557 100.56C68.7634 99.3717 68.1091 98.3405 66.9378 98.1277C66.1629 97.9858 65.3699 97.9451 64.586 97.8544C64.2201 97.8124 63.8489 97.7875 63.4928 97.7027C63.19 97.6305 63.0396 97.3815 63.0676 97.1385C63.0956 96.8995 63.3476 96.6768 63.636 96.6538C64.2168 96.6065 64.7859 96.5152 65.3211 96.2683C66.7392 95.6141 67.3974 94.4686 67.2327 92.9264C67.2112 92.7189 67.1643 92.514 67.122 92.2723C67.5758 92.3491 68.0401 92.4654 68.4079 92.1205V92.1205ZM64.1048 99.3566C64.6817 99.3736 65.338 99.4098 65.9722 99.5969C66.5302 99.7611 66.9892 100.049 67.1246 100.677C67.288 101.437 66.926 102.192 66.1975 102.598C65.5151 102.978 64.7742 103.009 64.0228 102.931C63.3795 102.864 62.8007 102.639 62.3371 102.16C61.7264 101.529 61.7231 100.655 62.3345 100.026C62.8808 99.4636 63.1731 99.3474 64.1048 99.3566V99.3566ZM65.5483 94.7839C65.2123 95.8683 64.2344 96.018 63.468 95.6712C62.815 95.3763 62.5305 94.7957 62.3814 94.133C62.3234 93.8781 62.3097 93.6135 62.2759 93.3527C62.2896 92.979 62.3508 92.6204 62.5103 92.2841C62.9993 91.2483 64.2005 91.31 64.8653 91.779C65.1505 91.98 65.3491 92.2532 65.4734 92.577C65.7503 93.2818 65.7767 94.0616 65.5483 94.7839V94.7839ZM59.4475 98.2406C59.2149 98.2048 58.985 98.153 58.7593 98.0856C58.3634 97.9635 58.3153 97.8886 58.3107 97.4663C58.299 96.2893 58.2912 95.1123 58.2781 93.9359C58.2716 93.4066 58.2091 92.8844 58.0483 92.3787C57.6251 91.0453 56.3288 90.3294 55.0318 90.7229C54.313 90.9416 53.6957 91.3481 53.1208 91.8256L52.9111 91.9879L52.9118 91.7705C52.9255 91.5202 52.9522 91.27 52.9502 91.0197C52.9489 90.889 52.8994 90.7577 52.8753 90.6427C52.385 90.7918 51.9456 90.9416 51.4969 91.0559C51.047 91.1701 50.588 91.2476 50.1329 91.3409C49.907 91.3869 49.7409 91.5248 49.7448 91.6818C49.7507 91.9031 49.9324 91.9458 50.0912 92.0122C50.379 92.131 50.6661 92.2512 50.9507 92.3787C51.1538 92.47 51.2365 92.6394 51.2346 92.8594C51.2202 94.3891 51.2111 95.9195 51.189 97.4499C51.1825 97.9333 51.0614 98.0607 50.59 98.1671L50.3842 98.2085C49.948 98.284 49.9356 98.3017 49.9656 98.7661L49.9682 98.8429C49.963 99.0216 50.0404 99.0794 50.2227 99.0774C51.3817 99.0636 52.5413 99.0571 53.7003 99.0617C54.1971 99.0636 54.2504 99.0242 54.24 98.5093L54.2166 98.2879C53.9327 98.24 53.6612 98.2052 53.3956 98.1461C53.1175 98.0837 53.0179 97.9687 52.9919 97.6837C52.9678 97.4229 52.96 97.1582 52.9574 96.8955C52.9443 95.6929 52.9339 94.4903 52.9281 93.2883C52.9268 92.9855 52.9821 92.7044 53.2582 92.5094C53.6645 92.2165 54.1435 92.0432 54.6418 92.0089C55.6757 91.9373 56.4616 92.5553 56.5176 93.5951C56.5866 94.8778 56.5658 96.1651 56.582 97.4505C56.5833 97.5464 56.5664 97.6429 56.5534 97.7382C56.5286 97.926 56.4375 98.0672 56.2487 98.1159C56.0644 98.1645 55.8775 98.2078 55.6894 98.2367C55.4088 98.2787 55.4029 98.2768 55.3814 98.5625L55.3886 98.7549C55.4218 99.0873 55.4224 99.0774 55.7558 99.0741C56.877 99.0649 57.9975 99.059 59.1181 99.0603C59.5869 99.0616 59.6201 99.0393 59.624 98.552L59.6227 98.4364C59.6298 98.3116 59.5745 98.261 59.4475 98.2406V98.2406ZM75.1077 90.8036C73.9325 90.514 72.8178 90.7294 71.7591 91.2818C70.7304 91.8184 70.0428 92.6479 69.7811 93.7934C69.5168 94.9514 69.6431 96.0811 70.1503 97.1563C70.4804 97.8544 70.9882 98.3943 71.6797 98.7451C73.2983 99.5674 75.2783 99.1943 76.548 98.0942C77.55 97.2265 77.9179 96.0712 77.94 94.6414C77.9263 94.4982 77.9127 94.2223 77.8749 93.9491C77.662 92.3925 76.5935 91.1701 75.1077 90.8036V90.8036ZM75.9978 96.8167C75.6859 98.0554 74.624 98.6058 73.426 98.1802C72.8146 97.9635 72.3575 97.549 72.0502 96.9888C71.3431 95.7014 71.207 94.3327 71.6094 92.9284C71.8776 91.9931 72.6407 91.4815 73.5484 91.5458C74.3596 91.603 74.9834 91.9957 75.4411 92.6617C75.9236 93.3645 76.1098 94.1639 76.1593 95.0033C76.1677 95.1379 76.1606 95.2725 76.1606 95.4078L76.2179 95.4144C76.1462 95.8827 76.1124 96.3602 75.9978 96.8167V96.8167ZM45.5498 90.7833C44.3134 90.4982 43.1551 90.78 42.0821 91.4138C41.1542 91.9616 40.5546 92.78 40.3247 93.8492C40.1092 94.8482 40.1971 95.8302 40.5481 96.7871C40.7616 97.3704 41.0852 97.8833 41.5599 98.2833C42.5593 99.1247 43.7274 99.3375 44.9703 99.103C46.0225 98.904 46.9471 98.4324 47.619 97.5503C48.248 96.7254 48.4876 95.7783 48.5123 94.7517C48.4752 94.4266 48.4661 94.0955 48.3977 93.7783C48.0578 92.1948 47.1398 91.1491 45.5498 90.7833V90.7833ZM46.5584 96.8128C46.2569 98.0449 45.178 98.6091 43.9885 98.1835C43.2247 97.9096 42.7273 97.3454 42.4128 96.6223C41.9089 95.4604 41.806 94.2512 42.1322 93.0256C42.3822 92.0884 43.1355 91.3981 44.2886 91.5636C44.9964 91.6647 45.5485 92.0292 45.96 92.6092C46.516 93.3915 46.699 94.2873 46.7244 95.2285V95.421L46.7713 95.4282C46.7029 95.8906 46.6691 96.3609 46.5584 96.8128V96.8128Z" fill="white"/>
</svg>
