<svg width="128" height="128" viewBox="0 0 128 128" fill="none" xmlns="http://www.w3.org/2000/svg">
<path d="M57.4443 65.8066H63.7869L60.4325 60.6179L54.2764 69.9993H51.4746L58.9627 58.7305C59.1273 58.5027 59.3472 58.3172 59.6033 58.1899C59.8595 58.0626 60.1442 57.9974 60.4325 58.0001C61.0148 58.0001 61.5575 58.2657 61.8726 58.7114L69.3897 69.9993H66.5879L65.2665 67.9026H58.844L57.4443 65.8066ZM86.5466 67.9026V58.1142H84.1695V68.8613C84.1695 69.1555 84.2883 69.4401 84.5151 69.6582C84.7419 69.8763 85.0479 69.9993 85.3836 69.9993H96.2253L97.6266 67.9026H86.5466ZM47.213 66.1483C49.5215 66.1483 51.3962 64.3561 51.3962 62.1364C51.3962 59.9168 49.5223 58.1142 47.213 58.1142H36.8119V70H39.189V60.2102H47.0554C48.1606 60.2102 49.0481 61.0738 49.0481 62.1357C49.0481 63.1976 48.1598 64.0611 47.0554 64.0611L40.3528 64.0516L47.4497 69.9993H50.9038L46.1283 66.1476H47.213V66.1483ZM22.182 69.9993C18.7698 69.9993 16 67.3434 16 64.0611C16 60.7789 18.769 58.1135 22.182 58.1135H29.3664C32.7802 58.1135 35.5477 60.7796 35.5477 64.0611C35.5477 67.3427 32.7802 69.9993 29.3664 69.9993H22.182ZM29.2066 67.9026C29.7318 67.9033 30.252 67.8045 30.7375 67.6118C31.223 67.4191 31.6642 67.1363 32.0359 66.7796C32.4076 66.4228 32.7025 65.999 32.9037 65.5326C33.105 65.0662 33.2086 64.5661 33.2087 64.0611C33.2089 63.0402 32.7874 62.061 32.037 61.3387C31.2865 60.6164 30.2684 60.2103 29.2066 60.2095H22.3403C21.2788 60.2107 20.2611 60.617 19.5109 61.3392C18.7608 62.0614 18.3396 63.0405 18.3398 64.0611C18.3399 64.566 18.4434 65.0659 18.6446 65.5323C18.8457 65.9986 19.1405 66.4223 19.512 66.779C19.8836 67.1358 20.3246 67.4186 20.8099 67.6114C21.2952 67.8042 21.8152 67.9031 22.3403 67.9026H29.2066ZM74.3531 69.9993C70.9401 69.9993 68.168 67.3434 68.168 64.0611C68.168 60.7789 70.9401 58.1135 74.3531 58.1135H82.887L81.4949 60.2095H74.5114C73.4491 60.2101 72.4304 60.616 71.6792 61.3382C70.928 62.0604 70.5055 63.0397 70.5047 64.0611C70.5047 66.1857 72.301 67.9026 74.5114 67.9026H83.0842L81.6836 69.9993H74.3531ZM103.426 67.9026C102.556 67.9029 101.708 67.6298 101.014 67.1246C100.319 66.6194 99.8154 65.9099 99.5789 65.104H109.74L111.141 63.008H99.5789C99.8172 62.2031 100.322 61.4947 101.016 60.9898C101.71 60.485 102.556 60.211 103.426 60.2095H110.401L111.812 58.1135H103.268C99.8552 58.1135 97.0831 60.7796 97.0831 64.0611C97.0831 67.3427 99.8552 69.9993 103.268 69.9993H110.599L112 67.9026H103.426Z" fill="white"/>
</svg>
