<svg width="209" height="38" viewBox="0 0 209 38" fill="none" xmlns="http://www.w3.org/2000/svg">
<path d="M8.91053 16.2925C6.28803 16.2925 4.28118 15.8068 2.88997 14.8353C1.51476 13.8638 0.827148 12.4543 0.827148 10.6069V10.368H5.50448V10.6069C5.50448 11.1484 5.8163 11.5704 6.43994 11.873C7.06359 12.1597 7.94309 12.303 9.07844 12.303C11.1413 12.303 12.1727 11.9606 12.1727 11.2758V11.1324C12.1727 10.7024 11.653 10.4078 10.6136 10.2485L6.1761 9.55574C4.44908 9.285 3.16182 8.79128 2.3143 8.0746C1.46678 7.35792 1.04303 6.40235 1.04303 5.20788V4.96899C1.04303 3.39229 1.71464 2.17393 3.05788 1.31391C4.40111 0.437972 6.28803 0 8.71864 0C11.2932 0 13.2601 0.469824 14.6193 1.40947C15.9945 2.33319 16.6821 3.66304 16.6821 5.399V5.59011H12.0527V5.399C12.0527 4.92121 11.7809 4.57083 11.2372 4.34786C10.6935 4.10897 9.854 3.98952 8.71864 3.98952C6.79974 3.98952 5.84029 4.2762 5.84029 4.84954V4.99288C5.84029 5.16806 5.95222 5.31936 6.1761 5.44677C6.41596 5.55826 6.80773 5.65381 7.35142 5.73345L11.8129 6.42624C13.5879 6.69698 14.9071 7.20662 15.7706 7.95516C16.6341 8.68776 17.0659 9.67519 17.0659 10.9174V11.1563C17.0659 12.7808 16.3463 14.0469 14.9071 14.9547C13.4839 15.8466 11.4851 16.2925 8.91053 16.2925Z" fill="white"/>
<path d="M28.7109 16.2925C26.776 16.2925 25.0729 15.9661 23.6018 15.3131C22.1306 14.6442 20.9873 13.6966 20.1717 12.4702C19.3722 11.2439 18.9724 9.82649 18.9724 8.21794V8.09849C18.9724 6.48994 19.3722 5.07251 20.1717 3.84619C20.9873 2.61987 22.1306 1.67225 23.6018 1.00335C25.0729 0.334451 26.776 0 28.7109 0C30.6777 0 32.3968 0.334451 33.8679 1.00335C35.3391 1.67225 36.4744 2.61987 37.274 3.84619C38.0735 5.05658 38.4733 6.47402 38.4733 8.09849V8.21794C38.4733 9.84242 38.0735 11.2678 37.274 12.4941C36.4744 13.7045 35.3391 14.6442 33.8679 15.3131C32.3968 15.9661 30.6777 16.2925 28.7109 16.2925ZM28.7109 11.8252C30.3739 11.8252 31.5972 11.5386 32.3808 10.9652C33.1643 10.3759 33.5561 9.48408 33.5561 8.28961V8.05071C33.5561 5.66178 31.941 4.46731 28.7109 4.46731C27.1278 4.46731 25.9284 4.76991 25.1129 5.3751C24.2974 5.9803 23.8896 6.87217 23.8896 8.05071V8.28961C23.8896 9.48408 24.2894 10.3759 25.0889 10.9652C25.8885 11.5386 27.0958 11.8252 28.7109 11.8252Z" fill="white"/>
<path d="M55.3585 0.310562V4.61065H45.5961V6.42624H54.8788V10.7263H45.5961V15.982H40.7748V0.310562H55.3585Z" fill="white"/>
<path d="M56.4883 4.61065V0.310562H72.3433V4.61065H66.8264V15.982H62.0052V4.61065H56.4883Z" fill="white"/>
<path d="M100.849 0.310562V1.02724L95.7876 15.982H89.911L86.8168 6.52179L83.7465 15.982H77.8699L72.7608 1.02724V0.310562H77.654L80.8442 10.4158L84.2022 0.310562H89.4313L92.8133 10.3919L95.9555 0.310562H100.849Z" fill="white"/>
<path d="M117.416 15.2653V15.982H112.715L111.683 13.4019H104.775L103.744 15.982H99.0426V15.2653L105.567 0.310562H110.892L117.416 15.2653ZM110.076 9.4363L108.229 4.87343L106.382 9.4363H110.076Z" fill="white"/>
<path d="M135.563 5.829C135.563 7.08718 135.187 8.10646 134.435 8.88684C133.7 9.66723 132.628 10.1769 131.221 10.4158L135.467 15.2653V15.982H130.022L125.56 10.583H123.809V15.982H118.988V0.310562H129.23C131.197 0.310562 132.74 0.780386 133.86 1.72003C134.995 2.65968 135.563 3.94971 135.563 5.59011V5.829ZM123.809 7.02347H129.11C130.134 7.02347 130.645 6.63328 130.645 5.85289V5.614C130.645 4.84954 130.134 4.46731 129.11 4.46731H123.809V7.02347Z" fill="white"/>
<path d="M152.897 0.310562V4.41953H143.134V6.11568H152.417V10.153H143.134V11.873H152.897V15.982H138.313V0.310562H152.897Z" fill="white"/>
<path d="M160.468 0.310562V5.99623H167.4V0.310562H172.221V15.982H167.4V10.2963H160.468V15.982H155.647V0.310562H160.468Z" fill="white"/>
<path d="M183.263 16.2925C181.616 16.2925 180.169 15.974 178.922 15.337C177.69 14.684 176.739 13.7603 176.067 12.5658C175.396 11.3713 175.06 9.98575 175.06 8.40905V0.310562H179.881V8.50461C179.881 10.7184 181.008 11.8252 183.263 11.8252C184.414 11.8252 185.27 11.5545 185.83 11.013C186.389 10.4556 186.669 9.61945 186.669 8.50461V0.310562H191.49V8.40905C191.49 10.0017 191.147 11.3952 190.459 12.5897C189.787 13.7682 188.828 14.684 187.581 15.337C186.349 15.974 184.91 16.2925 183.263 16.2925Z" fill="white"/>
<path d="M193.145 4.61065V0.310562H209V4.61065H203.483V15.982H198.662V4.61065H193.145Z" fill="white"/>
<path d="M2.69846 37.8806V30.4152H0V29.5193H6.41634V30.4152H3.71788V37.8806H2.69846Z" fill="white"/>
<path d="M7.73512 37.8806V29.5193H13.0121V30.4152H8.75453V33.2222H12.7722V34.1181H8.75453V36.9848H13.132V37.8806H7.73512Z" fill="white"/>
<path d="M14.8092 37.8806V29.5193H16.2484L20.446 36.6264H20.506V29.5193H21.5254V37.8806H20.0862L15.8886 30.7735H15.8286V37.8806H14.8092Z" fill="white"/>
<path d="M23.5698 37.8806V29.5193H26.3882C27.5316 29.5193 28.447 29.8817 29.1347 30.6063C29.8223 31.331 30.1661 32.3622 30.1661 33.7C30.1661 35.0378 29.8223 36.069 29.1347 36.7937C28.447 37.5183 27.5316 37.8806 26.3882 37.8806H23.5698ZM24.5892 36.9848H26.3882C27.2197 36.9848 27.8874 36.7021 28.3911 36.1367C28.8948 35.5634 29.1466 34.7511 29.1466 33.7C29.1466 32.6489 28.8948 31.8406 28.3911 31.2752C27.8874 30.7019 27.2197 30.4152 26.3882 30.4152H24.5892V36.9848Z" fill="white"/>
<path d="M31.78 37.8806V29.5193H37.057V30.4152H32.7994V33.2222H36.8171V34.1181H32.7994V36.9848H37.1769V37.8806H31.78Z" fill="white"/>
<path d="M38.8541 37.8806V29.5193H42.0922C42.8998 29.5193 43.5394 29.7503 44.0111 30.2121C44.4909 30.674 44.7307 31.2792 44.7307 32.0277C44.7307 32.7922 44.4988 33.3854 44.0351 33.8075C43.5794 34.2216 43.0517 34.4644 42.452 34.5361L44.8507 37.8806H43.7113L41.3127 34.5361H39.8735V37.8806H38.8541ZM39.8735 33.6403H42.0323C42.56 33.6403 42.9717 33.4929 43.2676 33.1983C43.5634 32.9037 43.7113 32.5135 43.7113 32.0277C43.7113 31.542 43.5634 31.1518 43.2676 30.8572C42.9717 30.5625 42.56 30.4152 42.0323 30.4152H39.8735V33.6403Z" fill="white"/>
<path d="M46.4669 37.8806V29.5193H47.4863V33.2222H51.9238V29.5193H52.9432V37.8806H51.9238V34.1181H47.4863V37.8806H46.4669Z" fill="white"/>
<path d="M60.5344 37.0684C59.9587 37.6895 59.1672 38.0001 58.1598 38.0001C57.1523 38.0001 56.3608 37.6895 55.7851 37.0684C55.2095 36.4473 54.9216 35.5634 54.9216 34.4167V29.5193H55.941V34.4167C55.941 35.2687 56.1409 35.9297 56.5407 36.3995C56.9485 36.8693 57.4882 37.1042 58.1598 37.1042C58.8314 37.1042 59.3671 36.8693 59.7669 36.3995C60.1746 35.9297 60.3785 35.2687 60.3785 34.4167V29.5193H61.3979V34.4167C61.3979 35.5634 61.1101 36.4473 60.5344 37.0684Z" fill="white"/>
<path d="M65.358 37.8806V30.4152H62.6595V29.5193H69.0759V30.4152H66.3774V37.8806H65.358Z" fill="white"/>
<path d="M76.0249 38.0001C74.8815 38.0001 73.9661 37.6258 73.2785 36.8773C72.5908 36.1287 72.247 35.0696 72.247 33.7C72.247 32.3303 72.5908 31.2712 73.2785 30.5227C73.9661 29.7742 74.8815 29.3999 76.0249 29.3999C77.7039 29.3999 78.8433 30.1763 79.4429 31.7291H78.3635C77.9158 30.7735 77.1362 30.2958 76.0249 30.2958C75.1934 30.2958 74.5257 30.5944 74.022 31.1916C73.5183 31.7809 73.2665 32.617 73.2665 33.7C73.2665 34.783 73.5183 35.6231 74.022 36.2203C74.5257 36.8096 75.1934 37.1042 76.0249 37.1042C76.8164 37.1042 77.4441 36.8454 77.9078 36.3278C78.3715 35.8102 78.6034 35.213 78.6034 34.5361H76.0249V33.6403H79.6228V34.1181C79.6228 35.3125 79.299 36.2601 78.6514 36.9609C78.0117 37.6537 77.1362 38.0001 76.0249 38.0001Z" fill="white"/>
<path d="M81.24 37.8806V29.5193H84.4782C85.2857 29.5193 85.9254 29.7503 86.3971 30.2121C86.8768 30.674 87.1167 31.2792 87.1167 32.0277C87.1167 32.7922 86.8848 33.3854 86.4211 33.8075C85.9653 34.2216 85.4376 34.4644 84.838 34.5361L87.2366 37.8806H86.0973L83.6986 34.5361H82.2595V37.8806H81.24ZM82.2595 33.6403H84.4182C84.9459 33.6403 85.3577 33.4929 85.6535 33.1983C85.9493 32.9037 86.0973 32.5135 86.0973 32.0277C86.0973 31.542 85.9493 31.1518 85.6535 30.8572C85.3577 30.5625 84.9459 30.4152 84.4182 30.4152H82.2595V33.6403Z" fill="white"/>
<path d="M94.9574 36.8773C94.2698 37.6258 93.3543 38.0001 92.211 38.0001C91.0676 38.0001 90.1521 37.6258 89.4645 36.8773C88.7769 36.1287 88.4331 35.0696 88.4331 33.7C88.4331 32.3303 88.7769 31.2712 89.4645 30.5227C90.1521 29.7742 91.0676 29.3999 92.211 29.3999C93.3543 29.3999 94.2698 29.7742 94.9574 30.5227C95.645 31.2712 95.9888 32.3303 95.9888 33.7C95.9888 35.0696 95.645 36.1287 94.9574 36.8773ZM90.2081 36.2203C90.7118 36.8096 91.3794 37.1042 92.211 37.1042C93.0425 37.1042 93.7101 36.8096 94.2138 36.2203C94.7175 35.6231 94.9694 34.783 94.9694 33.7C94.9694 32.617 94.7175 31.7809 94.2138 31.1916C93.7101 30.5944 93.0425 30.2958 92.211 30.2958C91.3794 30.2958 90.7118 30.5944 90.2081 31.1916C89.7044 31.7809 89.4525 32.617 89.4525 33.7C89.4525 34.783 89.7044 35.6231 90.2081 36.2203Z" fill="white"/>
<path d="M103.166 37.0684C102.591 37.6895 101.799 38.0001 100.792 38.0001C99.7843 38.0001 98.9927 37.6895 98.417 37.0684C97.8414 36.4473 97.5535 35.5634 97.5535 34.4167V29.5193H98.573V34.4167C98.573 35.2687 98.7728 35.9297 99.1726 36.3995C99.5804 36.8693 100.12 37.1042 100.792 37.1042C101.463 37.1042 101.999 36.8693 102.399 36.3995C102.807 35.9297 103.01 35.2687 103.01 34.4167V29.5193H104.03V34.4167C104.03 35.5634 103.742 36.4473 103.166 37.0684Z" fill="white"/>
<path d="M106.011 37.8806V29.5193H109.189C110.013 29.5193 110.668 29.7662 111.156 30.2599C111.644 30.7536 111.888 31.3827 111.888 32.1472C111.888 32.9116 111.644 33.5407 111.156 34.0344C110.668 34.5282 110.013 34.775 109.189 34.775H107.03V37.8806H106.011ZM107.03 33.8792H109.129C109.665 33.8792 110.089 33.7199 110.401 33.4014C110.712 33.0828 110.868 32.6648 110.868 32.1472C110.868 31.6296 110.712 31.2115 110.401 30.893C110.089 30.5745 109.665 30.4152 109.129 30.4152H107.03V33.8792Z" fill="white"/>
</svg>
