<svg width="209" height="38" viewBox="0 0 209 38" fill="none" xmlns="http://www.w3.org/2000/svg">
<path d="M8.08339 16.2925C5.46088 16.2925 3.45403 15.8068 2.06282 14.8353C0.687607 13.8638 0 12.4543 0 10.6069V10.368H4.67733V10.6069C4.67733 11.1484 4.98915 11.5704 5.6128 11.873C6.23644 12.1597 7.11594 12.303 8.25129 12.303C10.3141 12.303 11.3455 11.9606 11.3455 11.2758V11.1324C11.3455 10.7024 10.8258 10.4078 9.78641 10.2485L5.34895 9.55574C3.62193 9.285 2.33467 8.79128 1.48715 8.0746C0.639635 7.35792 0.215877 6.40235 0.215877 5.20788V4.96899C0.215877 3.39229 0.887494 2.17393 2.23073 1.31391C3.57396 0.437972 5.46088 0 7.8915 0C10.466 0 12.4329 0.469824 13.7921 1.40947C15.1673 2.33319 15.8549 3.66304 15.8549 5.399V5.59011H11.2256V5.399C11.2256 4.92121 10.9537 4.57083 10.4101 4.34786C9.86637 4.10897 9.02685 3.98952 7.8915 3.98952C5.97259 3.98952 5.01314 4.2762 5.01314 4.84954V4.99288C5.01314 5.16806 5.12507 5.31936 5.34895 5.44677C5.58881 5.55826 5.98059 5.65381 6.52428 5.73345L10.9857 6.42624C12.7607 6.69698 14.08 7.20662 14.9435 7.95516C15.807 8.68776 16.2387 9.67519 16.2387 10.9174V11.1563C16.2387 12.7808 15.5191 14.0469 14.08 14.9547C12.6568 15.8466 10.6579 16.2925 8.08339 16.2925Z" fill="white"/>
<path d="M27.8837 16.2925C25.9488 16.2925 24.2458 15.9661 22.7746 15.3131C21.3035 14.6442 20.1601 13.6966 19.3446 12.4702C18.545 11.2439 18.1453 9.82649 18.1453 8.21794V8.09849C18.1453 6.48994 18.545 5.07251 19.3446 3.84619C20.1601 2.61987 21.3035 1.67225 22.7746 1.00335C24.2458 0.334451 25.9488 0 27.8837 0C29.8506 0 31.5696 0.334451 33.0408 1.00335C34.5119 1.67225 35.6473 2.61987 36.4468 3.84619C37.2464 5.05658 37.6461 6.47402 37.6461 8.09849V8.21794C37.6461 9.84242 37.2464 11.2678 36.4468 12.4941C35.6473 13.7045 34.5119 14.6442 33.0408 15.3131C31.5696 15.9661 29.8506 16.2925 27.8837 16.2925ZM27.8837 11.8252C29.5468 11.8252 30.7701 11.5386 31.5536 10.9652C32.3372 10.3759 32.7289 9.48408 32.7289 8.28961V8.05071C32.7289 5.66178 31.1139 4.46731 27.8837 4.46731C26.3006 4.46731 25.1013 4.76991 24.2858 5.3751C23.4702 5.9803 23.0625 6.87217 23.0625 8.05071V8.28961C23.0625 9.48408 23.4622 10.3759 24.2618 10.9652C25.0613 11.5386 26.2686 11.8252 27.8837 11.8252Z" fill="white"/>
<path d="M54.5314 0.310562V4.61065H44.7689V6.42624H54.0516V10.7263H44.7689V15.982H39.9477V0.310562H54.5314Z" fill="white"/>
<path d="M55.6612 4.61065V0.310562H71.5161V4.61065H65.9993V15.982H61.178V4.61065H55.6612Z" fill="white"/>
<path d="M100.022 0.310562V1.02724L94.9605 15.982H89.0838L85.9896 6.52179L82.9194 15.982H77.0427L71.9336 1.02724V0.310562H76.8268L80.017 10.4158L83.3751 0.310562H88.6041L91.9862 10.3919L95.1284 0.310562H100.022Z" fill="white"/>
<path d="M116.589 15.2653V15.982H111.888L110.856 13.4019H103.948L102.917 15.982H98.2155V15.2653L104.74 0.310562H110.065L116.589 15.2653ZM109.249 9.4363L107.402 4.87343L105.555 9.4363H109.249Z" fill="white"/>
<path d="M134.735 5.829C134.735 7.08718 134.36 8.10646 133.608 8.88684C132.872 9.66723 131.801 10.1769 130.394 10.4158L134.639 15.2653V15.982H129.195L124.733 10.583H122.982V15.982H118.161V0.310562H128.403C130.37 0.310562 131.913 0.780386 133.032 1.72003C134.168 2.65968 134.735 3.94971 134.735 5.59011V5.829ZM122.982 7.02347H128.283C129.307 7.02347 129.818 6.63328 129.818 5.85289V5.614C129.818 4.84954 129.307 4.46731 128.283 4.46731H122.982V7.02347Z" fill="white"/>
<path d="M152.069 0.310562V4.41953H142.307V6.11568H151.59V10.153H142.307V11.873H152.069V15.982H137.486V0.310562H152.069Z" fill="white"/>
<path d="M159.641 0.310562V5.99623H166.573V0.310562H171.394V15.982H166.573V10.2963H159.641V15.982H154.82V0.310562H159.641Z" fill="white"/>
<path d="M182.436 16.2925C180.789 16.2925 179.342 15.974 178.094 15.337C176.863 14.684 175.912 13.7603 175.24 12.5658C174.568 11.3713 174.233 9.98575 174.233 8.40905V0.310562H179.054V8.50461C179.054 10.7184 180.181 11.8252 182.436 11.8252C183.587 11.8252 184.443 11.5545 185.002 11.013C185.562 10.4556 185.842 9.61945 185.842 8.50461V0.310562H190.663V8.40905C190.663 10.0017 190.319 11.3952 189.632 12.5897C188.96 13.7682 188.001 14.684 186.753 15.337C185.522 15.974 184.083 16.2925 182.436 16.2925Z" fill="white"/>
<path d="M192.318 4.61065V0.310562H208.172V4.61065H202.656V15.982H197.834V4.61065H192.318Z" fill="white"/>
<path d="M50.8713 37.8806V30.4152H48.1729V29.5193H54.5892V30.4152H51.8907V37.8806H50.8713Z" fill="white"/>
<path d="M55.908 37.8806V29.5193H61.185V30.4152H56.9274V33.2222H60.9451V34.1181H56.9274V36.9848H61.3049V37.8806H55.908Z" fill="white"/>
<path d="M62.9821 37.8806V29.5193H64.4212L68.6188 36.6264H68.6788V29.5193H69.6982V37.8806H68.259L64.0614 30.7735H64.0015V37.8806H62.9821Z" fill="white"/>
<path d="M71.7427 37.8806V29.5193H74.5611C75.7044 29.5193 76.6199 29.8817 77.3075 30.6063C77.9951 31.331 78.3389 32.3622 78.3389 33.7C78.3389 35.0378 77.9951 36.069 77.3075 36.7937C76.6199 37.5183 75.7044 37.8806 74.5611 37.8806H71.7427ZM72.7621 36.9848H74.5611C75.3926 36.9848 76.0602 36.7021 76.5639 36.1367C77.0676 35.5634 77.3195 34.7511 77.3195 33.7C77.3195 32.6489 77.0676 31.8406 76.5639 31.2752C76.0602 30.7019 75.3926 30.4152 74.5611 30.4152H72.7621V36.9848Z" fill="white"/>
<path d="M79.9528 37.8806V29.5193H85.2298V30.4152H80.9723V33.2222H84.99V34.1181H80.9723V36.9848H85.3498V37.8806H79.9528Z" fill="white"/>
<path d="M87.0269 37.8806V29.5193H90.2651C91.0726 29.5193 91.7122 29.7503 92.184 30.2121C92.6637 30.674 92.9036 31.2792 92.9036 32.0277C92.9036 32.7922 92.6717 33.3854 92.208 33.8075C91.7522 34.2216 91.2245 34.4644 90.6249 34.5361L93.0235 37.8806H91.8842L89.4855 34.5361H88.0463V37.8806H87.0269ZM88.0463 33.6403H90.2051C90.7328 33.6403 91.1446 33.4929 91.4404 33.1983C91.7362 32.9037 91.8842 32.5135 91.8842 32.0277C91.8842 31.542 91.7362 31.1518 91.4404 30.8572C91.1446 30.5625 90.7328 30.4152 90.2051 30.4152H88.0463V33.6403Z" fill="white"/>
<path d="M94.6398 37.8806V29.5193H95.6592V33.2222H100.097V29.5193H101.116V37.8806H100.097V34.1181H95.6592V37.8806H94.6398Z" fill="white"/>
<path d="M108.707 37.0684C108.132 37.6895 107.34 38.0001 106.333 38.0001C105.325 38.0001 104.534 37.6895 103.958 37.0684C103.382 36.4473 103.094 35.5634 103.094 34.4167V29.5193H104.114V34.4167C104.114 35.2687 104.314 35.9297 104.714 36.3995C105.121 36.8693 105.661 37.1042 106.333 37.1042C107.004 37.1042 107.54 36.8693 107.94 36.3995C108.347 35.9297 108.551 35.2687 108.551 34.4167V29.5193H109.571V34.4167C109.571 35.5634 109.283 36.4473 108.707 37.0684Z" fill="white"/>
<path d="M113.531 37.8806V30.4152H110.832V29.5193H117.249V30.4152H114.55V37.8806H113.531Z" fill="white"/>
<path d="M124.198 38.0001C123.054 38.0001 122.139 37.6258 121.451 36.8773C120.764 36.1287 120.42 35.0696 120.42 33.7C120.42 32.3303 120.764 31.2712 121.451 30.5227C122.139 29.7742 123.054 29.3999 124.198 29.3999C125.877 29.3999 127.016 30.1763 127.616 31.7291H126.536C126.089 30.7735 125.309 30.2958 124.198 30.2958C123.366 30.2958 122.699 30.5944 122.195 31.1916C121.691 31.7809 121.439 32.617 121.439 33.7C121.439 34.783 121.691 35.6231 122.195 36.2203C122.699 36.8096 123.366 37.1042 124.198 37.1042C124.989 37.1042 125.617 36.8454 126.081 36.3278C126.544 35.8102 126.776 35.213 126.776 34.5361H124.198V33.6403H127.796V34.1181C127.796 35.3125 127.472 36.2601 126.824 36.9609C126.185 37.6537 125.309 38.0001 124.198 38.0001Z" fill="white"/>
<path d="M129.413 37.8806V29.5193H132.651C133.459 29.5193 134.098 29.7503 134.57 30.2121C135.05 30.674 135.29 31.2792 135.29 32.0277C135.29 32.7922 135.058 33.3854 134.594 33.8075C134.138 34.2216 133.61 34.4644 133.011 34.5361L135.409 37.8806H134.27L131.871 34.5361H130.432V37.8806H129.413ZM130.432 33.6403H132.591C133.119 33.6403 133.531 33.4929 133.826 33.1983C134.122 32.9037 134.27 32.5135 134.27 32.0277C134.27 31.542 134.122 31.1518 133.826 30.8572C133.531 30.5625 133.119 30.4152 132.591 30.4152H130.432V33.6403Z" fill="white"/>
<path d="M143.13 36.8773C142.443 37.6258 141.527 38.0001 140.384 38.0001C139.24 38.0001 138.325 37.6258 137.637 36.8773C136.95 36.1287 136.606 35.0696 136.606 33.7C136.606 32.3303 136.95 31.2712 137.637 30.5227C138.325 29.7742 139.24 29.3999 140.384 29.3999C141.527 29.3999 142.443 29.7742 143.13 30.5227C143.818 31.2712 144.162 32.3303 144.162 33.7C144.162 35.0696 143.818 36.1287 143.13 36.8773ZM138.381 36.2203C138.885 36.8096 139.552 37.1042 140.384 37.1042C141.215 37.1042 141.883 36.8096 142.387 36.2203C142.89 35.6231 143.142 34.783 143.142 33.7C143.142 32.617 142.89 31.7809 142.387 31.1916C141.883 30.5944 141.215 30.2958 140.384 30.2958C139.552 30.2958 138.885 30.5944 138.381 31.1916C137.877 31.7809 137.625 32.617 137.625 33.7C137.625 34.783 137.877 35.6231 138.381 36.2203Z" fill="white"/>
<path d="M151.339 37.0684C150.764 37.6895 149.972 38.0001 148.965 38.0001C147.957 38.0001 147.166 37.6895 146.59 37.0684C146.014 36.4473 145.726 35.5634 145.726 34.4167V29.5193H146.746V34.4167C146.746 35.2687 146.946 35.9297 147.345 36.3995C147.753 36.8693 148.293 37.1042 148.965 37.1042C149.636 37.1042 150.172 36.8693 150.572 36.3995C150.979 35.9297 151.183 35.2687 151.183 34.4167V29.5193H152.203V34.4167C152.203 35.5634 151.915 36.4473 151.339 37.0684Z" fill="white"/>
<path d="M154.184 37.8806V29.5193H157.362C158.186 29.5193 158.841 29.7662 159.329 30.2599C159.817 30.7536 160.061 31.3827 160.061 32.1472C160.061 32.9116 159.817 33.5407 159.329 34.0344C158.841 34.5282 158.186 34.775 157.362 34.775H155.203V37.8806H154.184ZM155.203 33.8792H157.302C157.838 33.8792 158.262 33.7199 158.573 33.4014C158.885 33.0828 159.041 32.6648 159.041 32.1472C159.041 31.6296 158.885 31.2115 158.573 30.893C158.262 30.5745 157.838 30.4152 157.302 30.4152H155.203V33.8792Z" fill="white"/>
</svg>
