<svg width="171" height="162" viewBox="0 0 171 162" fill="none" xmlns="http://www.w3.org/2000/svg">
<g clip-path="url(#clip0_91_2422)">
<path d="M159.239 89.6569L87.3035 161.282H168.474V93.4644C168.474 88.6511 162.63 86.2804 159.239 89.6569Z" fill="url(#paint0_linear_91_2422)"/>
<path d="M157.652 161.282L107.578 111.424C103.322 107.186 96.4671 107.186 92.2823 111.424L42.2089 161.282H157.652Z" fill="url(#paint1_linear_91_2422)"/>
<path d="M89.1075 161.282L55.9898 128.307C50.362 122.703 41.1987 122.703 35.5708 128.307L2.52527 161.282H89.1075Z" fill="url(#paint2_linear_91_2422)"/>
<path d="M67.4624 8.62085H13.3484V66.0931H67.4624C69.4826 66.0931 71.07 67.6736 71.07 69.6852V12.2129C71.07 10.2013 69.4826 8.62085 67.4624 8.62085Z" fill="url(#paint3_linear_91_2422)"/>
<path d="M71.0692 15.8049V66.0932V69.6852C71.0692 71.6967 69.4819 73.2772 67.4617 73.2772H53.2477C51.4439 73.2772 49.7844 74.4985 49.4958 76.2945C49.1351 78.5216 50.8667 80.4613 53.0313 80.4613H114.36C116.381 80.4613 117.968 78.8808 117.968 76.8692L103.538 48.1331L117.968 19.3969C117.968 17.3854 116.381 15.8049 114.36 15.8049H71.0692Z" fill="url(#paint4_linear_91_2422)"/>
<path opacity="0.7" d="M0.721497 161.281H170.278" stroke="#DF61FF" stroke-width="2" stroke-miterlimit="10" stroke-linecap="round" stroke-linejoin="round"/>
<path d="M13.3484 1.43677V159.486" stroke="url(#paint5_linear_91_2422)" stroke-width="4" stroke-miterlimit="10" stroke-linecap="round" stroke-linejoin="round"/>
<path d="M71.0692 12.2126C71.0692 12.4282 71.0692 12.6437 71.0692 12.7874C70.7085 14.5834 69.049 15.8047 67.2452 15.8047H54.835C51.8768 15.8047 49.4236 18.2472 49.4236 21.1927V73.2769V76.869C49.4236 74.8574 51.011 73.2769 53.0312 73.2769H67.4616C69.4819 73.2769 71.0692 71.6965 71.0692 69.6849V12.2126Z" fill="url(#paint6_linear_91_2422)"/>
</g>
<g clip-path="url(#clip1_91_2422)">
<path d="M159.239 89.6569L87.3035 161.282H168.474V93.4644C168.474 88.6511 162.63 86.2804 159.239 89.6569Z" fill="url(#paint7_linear_91_2422)"/>
<path d="M157.652 161.282L107.578 111.424C103.322 107.186 96.4671 107.186 92.2823 111.424L42.2089 161.282H157.652Z" fill="url(#paint8_linear_91_2422)"/>
<path d="M89.1075 161.282L55.9898 128.307C50.362 122.703 41.1987 122.703 35.5708 128.307L2.52527 161.282H89.1075Z" fill="url(#paint9_linear_91_2422)"/>
<path d="M67.4624 8.62085H13.3484V66.0931H67.4624C69.4826 66.0931 71.07 67.6736 71.07 69.6852V12.2129C71.07 10.2013 69.4826 8.62085 67.4624 8.62085Z" fill="url(#paint10_linear_91_2422)"/>
<path d="M71.0692 15.8049V66.0932V69.6852C71.0692 71.6967 69.4819 73.2772 67.4617 73.2772H53.2477C51.4439 73.2772 49.7844 74.4985 49.4958 76.2945C49.1351 78.5216 50.8667 80.4613 53.0313 80.4613H114.36C116.381 80.4613 117.968 78.8808 117.968 76.8692L103.538 48.1331L117.968 19.3969C117.968 17.3854 116.381 15.8049 114.36 15.8049H71.0692Z" fill="url(#paint11_linear_91_2422)"/>
<path opacity="0.7" d="M0.721497 161.281H170.278" stroke="#DF61FF" stroke-width="2" stroke-miterlimit="10" stroke-linecap="round" stroke-linejoin="round"/>
<path d="M13.3484 1.43677V159.486" stroke="url(#paint12_linear_91_2422)" stroke-width="4" stroke-miterlimit="10" stroke-linecap="round" stroke-linejoin="round"/>
<path d="M71.0692 12.2126C71.0692 12.4282 71.0692 12.6437 71.0692 12.7874C70.7085 14.5834 69.049 15.8047 67.2452 15.8047H54.835C51.8768 15.8047 49.4236 18.2472 49.4236 21.1927V73.2769V76.869C49.4236 74.8574 51.011 73.2769 53.0312 73.2769H67.4616C69.4819 73.2769 71.0692 71.6965 71.0692 69.6849V12.2126Z" fill="url(#paint13_linear_91_2422)"/>
</g>
<defs>
<linearGradient id="paint0_linear_91_2422" x1="127.889" y1="162.945" x2="127.889" y2="77.1052" gradientUnits="userSpaceOnUse">
<stop stop-color="#DF61FF" stop-opacity="0"/>
<stop offset="1" stop-color="#DF61FF"/>
</linearGradient>
<linearGradient id="paint1_linear_91_2422" x1="99.9304" y1="163.144" x2="99.9304" y2="82.1394" gradientUnits="userSpaceOnUse">
<stop stop-color="#DF61FF" stop-opacity="0"/>
<stop offset="1" stop-color="#DF61FF"/>
</linearGradient>
<linearGradient id="paint2_linear_91_2422" x1="45.8164" y1="163.937" x2="45.8164" y2="113.536" gradientUnits="userSpaceOnUse">
<stop stop-color="#DF61FF" stop-opacity="0"/>
<stop offset="1" stop-color="#DF61FF"/>
</linearGradient>
<linearGradient id="paint3_linear_91_2422" x1="11.8315" y1="43.0864" x2="80.5858" y2="34.1065" gradientUnits="userSpaceOnUse">
<stop stop-color="#DF61FF" stop-opacity="0"/>
<stop offset="1" stop-color="#DF61FF"/>
</linearGradient>
<linearGradient id="paint4_linear_91_2422" x1="43.0798" y1="65.6052" x2="120.528" y2="38.2756" gradientUnits="userSpaceOnUse">
<stop stop-color="#DF61FF" stop-opacity="0"/>
<stop offset="1" stop-color="#DF61FF"/>
</linearGradient>
<linearGradient id="paint5_linear_91_2422" x1="-nan" y1="-nan" x2="-nan" y2="-nan" gradientUnits="userSpaceOnUse">
<stop stop-color="white" stop-opacity="0"/>
<stop offset="1" stop-color="white"/>
</linearGradient>
<linearGradient id="paint6_linear_91_2422" x1="62.6599" y1="44.03" x2="-48.2716" y2="78.6799" gradientUnits="userSpaceOnUse">
<stop stop-color="#DF61FF" stop-opacity="0"/>
<stop offset="1" stop-color="#DF61FF"/>
</linearGradient>
<linearGradient id="paint7_linear_91_2422" x1="127.889" y1="162.945" x2="127.889" y2="77.1052" gradientUnits="userSpaceOnUse">
<stop stop-color="#DF61FF" stop-opacity="0"/>
<stop offset="1" stop-color="#DF61FF"/>
</linearGradient>
<linearGradient id="paint8_linear_91_2422" x1="99.9304" y1="163.144" x2="99.9304" y2="82.1394" gradientUnits="userSpaceOnUse">
<stop stop-color="#DF61FF" stop-opacity="0"/>
<stop offset="1" stop-color="#DF61FF"/>
</linearGradient>
<linearGradient id="paint9_linear_91_2422" x1="45.8164" y1="163.937" x2="45.8164" y2="113.536" gradientUnits="userSpaceOnUse">
<stop stop-color="#DF61FF" stop-opacity="0"/>
<stop offset="1" stop-color="#DF61FF"/>
</linearGradient>
<linearGradient id="paint10_linear_91_2422" x1="11.8315" y1="43.0864" x2="80.5858" y2="34.1065" gradientUnits="userSpaceOnUse">
<stop stop-color="#DF61FF" stop-opacity="0"/>
<stop offset="1" stop-color="#DF61FF"/>
</linearGradient>
<linearGradient id="paint11_linear_91_2422" x1="43.0798" y1="65.6052" x2="120.528" y2="38.2756" gradientUnits="userSpaceOnUse">
<stop stop-color="#DF61FF" stop-opacity="0"/>
<stop offset="1" stop-color="#DF61FF"/>
</linearGradient>
<linearGradient id="paint12_linear_91_2422" x1="-nan" y1="-nan" x2="-nan" y2="-nan" gradientUnits="userSpaceOnUse">
<stop stop-color="white" stop-opacity="0"/>
<stop offset="1" stop-color="white"/>
</linearGradient>
<linearGradient id="paint13_linear_91_2422" x1="62.6599" y1="44.03" x2="-48.2716" y2="78.6799" gradientUnits="userSpaceOnUse">
<stop stop-color="#DF61FF" stop-opacity="0"/>
<stop offset="1" stop-color="#DF61FF"/>
</linearGradient>
<clipPath id="clip0_91_2422">
<rect width="171" height="162" fill="white"/>
</clipPath>
<clipPath id="clip1_91_2422">
<rect width="171" height="162" fill="white"/>
</clipPath>
</defs>
</svg>
