<svg width="140" height="166" viewBox="0 0 140 166" fill="none" xmlns="http://www.w3.org/2000/svg">
<g clip-path="url(#clip0_91_2518)">
<path d="M112.481 152.167H26.486H9.28702V10.375H112.481V152.167Z" fill="url(#paint0_linear_91_2518)"/>
<path opacity="0.7" d="M29.9258 105.479V88.1875" stroke="#F2994A" stroke-width="2" stroke-miterlimit="10" stroke-linecap="round"/>
<path opacity="0.7" d="M60.8837 105.479V86.4581" stroke="#F2994A" stroke-width="2" stroke-miterlimit="10" stroke-linecap="round"/>
<path opacity="0.7" d="M81.5233 105.479V77.8126" stroke="#F2994A" stroke-width="2" stroke-miterlimit="10" stroke-linecap="round"/>
<path opacity="0.7" d="M40.245 105.479V74.3541" stroke="#F2994A" stroke-width="2" stroke-miterlimit="10" stroke-linecap="round"/>
<path opacity="0.7" d="M50.5643 105.479V81.2706" stroke="#F2994A" stroke-width="2" stroke-miterlimit="10" stroke-linecap="round"/>
<path opacity="0.7" d="M71.203 105.479V70.8956" stroke="#F2994A" stroke-width="2" stroke-miterlimit="10" stroke-linecap="round"/>
<path opacity="0.7" d="M91.8427 105.479V63.9791" stroke="#F2994A" stroke-width="2" stroke-miterlimit="10" stroke-linecap="round"/>
<path opacity="0.7" d="M28.2059 112.396H93.5622" stroke="#F2994A" stroke-width="2" stroke-miterlimit="10" stroke-linecap="round"/>
<path d="M93.5627 0H28.2064C26.2801 0 24.7666 1.52167 24.7666 3.45833L31.6462 17.2917H90.1229L97.0025 3.45833C97.0025 1.52167 95.489 0 93.5627 0ZM74.6438 10.375H47.1253C46.1622 10.375 45.4054 9.61417 45.4054 8.64583C45.4054 7.6775 46.1622 6.91667 47.1253 6.91667H74.6438C75.6069 6.91667 76.3637 7.6775 76.3637 8.64583C76.3637 9.61417 75.6069 10.375 74.6438 10.375Z" fill="url(#paint1_linear_91_2518)"/>
<path d="M140 155.625L134.84 166V0H140V155.625Z" fill="url(#paint2_linear_91_2518)"/>
<path d="M134.839 166L129.68 155.625V0H134.839V166Z" fill="url(#paint3_linear_91_2518)"/>
<path d="M139.999 10.375V0H129.68V10.375H139.999Z" fill="url(#paint4_linear_91_2518)"/>
<path d="M0.6875 164.271V1.72913H19.6064" stroke="url(#paint5_linear_91_2518)" stroke-width="2" stroke-miterlimit="10" stroke-linecap="round" stroke-linejoin="round"/>
<path d="M26.4863 1.729H121.081V164.271" stroke="url(#paint6_linear_91_2518)" stroke-width="2" stroke-miterlimit="10" stroke-linecap="round" stroke-linejoin="round"/>
<path d="M0.6875 164.271H121.081" stroke="url(#paint7_linear_91_2518)" stroke-width="2" stroke-miterlimit="10" stroke-linecap="round" stroke-linejoin="round"/>
<path opacity="0.7" d="M47.1252 43.2293C48.0751 43.2293 48.8451 42.4552 48.8451 41.5002C48.8451 40.5452 48.0751 39.771 47.1252 39.771C46.1753 39.771 45.4053 40.5452 45.4053 41.5002C45.4053 42.4552 46.1753 43.2293 47.1252 43.2293Z" stroke="#F2994A" stroke-width="2" stroke-miterlimit="10" stroke-linecap="round"/>
<path opacity="0.7" d="M74.6437 43.2293C75.5936 43.2293 76.3636 42.4552 76.3636 41.5002C76.3636 40.5452 75.5936 39.771 74.6437 39.771C73.6939 39.771 72.9238 40.5452 72.9238 41.5002C72.9238 42.4552 73.6939 43.2293 74.6437 43.2293Z" stroke="#F2994A" stroke-width="2" stroke-miterlimit="10" stroke-linecap="round"/>
<path opacity="0.7" d="M60.8841 43.2292C61.8339 43.2292 62.604 42.455 62.604 41.5C62.604 40.545 61.8339 39.7709 60.8841 39.7709C59.9342 39.7709 59.1642 40.545 59.1642 41.5C59.1642 42.455 59.9342 43.2292 60.8841 43.2292Z" stroke="#F2994A" stroke-width="2" stroke-miterlimit="10" stroke-linecap="round"/>
</g>
<g clip-path="url(#clip1_91_2518)">
<path d="M112.481 152.167H26.486H9.28702V10.375H112.481V152.167Z" fill="url(#paint8_linear_91_2518)"/>
<path opacity="0.7" d="M29.9258 105.479V88.1875" stroke="#F2994A" stroke-width="2" stroke-miterlimit="10" stroke-linecap="round"/>
<path opacity="0.7" d="M60.8837 105.479V86.4581" stroke="#F2994A" stroke-width="2" stroke-miterlimit="10" stroke-linecap="round"/>
<path opacity="0.7" d="M81.5233 105.479V77.8126" stroke="#F2994A" stroke-width="2" stroke-miterlimit="10" stroke-linecap="round"/>
<path opacity="0.7" d="M40.245 105.479V74.3541" stroke="#F2994A" stroke-width="2" stroke-miterlimit="10" stroke-linecap="round"/>
<path opacity="0.7" d="M50.5643 105.479V81.2706" stroke="#F2994A" stroke-width="2" stroke-miterlimit="10" stroke-linecap="round"/>
<path opacity="0.7" d="M71.203 105.479V70.8956" stroke="#F2994A" stroke-width="2" stroke-miterlimit="10" stroke-linecap="round"/>
<path opacity="0.7" d="M91.8427 105.479V63.9791" stroke="#F2994A" stroke-width="2" stroke-miterlimit="10" stroke-linecap="round"/>
<path opacity="0.7" d="M28.2059 112.396H93.5622" stroke="#F2994A" stroke-width="2" stroke-miterlimit="10" stroke-linecap="round"/>
<path d="M93.5627 0H28.2064C26.2801 0 24.7666 1.52167 24.7666 3.45833L31.6462 17.2917H90.1229L97.0025 3.45833C97.0025 1.52167 95.489 0 93.5627 0ZM74.6438 10.375H47.1253C46.1622 10.375 45.4054 9.61417 45.4054 8.64583C45.4054 7.6775 46.1622 6.91667 47.1253 6.91667H74.6438C75.6069 6.91667 76.3637 7.6775 76.3637 8.64583C76.3637 9.61417 75.6069 10.375 74.6438 10.375Z" fill="url(#paint9_linear_91_2518)"/>
<path d="M140 155.625L134.84 166V0H140V155.625Z" fill="url(#paint10_linear_91_2518)"/>
<path d="M134.839 166L129.68 155.625V0H134.839V166Z" fill="url(#paint11_linear_91_2518)"/>
<path d="M139.999 10.375V0H129.68V10.375H139.999Z" fill="url(#paint12_linear_91_2518)"/>
<path d="M0.6875 164.271V1.72913H19.6064" stroke="url(#paint13_linear_91_2518)" stroke-width="2" stroke-miterlimit="10" stroke-linecap="round" stroke-linejoin="round"/>
<path d="M26.4863 1.729H121.081V164.271" stroke="url(#paint14_linear_91_2518)" stroke-width="2" stroke-miterlimit="10" stroke-linecap="round" stroke-linejoin="round"/>
<path d="M0.6875 164.271H121.081" stroke="url(#paint15_linear_91_2518)" stroke-width="2" stroke-miterlimit="10" stroke-linecap="round" stroke-linejoin="round"/>
<path opacity="0.7" d="M47.1252 43.2293C48.0751 43.2293 48.8451 42.4552 48.8451 41.5002C48.8451 40.5452 48.0751 39.771 47.1252 39.771C46.1753 39.771 45.4053 40.5452 45.4053 41.5002C45.4053 42.4552 46.1753 43.2293 47.1252 43.2293Z" stroke="#F2994A" stroke-width="2" stroke-miterlimit="10" stroke-linecap="round"/>
<path opacity="0.7" d="M74.6437 43.2293C75.5936 43.2293 76.3636 42.4552 76.3636 41.5002C76.3636 40.5452 75.5936 39.771 74.6437 39.771C73.6939 39.771 72.9238 40.5452 72.9238 41.5002C72.9238 42.4552 73.6939 43.2293 74.6437 43.2293Z" stroke="#F2994A" stroke-width="2" stroke-miterlimit="10" stroke-linecap="round"/>
<path opacity="0.7" d="M60.8841 43.2292C61.8339 43.2292 62.604 42.455 62.604 41.5C62.604 40.545 61.8339 39.7709 60.8841 39.7709C59.9342 39.7709 59.1642 40.545 59.1642 41.5C59.1642 42.455 59.9342 43.2292 60.8841 43.2292Z" stroke="#F2994A" stroke-width="2" stroke-miterlimit="10" stroke-linecap="round"/>
</g>
<defs>
<linearGradient id="paint0_linear_91_2518" x1="5.9555" y1="38.5515" x2="217.042" y2="200.964" gradientUnits="userSpaceOnUse">
<stop stop-color="#F2994A" stop-opacity="0"/>
<stop offset="1" stop-color="#F2994A"/>
</linearGradient>
<linearGradient id="paint1_linear_91_2518" x1="60.8845" y1="1.15633" x2="60.8845" y2="19.5159" gradientUnits="userSpaceOnUse">
<stop stop-color="#F2994A" stop-opacity="0"/>
<stop offset="1" stop-color="#F2994A"/>
</linearGradient>
<linearGradient id="paint2_linear_91_2518" x1="169.881" y1="77.6943" x2="117.761" y2="85.5017" gradientUnits="userSpaceOnUse">
<stop stop-color="#F2994A" stop-opacity="0"/>
<stop offset="1" stop-color="#F2994A"/>
</linearGradient>
<linearGradient id="paint3_linear_91_2518" x1="126.014" y1="82.5363" x2="154.559" y2="84.0199" gradientUnits="userSpaceOnUse">
<stop stop-color="#F2994A" stop-opacity="0"/>
<stop offset="1" stop-color="#F2994A"/>
</linearGradient>
<linearGradient id="paint4_linear_91_2518" x1="128.319" y1="4.34159" x2="144.022" y2="6.35693" gradientUnits="userSpaceOnUse">
<stop stop-color="#F2994A" stop-opacity="0"/>
<stop offset="1" stop-color="#F2994A"/>
</linearGradient>
<linearGradient id="paint5_linear_91_2518" x1="40.764" y1="13.2116" x2="-35.2687" y2="144.198" gradientUnits="userSpaceOnUse">
<stop stop-color="#F2994A" stop-opacity="0"/>
<stop offset="1" stop-color="#F2994A" stop-opacity="0.7"/>
</linearGradient>
<linearGradient id="paint6_linear_91_2518" x1="73.7836" y1="164.962" x2="73.7836" y2="1.03734" gradientUnits="userSpaceOnUse">
<stop stop-color="#F2994A" stop-opacity="0"/>
<stop offset="1" stop-color="#F2994A" stop-opacity="0.7"/>
</linearGradient>
<linearGradient id="paint7_linear_91_2518" x1="-nan" y1="-nan" x2="-nan" y2="-nan" gradientUnits="userSpaceOnUse">
<stop stop-color="white" stop-opacity="0"/>
<stop offset="1" stop-color="white" stop-opacity="0.7"/>
</linearGradient>
<linearGradient id="paint8_linear_91_2518" x1="5.9555" y1="38.5515" x2="217.042" y2="200.964" gradientUnits="userSpaceOnUse">
<stop stop-color="#F2994A" stop-opacity="0"/>
<stop offset="1" stop-color="#F2994A"/>
</linearGradient>
<linearGradient id="paint9_linear_91_2518" x1="60.8845" y1="1.15633" x2="60.8845" y2="19.5159" gradientUnits="userSpaceOnUse">
<stop stop-color="#F2994A" stop-opacity="0"/>
<stop offset="1" stop-color="#F2994A"/>
</linearGradient>
<linearGradient id="paint10_linear_91_2518" x1="169.881" y1="77.6943" x2="117.761" y2="85.5017" gradientUnits="userSpaceOnUse">
<stop stop-color="#F2994A" stop-opacity="0"/>
<stop offset="1" stop-color="#F2994A"/>
</linearGradient>
<linearGradient id="paint11_linear_91_2518" x1="126.014" y1="82.5363" x2="154.559" y2="84.0199" gradientUnits="userSpaceOnUse">
<stop stop-color="#F2994A" stop-opacity="0"/>
<stop offset="1" stop-color="#F2994A"/>
</linearGradient>
<linearGradient id="paint12_linear_91_2518" x1="128.319" y1="4.34159" x2="144.022" y2="6.35693" gradientUnits="userSpaceOnUse">
<stop stop-color="#F2994A" stop-opacity="0"/>
<stop offset="1" stop-color="#F2994A"/>
</linearGradient>
<linearGradient id="paint13_linear_91_2518" x1="40.764" y1="13.2116" x2="-35.2687" y2="144.198" gradientUnits="userSpaceOnUse">
<stop stop-color="#F2994A" stop-opacity="0"/>
<stop offset="1" stop-color="#F2994A" stop-opacity="0.7"/>
</linearGradient>
<linearGradient id="paint14_linear_91_2518" x1="73.7836" y1="164.962" x2="73.7836" y2="1.03734" gradientUnits="userSpaceOnUse">
<stop stop-color="#F2994A" stop-opacity="0"/>
<stop offset="1" stop-color="#F2994A" stop-opacity="0.7"/>
</linearGradient>
<linearGradient id="paint15_linear_91_2518" x1="-nan" y1="-nan" x2="-nan" y2="-nan" gradientUnits="userSpaceOnUse">
<stop stop-color="white" stop-opacity="0"/>
<stop offset="1" stop-color="white" stop-opacity="0.7"/>
</linearGradient>
<clipPath id="clip0_91_2518">
<rect width="140" height="166" fill="white"/>
</clipPath>
<clipPath id="clip1_91_2518">
<rect width="140" height="166" fill="white"/>
</clipPath>
</defs>
</svg>
