<svg width="166" height="166" viewBox="0 0 166 166" fill="none" xmlns="http://www.w3.org/2000/svg">
<g clip-path="url(#clip0_91_2478)">
<path d="M121.042 133.146L88.6717 147.048C86.1125 148.155 83.2767 148.708 80.51 148.708H46.48C44.3358 148.708 42.1917 149.193 40.3242 150.161L6.91667 166C3.1125 166 0 162.888 0 159.083V139.786C0 136.673 1.245 133.63 3.45833 131.417L27.39 122.494C29.8108 121.526 32.4392 121.042 35.0675 121.042H107.208L148.708 95.1042C153.896 91.6459 155.625 89.9167 160.812 89.9167C166 89.9167 166 91.6459 166 93.3751C166 95.1042 164.271 96.8334 162.542 98.5626L121.042 133.146Z" fill="url(#paint0_linear_91_2478)"/>
<path d="M35.1367 121.042H107.208L148.708 95.1042C153.896 91.6459 155.625 89.9167 160.812 89.9167C166 89.9167 166 91.6459 166 93.3751C166 95.1042 164.271 96.8334 162.542 98.5626L121.042 133.146L88.6717 147.048C86.1125 148.155 83.2767 148.708 80.51 148.708H46.48L35.1367 121.042Z" fill="url(#paint1_linear_91_2478)"/>
<path d="M107.208 121.042C107.208 121.042 134.667 95.3117 138.333 91.6459C141.791 88.1875 145.25 86.4584 150.437 86.4584C152.512 86.4584 153.55 87.9109 152.166 89.9167L121.041 133.146L107.208 121.042Z" fill="url(#paint2_linear_91_2478)"/>
<path d="M107.208 108.938C107.208 107.969 106.448 107.208 105.479 107.208H65.7775C55.0567 107.208 51.875 110.667 31.125 121.042L3.45833 131.417C1.245 133.63 0 136.604 0 139.786V159.083C0 162.888 3.1125 166 6.91667 166L40.3242 150.161C58.7917 141.792 62.25 121.042 79.1958 121.042H95.1042C101.813 121.042 107.208 115.578 107.208 108.938Z" fill="url(#paint3_linear_91_2478)"/>
<path d="M95.1042 121.042C101.813 121.042 107.208 115.578 107.208 108.938C107.208 107.969 106.448 107.208 105.479 107.208H65.7775C55.0567 107.208 51.875 110.667 31.125 121.042H95.1042Z" fill="url(#paint4_linear_91_2478)"/>
<path d="M77.8122 91.646C84.5213 91.646 89.9163 86.251 89.9163 79.5418V8.646H65.708V79.5418C65.708 86.251 71.103 91.646 77.8122 91.646Z" fill="url(#paint5_linear_91_2478)"/>
<path d="M77.8122 91.6458C84.4971 91.6458 89.9163 86.2266 89.9163 79.5417C89.9163 72.8567 84.4971 67.4375 77.8122 67.4375C71.1272 67.4375 65.708 72.8567 65.708 79.5417C65.708 86.2266 71.1272 91.6458 77.8122 91.6458Z" fill="url(#paint6_linear_91_2478)"/>
<path d="M108.937 65.7083C115.646 65.7083 121.041 60.3133 121.041 53.6042V0H96.833V53.6042C96.833 60.3133 102.228 65.7083 108.937 65.7083Z" fill="url(#paint7_linear_91_2478)"/>
<path d="M77.8122 91.6458C84.4971 91.6458 89.9163 86.2266 89.9163 79.5417C89.9163 72.8567 84.4971 67.4375 77.8122 67.4375C71.1272 67.4375 65.708 72.8567 65.708 79.5417C65.708 86.2266 71.1272 91.6458 77.8122 91.6458Z" stroke="url(#paint8_linear_91_2478)" stroke-width="2" stroke-miterlimit="10"/>
<path d="M108.937 65.7083C115.622 65.7083 121.041 60.2891 121.041 53.6042C121.041 46.9192 115.622 41.5 108.937 41.5C102.252 41.5 96.833 46.9192 96.833 53.6042C96.833 60.2891 102.252 65.7083 108.937 65.7083Z" fill="url(#paint9_linear_91_2478)"/>
<path d="M108.937 65.7083C115.622 65.7083 121.041 60.2891 121.041 53.6042C121.041 46.9192 115.622 41.5 108.937 41.5C102.252 41.5 96.833 46.9192 96.833 53.6042C96.833 60.2891 102.252 65.7083 108.937 65.7083Z" stroke="url(#paint10_linear_91_2478)" stroke-width="2" stroke-miterlimit="10"/>
<path d="M77.8125 27.6666V62.25" stroke="url(#paint11_linear_91_2478)" stroke-width="2" stroke-miterlimit="10" stroke-linecap="round"/>
<path d="M108.938 1.72913V36.3125" stroke="url(#paint12_linear_91_2478)" stroke-width="2" stroke-miterlimit="10" stroke-linecap="round"/>
</g>
<g clip-path="url(#clip1_91_2478)">
<path d="M121.042 133.146L88.6717 147.048C86.1125 148.155 83.2767 148.708 80.51 148.708H46.48C44.3358 148.708 42.1917 149.193 40.3242 150.161L6.91667 166C3.1125 166 0 162.888 0 159.083V139.786C0 136.673 1.245 133.63 3.45833 131.417L27.39 122.494C29.8108 121.526 32.4392 121.042 35.0675 121.042H107.208L148.708 95.1042C153.896 91.6459 155.625 89.9167 160.812 89.9167C166 89.9167 166 91.6459 166 93.3751C166 95.1042 164.271 96.8334 162.542 98.5626L121.042 133.146Z" fill="url(#paint13_linear_91_2478)"/>
<path d="M35.1367 121.042H107.208L148.708 95.1042C153.896 91.6459 155.625 89.9167 160.812 89.9167C166 89.9167 166 91.6459 166 93.3751C166 95.1042 164.271 96.8334 162.542 98.5626L121.042 133.146L88.6717 147.048C86.1125 148.155 83.2767 148.708 80.51 148.708H46.48L35.1367 121.042Z" fill="url(#paint14_linear_91_2478)"/>
<path d="M107.208 121.042C107.208 121.042 134.667 95.3117 138.333 91.6459C141.791 88.1875 145.25 86.4584 150.437 86.4584C152.512 86.4584 153.55 87.9109 152.166 89.9167L121.041 133.146L107.208 121.042Z" fill="url(#paint15_linear_91_2478)"/>
<path d="M107.208 108.938C107.208 107.969 106.448 107.208 105.479 107.208H65.7775C55.0567 107.208 51.875 110.667 31.125 121.042L3.45833 131.417C1.245 133.63 0 136.604 0 139.786V159.083C0 162.888 3.1125 166 6.91667 166L40.3242 150.161C58.7917 141.792 62.25 121.042 79.1958 121.042H95.1042C101.813 121.042 107.208 115.578 107.208 108.938Z" fill="url(#paint16_linear_91_2478)"/>
<path d="M95.1042 121.042C101.813 121.042 107.208 115.578 107.208 108.938C107.208 107.969 106.448 107.208 105.479 107.208H65.7775C55.0567 107.208 51.875 110.667 31.125 121.042H95.1042Z" fill="url(#paint17_linear_91_2478)"/>
<path d="M77.8122 91.646C84.5213 91.646 89.9163 86.251 89.9163 79.5418V8.646H65.708V79.5418C65.708 86.251 71.103 91.646 77.8122 91.646Z" fill="url(#paint18_linear_91_2478)"/>
<path d="M77.8122 91.6458C84.4971 91.6458 89.9163 86.2266 89.9163 79.5417C89.9163 72.8567 84.4971 67.4375 77.8122 67.4375C71.1272 67.4375 65.708 72.8567 65.708 79.5417C65.708 86.2266 71.1272 91.6458 77.8122 91.6458Z" fill="url(#paint19_linear_91_2478)"/>
<path d="M108.937 65.7083C115.646 65.7083 121.041 60.3133 121.041 53.6042V0H96.833V53.6042C96.833 60.3133 102.228 65.7083 108.937 65.7083Z" fill="url(#paint20_linear_91_2478)"/>
<path d="M77.8122 91.6458C84.4971 91.6458 89.9163 86.2266 89.9163 79.5417C89.9163 72.8567 84.4971 67.4375 77.8122 67.4375C71.1272 67.4375 65.708 72.8567 65.708 79.5417C65.708 86.2266 71.1272 91.6458 77.8122 91.6458Z" stroke="url(#paint21_linear_91_2478)" stroke-width="2" stroke-miterlimit="10"/>
<path d="M108.937 65.7083C115.622 65.7083 121.041 60.2891 121.041 53.6042C121.041 46.9192 115.622 41.5 108.937 41.5C102.252 41.5 96.833 46.9192 96.833 53.6042C96.833 60.2891 102.252 65.7083 108.937 65.7083Z" fill="url(#paint22_linear_91_2478)"/>
<path d="M108.937 65.7083C115.622 65.7083 121.041 60.2891 121.041 53.6042C121.041 46.9192 115.622 41.5 108.937 41.5C102.252 41.5 96.833 46.9192 96.833 53.6042C96.833 60.2891 102.252 65.7083 108.937 65.7083Z" stroke="url(#paint23_linear_91_2478)" stroke-width="2" stroke-miterlimit="10"/>
<path d="M77.8125 27.6666V62.25" stroke="url(#paint24_linear_91_2478)" stroke-width="2" stroke-miterlimit="10" stroke-linecap="round"/>
<path d="M108.938 1.72913V36.3125" stroke="url(#paint25_linear_91_2478)" stroke-width="2" stroke-miterlimit="10" stroke-linecap="round"/>
</g>
<defs>
<linearGradient id="paint0_linear_91_2478" x1="82.2453" y1="118.559" x2="88.5268" y2="181.273" gradientUnits="userSpaceOnUse">
<stop stop-color="#EB5757" stop-opacity="0"/>
<stop offset="1" stop-color="#EB5757"/>
</linearGradient>
<linearGradient id="paint1_linear_91_2478" x1="85.3548" y1="124.57" x2="162.55" y2="40.243" gradientUnits="userSpaceOnUse">
<stop stop-color="#EB5757" stop-opacity="0"/>
<stop offset="1" stop-color="#EB5757"/>
</linearGradient>
<linearGradient id="paint2_linear_91_2478" x1="133.261" y1="110.649" x2="120.095" y2="85.5605" gradientUnits="userSpaceOnUse">
<stop stop-color="#EB5757" stop-opacity="0"/>
<stop offset="1" stop-color="#EB5757"/>
</linearGradient>
<linearGradient id="paint3_linear_91_2478" x1="55.626" y1="139.508" x2="40.0456" y2="101.024" gradientUnits="userSpaceOnUse">
<stop stop-color="#EB5757" stop-opacity="0"/>
<stop offset="1" stop-color="#EB5757"/>
</linearGradient>
<linearGradient id="paint4_linear_91_2478" x1="68.3684" y1="118.165" x2="87.7181" y2="69.2815" gradientUnits="userSpaceOnUse">
<stop stop-color="#EB5757" stop-opacity="0"/>
<stop offset="1" stop-color="#EB5757"/>
</linearGradient>
<linearGradient id="paint5_linear_91_2478" x1="87.99" y1="39.646" x2="-130.879" y2="201.04" gradientUnits="userSpaceOnUse">
<stop stop-color="#EB5757" stop-opacity="0"/>
<stop offset="1" stop-color="#EB5757"/>
</linearGradient>
<linearGradient id="paint6_linear_91_2478" x1="65.7309" y1="72.2574" x2="104.685" y2="95.7444" gradientUnits="userSpaceOnUse">
<stop stop-color="#EB5757" stop-opacity="0"/>
<stop offset="1" stop-color="#EB5757"/>
</linearGradient>
<linearGradient id="paint7_linear_91_2478" x1="117.563" y1="23.4988" x2="-66.1678" y2="158.982" gradientUnits="userSpaceOnUse">
<stop stop-color="#EB5757" stop-opacity="0"/>
<stop offset="1" stop-color="#EB5757"/>
</linearGradient>
<linearGradient id="paint8_linear_91_2478" x1="90.608" y1="79.5417" x2="65.0163" y2="79.5417" gradientUnits="userSpaceOnUse">
<stop stop-color="#EB5757" stop-opacity="0.05"/>
<stop offset="1" stop-color="#EB5757" stop-opacity="0.7"/>
</linearGradient>
<linearGradient id="paint9_linear_91_2478" x1="96.8559" y1="46.3199" x2="135.81" y2="69.8069" gradientUnits="userSpaceOnUse">
<stop stop-color="#EB5757" stop-opacity="0"/>
<stop offset="1" stop-color="#EB5757"/>
</linearGradient>
<linearGradient id="paint10_linear_91_2478" x1="121.733" y1="53.6042" x2="96.1413" y2="53.6042" gradientUnits="userSpaceOnUse">
<stop stop-color="#EB5757" stop-opacity="0.05"/>
<stop offset="1" stop-color="#EB5757" stop-opacity="0.7"/>
</linearGradient>
<linearGradient id="paint11_linear_91_2478" x1="-nan" y1="-nan" x2="-nan" y2="-nan" gradientUnits="userSpaceOnUse">
<stop stop-color="white" stop-opacity="0"/>
<stop offset="0.5" stop-color="white" stop-opacity="0.3"/>
<stop offset="1" stop-color="white" stop-opacity="0"/>
</linearGradient>
<linearGradient id="paint12_linear_91_2478" x1="-nan" y1="-nan" x2="-nan" y2="-nan" gradientUnits="userSpaceOnUse">
<stop stop-color="white" stop-opacity="0"/>
<stop offset="0.5" stop-color="white" stop-opacity="0.3"/>
<stop offset="1" stop-color="white" stop-opacity="0"/>
</linearGradient>
<linearGradient id="paint13_linear_91_2478" x1="82.2453" y1="118.559" x2="88.5268" y2="181.273" gradientUnits="userSpaceOnUse">
<stop stop-color="#EB5757" stop-opacity="0"/>
<stop offset="1" stop-color="#EB5757"/>
</linearGradient>
<linearGradient id="paint14_linear_91_2478" x1="85.3548" y1="124.57" x2="162.55" y2="40.243" gradientUnits="userSpaceOnUse">
<stop stop-color="#EB5757" stop-opacity="0"/>
<stop offset="1" stop-color="#EB5757"/>
</linearGradient>
<linearGradient id="paint15_linear_91_2478" x1="133.261" y1="110.649" x2="120.095" y2="85.5605" gradientUnits="userSpaceOnUse">
<stop stop-color="#EB5757" stop-opacity="0"/>
<stop offset="1" stop-color="#EB5757"/>
</linearGradient>
<linearGradient id="paint16_linear_91_2478" x1="55.626" y1="139.508" x2="40.0456" y2="101.024" gradientUnits="userSpaceOnUse">
<stop stop-color="#EB5757" stop-opacity="0"/>
<stop offset="1" stop-color="#EB5757"/>
</linearGradient>
<linearGradient id="paint17_linear_91_2478" x1="68.3684" y1="118.165" x2="87.7181" y2="69.2815" gradientUnits="userSpaceOnUse">
<stop stop-color="#EB5757" stop-opacity="0"/>
<stop offset="1" stop-color="#EB5757"/>
</linearGradient>
<linearGradient id="paint18_linear_91_2478" x1="87.99" y1="39.646" x2="-130.879" y2="201.04" gradientUnits="userSpaceOnUse">
<stop stop-color="#EB5757" stop-opacity="0"/>
<stop offset="1" stop-color="#EB5757"/>
</linearGradient>
<linearGradient id="paint19_linear_91_2478" x1="65.7309" y1="72.2574" x2="104.685" y2="95.7444" gradientUnits="userSpaceOnUse">
<stop stop-color="#EB5757" stop-opacity="0"/>
<stop offset="1" stop-color="#EB5757"/>
</linearGradient>
<linearGradient id="paint20_linear_91_2478" x1="117.563" y1="23.4988" x2="-66.1678" y2="158.982" gradientUnits="userSpaceOnUse">
<stop stop-color="#EB5757" stop-opacity="0"/>
<stop offset="1" stop-color="#EB5757"/>
</linearGradient>
<linearGradient id="paint21_linear_91_2478" x1="90.608" y1="79.5417" x2="65.0163" y2="79.5417" gradientUnits="userSpaceOnUse">
<stop stop-color="#EB5757" stop-opacity="0.05"/>
<stop offset="1" stop-color="#EB5757" stop-opacity="0.7"/>
</linearGradient>
<linearGradient id="paint22_linear_91_2478" x1="96.8559" y1="46.3199" x2="135.81" y2="69.8069" gradientUnits="userSpaceOnUse">
<stop stop-color="#EB5757" stop-opacity="0"/>
<stop offset="1" stop-color="#EB5757"/>
</linearGradient>
<linearGradient id="paint23_linear_91_2478" x1="121.733" y1="53.6042" x2="96.1413" y2="53.6042" gradientUnits="userSpaceOnUse">
<stop stop-color="#EB5757" stop-opacity="0.05"/>
<stop offset="1" stop-color="#EB5757" stop-opacity="0.7"/>
</linearGradient>
<linearGradient id="paint24_linear_91_2478" x1="-nan" y1="-nan" x2="-nan" y2="-nan" gradientUnits="userSpaceOnUse">
<stop stop-color="white" stop-opacity="0"/>
<stop offset="0.5" stop-color="white" stop-opacity="0.3"/>
<stop offset="1" stop-color="white" stop-opacity="0"/>
</linearGradient>
<linearGradient id="paint25_linear_91_2478" x1="-nan" y1="-nan" x2="-nan" y2="-nan" gradientUnits="userSpaceOnUse">
<stop stop-color="white" stop-opacity="0"/>
<stop offset="0.5" stop-color="white" stop-opacity="0.3"/>
<stop offset="1" stop-color="white" stop-opacity="0"/>
</linearGradient>
<clipPath id="clip0_91_2478">
<rect width="166" height="166" fill="white"/>
</clipPath>
<clipPath id="clip1_91_2478">
<rect width="166" height="166" fill="white"/>
</clipPath>
</defs>
</svg>
