<svg width="14" height="14" viewBox="0 0 14 14" fill="none" xmlns="http://www.w3.org/2000/svg">
<path d="M3.17805 13.9997V4.55356H0.1769V13.9997H3.17805ZM1.6781 3.26408C2.72445 3.26408 3.37587 2.53873 3.37587 1.63224C3.35628 0.70511 2.72445 0 1.698 0C0.67085 0 0 0.70511 0 1.63216C0 2.53864 0.65118 3.26399 1.65844 3.26399L1.6781 3.26408ZM4.83923 13.9997H7.8401V8.7251C7.8401 8.4432 7.8597 8.1605 7.939 7.9591C8.1559 7.3948 8.6497 6.8107 9.4789 6.8107C10.5646 6.8107 10.9992 7.6768 10.9992 8.9468V13.9997H14V8.5836C14 5.6822 12.5196 4.3321 10.5452 4.3321C8.9264 4.3321 8.2154 5.2787 7.8204 5.9234H7.8404V4.55389H4.83939C4.87856 5.44 4.83923 13.9997 4.83923 13.9997Z" fill="white"/>
</svg>
