<svg width="276" height="58" viewBox="0 0 276 58" fill="none" xmlns="http://www.w3.org/2000/svg">
<path d="M10.632 23.312C8.664 23.312 6.936 22.984 5.448 22.328C3.96 21.656 2.808 20.712 1.992 19.496C1.176 18.264 0.768 16.832 0.768 15.2V15.08C0.768 13.448 1.176 12.024 1.992 10.808C2.808 9.576 3.96 8.624 5.448 7.952C6.936 7.28 8.664 6.944 10.632 6.944C12.488 6.944 14.144 7.24 15.6 7.832C17.072 8.424 18.216 9.256 19.032 10.328C19.864 11.384 20.28 12.584 20.28 13.928V14.096H15.36V13.928C15.36 13.16 14.928 12.552 14.064 12.104C13.216 11.656 12.064 11.432 10.608 11.432C8.944 11.432 7.704 11.728 6.888 12.32C6.088 12.912 5.688 13.816 5.688 15.032V15.272C5.688 16.488 6.088 17.384 6.888 17.96C7.688 18.536 8.936 18.824 10.632 18.824C12.136 18.824 13.296 18.616 14.112 18.2C14.944 17.768 15.36 17.16 15.36 16.376V16.208H20.28V16.376C20.28 17.704 19.864 18.896 19.032 19.952C18.216 21.008 17.072 21.832 15.6 22.424C14.144 23.016 12.488 23.312 10.632 23.312ZM27.3366 7.256V18.68H37.1046V23H22.5126V7.256H27.3366ZM55.8851 22.28V23H51.1811L50.1491 20.408H43.2371L42.2051 23H37.5011V22.28L44.0291 7.256H49.3571L55.8851 22.28ZM48.5411 16.424L46.6931 11.84L44.8451 16.424H48.5411ZM61.9219 7.256V23H57.0979V7.256H61.9219ZM81.2138 12.8C81.2138 14.064 80.8378 15.088 80.0858 15.872C79.3498 16.656 78.2778 17.168 76.8698 17.408L81.1178 22.28V23H75.6698L71.2058 17.576H69.4538V23H64.6298V7.256H74.8778C76.8458 7.256 78.3898 7.728 79.5098 8.672C80.6458 9.616 81.2138 10.912 81.2138 12.56V12.8ZM69.4538 14H74.7578C75.7818 14 76.2938 13.608 76.2938 12.824V12.584C76.2938 11.816 75.7818 11.432 74.7578 11.432H69.4538V14ZM101.879 7.256C104.935 7.256 107.231 7.912 108.767 9.224C110.319 10.52 111.095 12.464 111.095 15.056V15.224C111.095 20.408 108.023 23 101.879 23H93.5751V7.256H101.879ZM101.879 18.68C103.399 18.68 104.495 18.416 105.167 17.888C105.839 17.36 106.175 16.496 106.175 15.296V15.008C106.175 13.824 105.823 12.96 105.119 12.416C104.431 11.856 103.343 11.576 101.855 11.576H98.3991V18.68H101.879ZM127.995 7.256V11.384H118.227V13.088H127.515V17.144H118.227V18.872H127.995V23H113.403V7.256H127.995ZM145.18 7.256V18.68H154.948V23H140.356V7.256H145.18ZM164.098 23.312C162.45 23.312 161.002 22.992 159.754 22.352C158.522 21.696 157.57 20.768 156.898 19.568C156.226 18.368 155.89 16.976 155.89 15.392V7.256H160.714V15.488C160.714 17.712 161.842 18.824 164.098 18.824C165.25 18.824 166.106 18.552 166.666 18.008C167.226 17.448 167.506 16.608 167.506 15.488V7.256H172.33V15.392C172.33 16.992 171.986 18.392 171.298 19.592C170.626 20.776 169.666 21.696 168.418 22.352C167.186 22.992 165.746 23.312 164.098 23.312ZM191.745 7.256V23H187.281L179.673 14.096V23H175.161V7.256H179.649L187.233 16.136V7.256H191.745ZM209.417 7.256V11.384H199.649V13.088H208.937V17.144H199.649V18.872H209.417V23H194.825V7.256H209.417ZM226.242 7.256V23H221.418V7.256H226.242ZM245.534 7.256V23H241.07L233.462 14.096V23H228.95V7.256H233.438L241.022 16.136V7.256H245.534ZM257.71 23.312C255.742 23.312 254.014 22.984 252.526 22.328C251.038 21.656 249.886 20.712 249.07 19.496C248.254 18.264 247.846 16.832 247.846 15.2V15.08C247.846 13.448 248.254 12.024 249.07 10.808C249.886 9.576 251.038 8.624 252.526 7.952C254.014 7.28 255.742 6.944 257.71 6.944C259.566 6.944 261.222 7.24 262.678 7.832C264.15 8.424 265.294 9.256 266.11 10.328C266.942 11.384 267.358 12.584 267.358 13.928V14.096H262.438V13.928C262.438 13.16 262.006 12.552 261.142 12.104C260.294 11.656 259.142 11.432 257.686 11.432C256.022 11.432 254.782 11.728 253.966 12.32C253.166 12.912 252.766 13.816 252.766 15.032V15.272C252.766 16.488 253.166 17.384 253.966 17.96C254.766 18.536 256.014 18.824 257.71 18.824C259.214 18.824 260.374 18.616 261.19 18.2C262.022 17.768 262.438 17.16 262.438 16.376V16.208H267.358V16.376C267.358 17.704 266.942 18.896 266.11 19.952C265.294 21.008 264.15 21.832 262.678 22.424C261.222 23.016 259.566 23.312 257.71 23.312ZM271.125 23.312C270.325 23.312 269.677 23.072 269.181 22.592C268.685 22.112 268.437 21.48 268.437 20.696C268.437 19.928 268.685 19.304 269.181 18.824C269.677 18.344 270.325 18.104 271.125 18.104C271.925 18.104 272.573 18.344 273.069 18.824C273.565 19.304 273.813 19.928 273.813 20.696C273.813 21.48 273.565 22.112 273.069 22.592C272.573 23.072 271.925 23.312 271.125 23.312Z" fill="white"/>
<path d="M52.44 51V38.4H56.886C58.614 38.4 59.982 38.952 60.99 40.056C62.01 41.148 62.52 42.696 62.52 44.7C62.52 46.716 62.01 48.27 60.99 49.362C59.982 50.454 58.614 51 56.886 51H52.44ZM54.33 49.29H56.85C57.978 49.29 58.89 48.894 59.586 48.102C60.282 47.31 60.63 46.176 60.63 44.7C60.63 43.224 60.282 42.09 59.586 41.298C58.89 40.506 57.978 40.11 56.85 40.11H54.33V49.29ZM62.8807 51L67.5607 38.4H69.8107L74.4907 51H72.5107L71.4667 48.12H65.9047L64.8607 51H62.8807ZM66.5167 46.41H70.8547L68.7307 40.56H68.6407L66.5167 46.41ZM78.7165 51V40.11H74.7565V38.4H84.5665V40.11H80.6065V51H78.7165ZM83.5702 51L88.2502 38.4H90.5002L95.1802 51H93.2002L92.1562 48.12H86.5942L85.5502 51H83.5702ZM87.2062 46.41H91.5442L89.4202 40.56H89.3302L87.2062 46.41ZM99.9361 51V38.4H102.816L106.38 48.21H106.452L110.016 38.4H112.896V51H111.006V40.83H110.916L107.226 51H105.606L101.916 40.83H101.826V51H99.9361ZM114.244 51L118.924 38.4H121.174L125.854 51H123.874L122.83 48.12H117.268L116.224 51H114.244ZM117.88 46.41H122.218L120.094 40.56H120.004L117.88 46.41ZM127.2 51V38.4H129.81L135.66 48.48H135.75V38.4H137.64V51H135.03L129.18 40.92H129.09V51H127.2ZM138.994 51L143.674 38.4H145.924L150.604 51H148.624L147.58 48.12H142.018L140.974 51H138.994ZM142.63 46.41H146.968L144.844 40.56H144.754L142.63 46.41ZM157.08 51.18C155.328 51.18 153.93 50.616 152.886 49.488C151.842 48.36 151.32 46.764 151.32 44.7C151.32 42.636 151.842 41.04 152.886 39.912C153.93 38.784 155.328 38.22 157.08 38.22C159.708 38.22 161.448 39.45 162.3 41.91H160.32C159.708 40.59 158.628 39.93 157.08 39.93C155.916 39.93 154.98 40.344 154.272 41.172C153.564 41.988 153.21 43.164 153.21 44.7C153.21 46.236 153.558 47.418 154.254 48.246C154.962 49.062 155.904 49.47 157.08 49.47C158.172 49.47 159.03 49.14 159.654 48.48C160.29 47.82 160.632 47.04 160.68 46.14H156.99V44.43H162.57V45.24C162.57 47.052 162.078 48.498 161.094 49.578C160.122 50.646 158.784 51.18 157.08 51.18ZM164.817 51V38.4H172.917V40.11H166.707V43.8H172.557V45.51H166.707V49.29H173.097V51H164.817ZM175.434 51V38.4H178.314L181.878 48.21H181.95L185.514 38.4H188.394V51H186.504V40.83H186.414L182.724 51H181.104L177.414 40.83H177.324V51H175.434ZM191.272 51V38.4H199.372V40.11H193.162V43.8H199.012V45.51H193.162V49.29H199.552V51H191.272ZM201.889 51V38.4H204.499L210.349 48.48H210.439V38.4H212.329V51H209.719L203.869 40.92H203.779V51H201.889ZM218.093 51V40.11H214.133V38.4H223.943V40.11H219.983V51H218.093Z" fill="#716484"/>
</svg>
