<svg width="354" height="354" viewBox="0 0 354 354" fill="none" xmlns="http://www.w3.org/2000/svg">
<g filter="url(#filter0_di_91_2104)">
<rect x="177" y="109" width="96" height="96" rx="16" transform="rotate(45 177 109)" fill="#F2994A"/>
<rect x="177" y="110.061" width="94.5" height="94.5" rx="15.25" transform="rotate(45 177 110.061)" stroke="white" stroke-opacity="0.4" stroke-width="1.5"/>
</g>
<path d="M180.874 161.488V185.344C180.874 187.099 181.247 188.293 181.994 188.928C182.74 189.525 184.01 189.824 185.802 189.824V191C185.055 190.963 183.954 190.925 182.498 190.888C181.079 190.813 179.604 190.776 178.074 190.776C176.282 190.776 174.564 190.813 172.922 190.888C171.279 190.925 170.01 190.963 169.114 191V189.824C170.906 189.824 172.306 189.525 173.314 188.928C174.322 188.293 174.826 187.061 174.826 185.232V171.624C174.826 169.832 174.639 168.507 174.266 167.648C173.93 166.789 173.295 166.229 172.362 165.968C171.466 165.707 170.234 165.576 168.666 165.576V164.344C171.503 164.269 173.874 164.027 175.778 163.616C177.682 163.205 179.38 162.496 180.874 161.488Z" fill="white"/>
<defs>
<filter id="filter0_di_91_2104" x="0.745178" y="0.627411" width="352.51" height="352.51" filterUnits="userSpaceOnUse" color-interpolation-filters="sRGB">
<feFlood flood-opacity="0" result="BackgroundImageFix"/>
<feColorMatrix in="SourceAlpha" type="matrix" values="0 0 0 0 0 0 0 0 0 0 0 0 0 0 0 0 0 0 127 0" result="hardAlpha"/>
<feOffset/>
<feGaussianBlur stdDeviation="57.5"/>
<feComposite in2="hardAlpha" operator="out"/>
<feColorMatrix type="matrix" values="0 0 0 0 0.94902 0 0 0 0 0.6 0 0 0 0 0.290196 0 0 0 0.4 0"/>
<feBlend mode="normal" in2="BackgroundImageFix" result="effect1_dropShadow_91_2104"/>
<feBlend mode="normal" in="SourceGraphic" in2="effect1_dropShadow_91_2104" result="shape"/>
<feColorMatrix in="SourceAlpha" type="matrix" values="0 0 0 0 0 0 0 0 0 0 0 0 0 0 0 0 0 0 127 0" result="hardAlpha"/>
<feOffset/>
<feGaussianBlur stdDeviation="12"/>
<feComposite in2="hardAlpha" operator="arithmetic" k2="-1" k3="1"/>
<feColorMatrix type="matrix" values="0 0 0 0 1 0 0 0 0 1 0 0 0 0 1 0 0 0 0.4 0"/>
<feBlend mode="normal" in2="shape" result="effect2_innerShadow_91_2104"/>
</filter>
</defs>
</svg>
