<svg width="354" height="354" viewBox="0 0 354 354" fill="none" xmlns="http://www.w3.org/2000/svg">
<g filter="url(#filter0_di_190_914)">
<rect x="177" y="109" width="96" height="96" rx="16" transform="rotate(45 177 109)" fill="#781ECD"/>
<rect x="177" y="110.061" width="94.5" height="94.5" rx="15.25" transform="rotate(45 177 110.061)" stroke="white" stroke-opacity="0.4" stroke-width="1.5"/>
</g>
<path d="M177.764 170.976C183.439 170.976 187.882 172.021 191.092 174.112C194.34 176.203 195.964 179.096 195.964 182.792V183.464C195.964 187.421 194.396 190.445 191.26 192.536C188.124 194.627 183.607 195.672 177.708 195.672C171.772 195.672 167.255 194.776 164.156 192.984C161.058 191.155 159.508 188.504 159.508 185.032V184.64H166.508V185.032C166.508 186.339 167.46 187.365 169.364 188.112C171.306 188.821 174.031 189.176 177.54 189.176C181.162 189.176 183.962 188.691 185.94 187.72C187.956 186.712 188.964 185.312 188.964 183.52V182.848C188.964 181.131 187.938 179.805 185.884 178.872C183.868 177.939 181.012 177.472 177.316 177.472C174.106 177.472 171.511 177.808 169.532 178.48C167.554 179.115 166.49 179.992 166.34 181.112H159.508L160.74 158.264H193.556V164.536H166.9L166.452 173.272C169.215 171.741 172.986 170.976 177.764 170.976Z" fill="white"/>
<defs>
<filter id="filter0_di_190_914" x="0.745117" y="0.627441" width="352.51" height="352.51" filterUnits="userSpaceOnUse" color-interpolation-filters="sRGB">
<feFlood flood-opacity="0" result="BackgroundImageFix"/>
<feColorMatrix in="SourceAlpha" type="matrix" values="0 0 0 0 0 0 0 0 0 0 0 0 0 0 0 0 0 0 127 0" result="hardAlpha"/>
<feOffset/>
<feGaussianBlur stdDeviation="57.5"/>
<feComposite in2="hardAlpha" operator="out"/>
<feColorMatrix type="matrix" values="0 0 0 0 0.470588 0 0 0 0 0.117647 0 0 0 0 0.803922 0 0 0 0.4 0"/>
<feBlend mode="normal" in2="BackgroundImageFix" result="effect1_dropShadow_190_914"/>
<feBlend mode="normal" in="SourceGraphic" in2="effect1_dropShadow_190_914" result="shape"/>
<feColorMatrix in="SourceAlpha" type="matrix" values="0 0 0 0 0 0 0 0 0 0 0 0 0 0 0 0 0 0 127 0" result="hardAlpha"/>
<feOffset/>
<feGaussianBlur stdDeviation="12"/>
<feComposite in2="hardAlpha" operator="arithmetic" k2="-1" k3="1"/>
<feColorMatrix type="matrix" values="0 0 0 0 1 0 0 0 0 1 0 0 0 0 1 0 0 0 0.4 0"/>
<feBlend mode="normal" in2="shape" result="effect2_innerShadow_190_914"/>
</filter>
</defs>
</svg>
