<svg width="354" height="354" viewBox="0 0 354 354" fill="none" xmlns="http://www.w3.org/2000/svg">
<g filter="url(#filter0_di_91_2114)">
<rect x="177" y="109" width="96" height="96" rx="16" transform="rotate(45 177 109)" fill="#EB5757"/>
<rect x="177" y="110.061" width="94.5" height="94.5" rx="15.25" transform="rotate(45 177 110.061)" stroke="white" stroke-opacity="0.4" stroke-width="1.5"/>
</g>
<path d="M177.205 161.32C179.669 161.32 181.704 161.899 183.309 163.056C184.952 164.176 185.773 165.744 185.773 167.76C185.773 169.179 185.344 170.504 184.485 171.736C183.664 172.968 182.544 174.032 181.125 174.928C179.744 175.787 178.176 176.477 176.421 177C178.437 176.963 180.304 177.261 182.021 177.896C183.739 178.531 185.12 179.483 186.165 180.752C187.248 181.984 187.789 183.571 187.789 185.512C187.789 187.64 187.136 189.563 185.829 191.28C184.56 192.997 182.861 194.453 180.733 195.648C178.605 196.88 176.253 197.813 173.677 198.448C171.139 199.12 168.6 199.456 166.061 199.456V198.392C167.928 198.355 169.776 198.037 171.605 197.44C173.435 196.88 175.077 196.059 176.533 194.976C178.027 193.931 179.221 192.605 180.117 191C181.013 189.395 181.461 187.565 181.461 185.512C181.461 183.309 180.939 181.499 179.893 180.08C178.848 178.624 177.411 177.821 175.581 177.672C175.021 177.933 174.517 178.157 174.069 178.344C173.621 178.493 173.211 178.568 172.837 178.568C172.203 178.568 171.885 178.307 171.885 177.784C171.885 177.411 172.053 177.131 172.389 176.944C172.725 176.757 173.08 176.664 173.453 176.664C173.752 176.664 174.051 176.701 174.349 176.776C174.685 176.813 175.04 176.851 175.413 176.888C176.981 175.768 178.083 174.536 178.717 173.192C179.389 171.811 179.725 170.429 179.725 169.048C179.725 167.293 179.277 166.024 178.381 165.24C177.523 164.419 176.347 164.008 174.853 164.008C173.323 164.008 171.923 164.419 170.653 165.24C169.384 166.024 168.32 167.219 167.461 168.824L166.453 168.32C167.051 167.088 167.816 165.949 168.749 164.904C169.683 163.821 170.84 162.963 172.221 162.328C173.603 161.656 175.264 161.32 177.205 161.32Z" fill="white"/>
<defs>
<filter id="filter0_di_91_2114" x="0.745171" y="0.627411" width="352.51" height="352.51" filterUnits="userSpaceOnUse" color-interpolation-filters="sRGB">
<feFlood flood-opacity="0" result="BackgroundImageFix"/>
<feColorMatrix in="SourceAlpha" type="matrix" values="0 0 0 0 0 0 0 0 0 0 0 0 0 0 0 0 0 0 127 0" result="hardAlpha"/>
<feOffset/>
<feGaussianBlur stdDeviation="57.5"/>
<feComposite in2="hardAlpha" operator="out"/>
<feColorMatrix type="matrix" values="0 0 0 0 0.921569 0 0 0 0 0.341176 0 0 0 0 0.341176 0 0 0 0.4 0"/>
<feBlend mode="normal" in2="BackgroundImageFix" result="effect1_dropShadow_91_2114"/>
<feBlend mode="normal" in="SourceGraphic" in2="effect1_dropShadow_91_2114" result="shape"/>
<feColorMatrix in="SourceAlpha" type="matrix" values="0 0 0 0 0 0 0 0 0 0 0 0 0 0 0 0 0 0 127 0" result="hardAlpha"/>
<feOffset/>
<feGaussianBlur stdDeviation="12"/>
<feComposite in2="hardAlpha" operator="arithmetic" k2="-1" k3="1"/>
<feColorMatrix type="matrix" values="0 0 0 0 1 0 0 0 0 1 0 0 0 0 1 0 0 0 0.4 0"/>
<feBlend mode="normal" in2="shape" result="effect2_innerShadow_91_2114"/>
</filter>
</defs>
</svg>
