<svg width="18" height="13" viewBox="0 0 18 13" fill="none" xmlns="http://www.w3.org/2000/svg">
<path d="M9.3988 12.4349L5.70588 12.3674C4.5102 12.3439 3.31154 12.3908 2.13931 12.147C0.356073 11.7827 0.229733 9.9965 0.0975427 8.4982C-0.0846073 6.3918 -0.0140873 4.2471 0.329643 2.15831C0.523693 0.986263 1.28736 0.286883 2.46834 0.210783C6.45503 -0.0654171 10.4682 -0.0326873 14.4461 0.0961727C14.8662 0.107983 15.2892 0.172553 15.7034 0.246043C17.7483 0.604473 17.7981 2.62865 17.9307 4.3326C18.0629 6.0542 18.007 7.7846 17.7544 9.4944C17.5517 10.9101 17.1638 12.0973 15.5271 12.2119C13.4764 12.3618 11.4728 12.4825 9.4164 12.444C9.4165 12.4349 9.4046 12.4349 9.3988 12.4349ZM7.2277 8.8508C8.7731 7.9635 10.289 7.091 11.8255 6.2096C10.2772 5.3224 8.7642 4.4499 7.2277 3.56851V8.8508Z" fill="white"/>
</svg>
